<svg width="1909" height="287" viewBox="0 0 1909 287" fill="none" xmlns="http://www.w3.org/2000/svg">
<rect width="1920" height="287" fill="#FAF3DD"/>
<g clip-path="url(#clip0_2268_658)">
<path d="M203.519 190V137.636H226.224C230.212 137.636 233.562 138.173 236.272 139.247C238.999 140.321 241.053 141.838 242.434 143.798C243.832 145.759 244.53 148.068 244.53 150.727C244.53 152.653 244.104 154.409 243.252 155.994C242.417 157.58 241.241 158.909 239.724 159.983C238.207 161.04 236.434 161.773 234.405 162.182V162.693C236.655 162.778 238.701 163.349 240.542 164.406C242.383 165.446 243.849 166.886 244.939 168.727C246.03 170.551 246.576 172.699 246.576 175.17C246.576 178.034 245.826 180.582 244.326 182.815C242.843 185.048 240.729 186.804 237.985 188.082C235.241 189.361 231.968 190 228.167 190H203.519ZM217.735 178.648H224.383C226.769 178.648 228.559 178.205 229.752 177.318C230.945 176.415 231.542 175.085 231.542 173.33C231.542 172.102 231.261 171.062 230.698 170.21C230.136 169.358 229.334 168.71 228.295 168.267C227.272 167.824 226.036 167.602 224.587 167.602H217.735V178.648ZM217.735 158.807H223.564C224.809 158.807 225.908 158.611 226.863 158.219C227.817 157.827 228.559 157.264 229.087 156.531C229.633 155.781 229.905 154.869 229.905 153.795C229.905 152.176 229.326 150.94 228.167 150.088C227.008 149.219 225.542 148.784 223.769 148.784H217.735V158.807ZM267.858 190.716C263.596 190.716 259.949 189.872 256.915 188.185C253.881 186.48 251.554 184.111 249.934 181.077C248.315 178.026 247.506 174.489 247.506 170.466C247.506 166.443 248.315 162.915 249.934 159.881C251.554 156.83 253.881 154.46 256.915 152.773C259.949 151.068 263.596 150.216 267.858 150.216C272.119 150.216 275.767 151.068 278.801 152.773C281.835 154.46 284.162 156.83 285.781 159.881C287.4 162.915 288.21 166.443 288.21 170.466C288.21 174.489 287.4 178.026 285.781 181.077C284.162 184.111 281.835 186.48 278.801 188.185C275.767 189.872 272.119 190.716 267.858 190.716ZM267.96 180.284C269.153 180.284 270.184 179.884 271.054 179.082C271.923 178.281 272.596 177.139 273.074 175.656C273.551 174.173 273.79 172.409 273.79 170.364C273.79 168.301 273.551 166.537 273.074 165.071C272.596 163.588 271.923 162.446 271.054 161.645C270.184 160.844 269.153 160.443 267.96 160.443C266.699 160.443 265.616 160.844 264.713 161.645C263.809 162.446 263.119 163.588 262.642 165.071C262.165 166.537 261.926 168.301 261.926 170.364C261.926 172.409 262.165 174.173 262.642 175.656C263.119 177.139 263.809 178.281 264.713 179.082C265.616 179.884 266.699 180.284 267.96 180.284ZM309.978 190.716C305.716 190.716 302.069 189.872 299.035 188.185C296.001 186.48 293.674 184.111 292.054 181.077C290.435 178.026 289.626 174.489 289.626 170.466C289.626 166.443 290.435 162.915 292.054 159.881C293.674 156.83 296.001 154.46 299.035 152.773C302.069 151.068 305.716 150.216 309.978 150.216C314.239 150.216 317.887 151.068 320.921 152.773C323.955 154.46 326.282 156.83 327.901 159.881C329.52 162.915 330.33 166.443 330.33 170.466C330.33 174.489 329.52 178.026 327.901 181.077C326.282 184.111 323.955 186.48 320.921 188.185C317.887 189.872 314.239 190.716 309.978 190.716ZM310.08 180.284C311.273 180.284 312.304 179.884 313.174 179.082C314.043 178.281 314.716 177.139 315.194 175.656C315.671 174.173 315.91 172.409 315.91 170.364C315.91 168.301 315.671 166.537 315.194 165.071C314.716 163.588 314.043 162.446 313.174 161.645C312.304 160.844 311.273 160.443 310.08 160.443C308.819 160.443 307.736 160.844 306.833 161.645C305.929 162.446 305.239 163.588 304.762 165.071C304.285 166.537 304.046 168.301 304.046 170.364C304.046 172.409 304.285 174.173 304.762 175.656C305.239 177.139 305.929 178.281 306.833 179.082C307.736 179.884 308.819 180.284 310.08 180.284ZM369.075 163.511H356.086C356.018 162.71 355.737 162.02 355.243 161.44C354.748 160.861 354.109 160.418 353.325 160.111C352.558 159.787 351.706 159.625 350.768 159.625C349.558 159.625 348.518 159.847 347.649 160.29C346.78 160.733 346.353 161.364 346.371 162.182C346.353 162.761 346.601 163.298 347.112 163.793C347.64 164.287 348.655 164.67 350.155 164.943L358.132 166.375C362.155 167.108 365.146 168.344 367.106 170.082C369.084 171.804 370.081 174.114 370.098 177.011C370.081 179.807 369.246 182.236 367.592 184.298C365.956 186.344 363.714 187.929 360.868 189.054C358.038 190.162 354.808 190.716 351.177 190.716C345.177 190.716 340.481 189.489 337.089 187.034C333.714 184.58 331.831 181.341 331.439 177.318H345.45C345.638 178.562 346.251 179.526 347.291 180.207C348.348 180.872 349.677 181.205 351.28 181.205C352.575 181.205 353.64 180.983 354.476 180.54C355.328 180.097 355.763 179.466 355.78 178.648C355.763 177.898 355.388 177.301 354.655 176.858C353.939 176.415 352.814 176.057 351.28 175.784L344.325 174.557C340.319 173.858 337.319 172.528 335.325 170.568C333.331 168.608 332.342 166.085 332.359 163C332.342 160.273 333.058 157.963 334.507 156.071C335.973 154.162 338.061 152.713 340.771 151.724C343.498 150.719 346.728 150.216 350.461 150.216C356.138 150.216 360.612 151.392 363.885 153.744C367.174 156.097 368.905 159.352 369.075 163.511ZM396.046 150.727V160.955H370.171V150.727H396.046ZM375.182 141.318H389.296V177.369C389.296 177.915 389.39 178.375 389.577 178.75C389.765 179.108 390.054 179.381 390.446 179.568C390.839 179.739 391.341 179.824 391.955 179.824C392.381 179.824 392.875 179.773 393.438 179.67C394.017 179.568 394.444 179.483 394.716 179.415L396.762 189.335C396.131 189.523 395.228 189.753 394.052 190.026C392.892 190.298 391.512 190.477 389.91 190.562C386.671 190.733 383.952 190.401 381.753 189.565C379.554 188.713 377.901 187.375 376.793 185.551C375.685 183.727 375.148 181.443 375.182 178.699V141.318ZM408.037 137.636H423.889L434.116 158.909H434.525L444.753 137.636H460.605L441.378 173.534V190H427.264V173.534L408.037 137.636ZM471.5 190.716C467.238 190.716 463.591 189.872 460.556 188.185C457.522 186.48 455.196 184.111 453.576 181.077C451.957 178.026 451.147 174.489 451.147 170.466C451.147 166.443 451.957 162.915 453.576 159.881C455.196 156.83 457.522 154.46 460.556 152.773C463.591 151.068 467.238 150.216 471.5 150.216C475.761 150.216 479.409 151.068 482.443 152.773C485.477 154.46 487.804 156.83 489.423 159.881C491.042 162.915 491.852 166.443 491.852 170.466C491.852 174.489 491.042 178.026 489.423 181.077C487.804 184.111 485.477 186.48 482.443 188.185C479.409 189.872 475.761 190.716 471.5 190.716ZM471.602 180.284C472.795 180.284 473.826 179.884 474.696 179.082C475.565 178.281 476.238 177.139 476.716 175.656C477.193 174.173 477.431 172.409 477.431 170.364C477.431 168.301 477.193 166.537 476.716 165.071C476.238 163.588 475.565 162.446 474.696 161.645C473.826 160.844 472.795 160.443 471.602 160.443C470.341 160.443 469.258 160.844 468.355 161.645C467.451 162.446 466.761 163.588 466.284 165.071C465.806 166.537 465.568 168.301 465.568 170.364C465.568 172.409 465.806 174.173 466.284 175.656C466.761 177.139 467.451 178.281 468.355 179.082C469.258 179.884 470.341 180.284 471.602 180.284ZM520.165 172.818V150.727H534.279V190H520.881V182.534H520.472C519.62 185.04 518.128 187 515.998 188.415C513.867 189.812 511.336 190.511 508.404 190.511C505.659 190.511 503.256 189.881 501.194 188.619C499.148 187.358 497.554 185.619 496.412 183.403C495.287 181.187 494.716 178.648 494.699 175.784V150.727H508.813V172.818C508.83 174.761 509.324 176.287 510.296 177.395C511.284 178.503 512.665 179.057 514.438 179.057C515.614 179.057 516.628 178.81 517.48 178.315C518.35 177.804 519.015 177.088 519.475 176.168C519.952 175.23 520.182 174.114 520.165 172.818ZM538.577 190V150.727H552.282V158.193H552.691C553.407 155.432 554.54 153.412 556.091 152.134C557.659 150.855 559.492 150.216 561.588 150.216C562.202 150.216 562.807 150.267 563.404 150.369C564.017 150.455 564.605 150.582 565.168 150.753V162.795C564.469 162.557 563.608 162.378 562.586 162.259C561.563 162.139 560.685 162.08 559.952 162.08C558.571 162.08 557.327 162.395 556.219 163.026C555.128 163.639 554.267 164.509 553.637 165.634C553.006 166.741 552.691 168.045 552.691 169.545V190H538.577ZM984.667 182.841L984.462 185.705C984.292 188.159 983.883 190.511 983.235 192.761C982.604 195.011 981.931 197.006 981.215 198.744C980.516 200.483 979.962 201.83 979.553 202.784H970.86C971.133 201.83 971.516 200.449 972.011 198.642C972.522 196.852 972.982 194.824 973.391 192.557C973.817 190.307 974.031 188.023 974.031 185.705V182.841H984.667ZM998.185 190V137.636H1012.4V178.545H1033.57V190H998.185ZM1047.59 190.614C1045.08 190.614 1042.86 190.205 1040.94 189.386C1039.03 188.551 1037.53 187.29 1036.44 185.602C1035.35 183.915 1034.8 181.767 1034.8 179.159C1034.8 177.011 1035.17 175.179 1035.9 173.662C1036.63 172.128 1037.66 170.875 1038.97 169.903C1040.28 168.932 1041.81 168.19 1043.55 167.679C1045.3 167.168 1047.19 166.835 1049.22 166.682C1051.42 166.511 1053.19 166.307 1054.51 166.068C1055.86 165.812 1056.83 165.463 1057.43 165.02C1058.03 164.56 1058.32 163.955 1058.32 163.205V163.102C1058.32 162.08 1057.93 161.295 1057.15 160.75C1056.36 160.205 1055.36 159.932 1054.13 159.932C1052.78 159.932 1051.69 160.23 1050.83 160.827C1050 161.406 1049.49 162.301 1049.32 163.511H1036.34C1036.51 161.125 1037.26 158.926 1038.61 156.915C1039.98 154.886 1041.96 153.267 1044.57 152.057C1047.18 150.83 1050.43 150.216 1054.34 150.216C1057.15 150.216 1059.67 150.548 1061.9 151.213C1064.14 151.861 1066.04 152.773 1067.61 153.949C1069.17 155.108 1070.37 156.472 1071.19 158.04C1072.02 159.591 1072.44 161.278 1072.44 163.102V190H1059.24V184.477H1058.94C1058.15 185.943 1057.2 187.128 1056.07 188.031C1054.97 188.935 1053.7 189.591 1052.26 190C1050.85 190.409 1049.29 190.614 1047.59 190.614ZM1052.19 181.716C1053.26 181.716 1054.27 181.494 1055.21 181.051C1056.16 180.608 1056.94 179.969 1057.53 179.134C1058.13 178.298 1058.43 177.284 1058.43 176.091V172.818C1058.05 172.972 1057.65 173.116 1057.23 173.253C1056.82 173.389 1056.37 173.517 1055.9 173.636C1055.44 173.756 1054.94 173.866 1054.41 173.969C1053.9 174.071 1053.36 174.165 1052.8 174.25C1051.71 174.42 1050.82 174.702 1050.12 175.094C1049.44 175.469 1048.92 175.938 1048.58 176.5C1048.26 177.045 1048.1 177.659 1048.1 178.341C1048.1 179.432 1048.48 180.267 1049.25 180.847C1050.01 181.426 1050.99 181.716 1052.19 181.716ZM1090.42 167.909V190H1076.3V150.727H1089.7V158.193H1090.11C1090.96 155.705 1092.46 153.753 1094.61 152.338C1096.77 150.923 1099.3 150.216 1102.18 150.216C1104.96 150.216 1107.37 150.855 1109.41 152.134C1111.48 153.395 1113.07 155.134 1114.19 157.349C1115.34 159.565 1115.9 162.097 1115.88 164.943V190H1101.77V167.909C1101.78 165.966 1101.29 164.44 1100.28 163.332C1099.3 162.224 1097.92 161.67 1096.14 161.67C1094.98 161.67 1093.97 161.926 1093.1 162.438C1092.25 162.932 1091.59 163.648 1091.13 164.585C1090.67 165.506 1090.43 166.614 1090.42 167.909ZM1134.18 190.511C1131.39 190.511 1128.82 189.778 1126.46 188.312C1124.13 186.847 1122.25 184.622 1120.84 181.639C1119.44 178.656 1118.74 174.898 1118.74 170.364C1118.74 165.625 1119.47 161.773 1120.94 158.807C1122.42 155.841 1124.33 153.668 1126.67 152.287C1129.02 150.906 1131.49 150.216 1134.08 150.216C1136.03 150.216 1137.73 150.557 1139.2 151.239C1140.66 151.903 1141.89 152.798 1142.88 153.923C1143.87 155.031 1144.62 156.25 1145.13 157.58H1145.33V137.636H1159.45V190H1145.43V183.557H1145.13C1144.58 184.886 1143.8 186.08 1142.78 187.136C1141.77 188.176 1140.54 189.003 1139.09 189.616C1137.66 190.213 1136.03 190.511 1134.18 190.511ZM1139.4 179.67C1140.7 179.67 1141.8 179.295 1142.72 178.545C1143.66 177.778 1144.38 176.705 1144.87 175.324C1145.38 173.926 1145.64 172.273 1145.64 170.364C1145.64 168.42 1145.38 166.759 1144.87 165.378C1144.38 163.98 1143.66 162.915 1142.72 162.182C1141.8 161.432 1140.7 161.057 1139.4 161.057C1138.1 161.057 1137 161.432 1136.08 162.182C1135.17 162.915 1134.47 163.98 1133.98 165.378C1133.5 166.759 1133.26 168.42 1133.26 170.364C1133.26 172.307 1133.5 173.977 1133.98 175.375C1134.47 176.756 1135.17 177.821 1136.08 178.571C1137 179.304 1138.1 179.67 1139.4 179.67ZM1172.61 137.636H1188.46L1198.69 158.909H1199.09L1209.32 137.636H1225.17L1205.95 173.534V190H1191.83V173.534L1172.61 137.636ZM1236.07 190.716C1231.81 190.716 1228.16 189.872 1225.13 188.185C1222.09 186.48 1219.77 184.111 1218.15 181.077C1216.53 178.026 1215.72 174.489 1215.72 170.466C1215.72 166.443 1216.53 162.915 1218.15 159.881C1219.77 156.83 1222.09 154.46 1225.13 152.773C1228.16 151.068 1231.81 150.216 1236.07 150.216C1240.33 150.216 1243.98 151.068 1247.01 152.773C1250.05 154.46 1252.37 156.83 1253.99 159.881C1255.61 162.915 1256.42 166.443 1256.42 170.466C1256.42 174.489 1255.61 178.026 1253.99 181.077C1252.37 184.111 1250.05 186.48 1247.01 188.185C1243.98 189.872 1240.33 190.716 1236.07 190.716ZM1236.17 180.284C1237.36 180.284 1238.4 179.884 1239.27 179.082C1240.13 178.281 1240.81 177.139 1241.29 175.656C1241.76 174.173 1242 172.409 1242 170.364C1242 168.301 1241.76 166.537 1241.29 165.071C1240.81 163.588 1240.13 162.446 1239.27 161.645C1238.4 160.844 1237.36 160.443 1236.17 160.443C1234.91 160.443 1233.83 160.844 1232.92 161.645C1232.02 162.446 1231.33 163.588 1230.85 165.071C1230.38 166.537 1230.14 168.301 1230.14 170.364C1230.14 172.409 1230.38 174.173 1230.85 175.656C1231.33 177.139 1232.02 178.281 1232.92 179.082C1233.83 179.884 1234.91 180.284 1236.17 180.284ZM1284.73 172.818V150.727H1298.85V190H1285.45V182.534H1285.04C1284.19 185.04 1282.7 187 1280.57 188.415C1278.44 189.812 1275.91 190.511 1272.97 190.511C1270.23 190.511 1267.83 189.881 1265.76 188.619C1263.72 187.358 1262.12 185.619 1260.98 183.403C1259.86 181.187 1259.29 178.648 1259.27 175.784V150.727H1273.38V172.818C1273.4 174.761 1273.89 176.287 1274.87 177.395C1275.85 178.503 1277.23 179.057 1279.01 179.057C1280.18 179.057 1281.2 178.81 1282.05 178.315C1282.92 177.804 1283.58 177.088 1284.04 176.168C1284.52 175.23 1284.75 174.114 1284.73 172.818ZM1303.15 190V150.727H1316.85V158.193H1317.26C1317.98 155.432 1319.11 153.412 1320.66 152.134C1322.23 150.855 1324.06 150.216 1326.16 150.216C1326.77 150.216 1327.38 150.267 1327.97 150.369C1328.59 150.455 1329.18 150.582 1329.74 150.753V162.795C1329.04 162.557 1328.18 162.378 1327.16 162.259C1326.13 162.139 1325.25 162.08 1324.52 162.08C1323.14 162.08 1321.9 162.395 1320.79 163.026C1319.7 163.639 1318.84 164.509 1318.21 165.634C1317.58 166.741 1317.26 168.045 1317.26 169.545V190H1303.15ZM1708.61 190.818C1706.63 190.818 1704.93 190.128 1703.52 188.747C1702.12 187.349 1701.43 185.653 1701.45 183.659C1701.43 181.716 1702.12 180.054 1703.52 178.673C1704.93 177.293 1706.63 176.602 1708.61 176.602C1710.48 176.602 1712.13 177.293 1713.57 178.673C1715.02 180.054 1715.75 181.716 1715.77 183.659C1715.75 184.989 1715.4 186.199 1714.72 187.29C1714.05 188.364 1713.18 189.224 1712.11 189.872C1711.03 190.503 1709.87 190.818 1708.61 190.818Z" fill="#252641"/>
<path d="M627.061 157.273H612.641C612.539 156.08 612.266 154.997 611.823 154.026C611.397 153.054 610.8 152.219 610.033 151.52C609.283 150.804 608.371 150.259 607.297 149.884C606.223 149.491 605.005 149.295 603.641 149.295C601.255 149.295 599.235 149.875 597.581 151.034C595.945 152.193 594.701 153.855 593.848 156.02C593.013 158.185 592.595 160.784 592.595 163.818C592.595 167.023 593.022 169.707 593.874 171.872C594.743 174.02 595.996 175.639 597.632 176.73C599.269 177.804 601.237 178.341 603.539 178.341C604.851 178.341 606.027 178.179 607.067 177.855C608.107 177.514 609.01 177.028 609.777 176.398C610.544 175.767 611.166 175.009 611.644 174.122C612.138 173.219 612.47 172.205 612.641 171.08L627.061 171.182C626.891 173.398 626.269 175.656 625.195 177.957C624.121 180.241 622.595 182.355 620.618 184.298C618.658 186.224 616.229 187.776 613.331 188.952C610.434 190.128 607.067 190.716 603.232 190.716C598.425 190.716 594.112 189.685 590.294 187.622C586.493 185.56 583.485 182.526 581.269 178.52C579.07 174.514 577.97 169.614 577.97 163.818C577.97 157.989 579.095 153.08 581.345 149.091C583.595 145.085 586.63 142.06 590.448 140.014C594.266 137.952 598.527 136.92 603.232 136.92C606.539 136.92 609.581 137.372 612.36 138.276C615.138 139.179 617.576 140.5 619.672 142.239C621.769 143.96 623.456 146.082 624.735 148.605C626.013 151.128 626.789 154.017 627.061 157.273ZM649.756 190.716C645.495 190.716 641.847 189.872 638.813 188.185C635.779 186.48 633.452 184.111 631.833 181.077C630.213 178.026 629.404 174.489 629.404 170.466C629.404 166.443 630.213 162.915 631.833 159.881C633.452 156.83 635.779 154.46 638.813 152.773C641.847 151.068 645.495 150.216 649.756 150.216C654.017 150.216 657.665 151.068 660.699 152.773C663.733 154.46 666.06 156.83 667.679 159.881C669.299 162.915 670.108 166.443 670.108 170.466C670.108 174.489 669.299 178.026 667.679 181.077C666.06 184.111 663.733 186.48 660.699 188.185C657.665 189.872 654.017 190.716 649.756 190.716ZM649.858 180.284C651.051 180.284 652.083 179.884 652.952 179.082C653.821 178.281 654.495 177.139 654.972 175.656C655.449 174.173 655.688 172.409 655.688 170.364C655.688 168.301 655.449 166.537 654.972 165.071C654.495 163.588 653.821 162.446 652.952 161.645C652.083 160.844 651.051 160.443 649.858 160.443C648.597 160.443 647.514 160.844 646.611 161.645C645.708 162.446 645.017 163.588 644.54 165.071C644.063 166.537 643.824 168.301 643.824 170.364C643.824 172.409 644.063 174.173 644.54 175.656C645.017 177.139 645.708 178.281 646.611 179.082C647.514 179.884 648.597 180.284 649.858 180.284ZM687.069 167.909V190H672.955V150.727H686.353V158.193H686.762C687.615 155.705 689.115 153.753 691.262 152.338C693.427 150.923 695.95 150.216 698.83 150.216C701.609 150.216 704.021 150.855 706.066 152.134C708.129 153.395 709.723 155.134 710.848 157.349C711.99 159.565 712.552 162.097 712.535 164.943V190H698.421V167.909C698.438 165.966 697.944 164.44 696.938 163.332C695.95 162.224 694.569 161.67 692.796 161.67C691.637 161.67 690.623 161.926 689.754 162.438C688.901 162.932 688.245 163.648 687.785 164.585C687.325 165.506 687.086 166.614 687.069 167.909ZM740.145 150.727V160.955H713.861V150.727H740.145ZM718.872 190V149.602C718.872 146.364 719.452 143.679 720.611 141.548C721.77 139.418 723.406 137.824 725.52 136.767C727.634 135.71 730.122 135.182 732.986 135.182C734.776 135.182 736.514 135.318 738.202 135.591C739.906 135.864 741.168 136.102 741.986 136.307L739.941 146.432C739.429 146.278 738.833 146.159 738.151 146.074C737.469 145.972 736.872 145.92 736.361 145.92C735.031 145.92 734.137 146.202 733.676 146.764C733.216 147.327 732.986 148.068 732.986 148.989V190H718.872ZM742.711 190V150.727H756.825V190H742.711ZM749.768 146.636C747.859 146.636 746.222 146.006 744.859 144.744C743.495 143.483 742.813 141.966 742.813 140.193C742.813 138.42 743.495 136.903 744.859 135.642C746.222 134.381 747.859 133.75 749.768 133.75C751.694 133.75 753.33 134.381 754.677 135.642C756.041 136.903 756.722 138.42 756.722 140.193C756.722 141.966 756.041 143.483 754.677 144.744C753.33 146.006 751.694 146.636 749.768 146.636ZM775.352 190.511C772.556 190.511 769.982 189.778 767.63 188.312C765.295 186.847 763.42 184.622 762.005 181.639C760.607 178.656 759.908 174.898 759.908 170.364C759.908 165.625 760.641 161.773 762.107 158.807C763.59 155.841 765.499 153.668 767.835 152.287C770.187 150.906 772.658 150.216 775.249 150.216C777.193 150.216 778.897 150.557 780.363 151.239C781.829 151.903 783.056 152.798 784.045 153.923C785.033 155.031 785.783 156.25 786.295 157.58H786.499V137.636H800.613V190H786.602V183.557H786.295C785.749 184.886 784.965 186.08 783.943 187.136C782.937 188.176 781.71 189.003 780.261 189.616C778.829 190.213 777.193 190.511 775.352 190.511ZM780.568 179.67C781.863 179.67 782.971 179.295 783.891 178.545C784.829 177.778 785.545 176.705 786.039 175.324C786.551 173.926 786.806 172.273 786.806 170.364C786.806 168.42 786.551 166.759 786.039 165.378C785.545 163.98 784.829 162.915 783.891 162.182C782.971 161.432 781.863 161.057 780.568 161.057C779.272 161.057 778.164 161.432 777.244 162.182C776.34 162.915 775.641 163.98 775.147 165.378C774.67 166.759 774.431 168.42 774.431 170.364C774.431 172.307 774.67 173.977 775.147 175.375C775.641 176.756 776.34 177.821 777.244 178.571C778.164 179.304 779.272 179.67 780.568 179.67ZM823.48 190.716C819.287 190.716 815.673 189.915 812.639 188.312C809.622 186.693 807.296 184.375 805.659 181.358C804.04 178.324 803.23 174.693 803.23 170.466C803.23 166.409 804.048 162.864 805.685 159.83C807.321 156.795 809.631 154.435 812.614 152.747C815.597 151.06 819.117 150.216 823.173 150.216C826.139 150.216 828.824 150.676 831.227 151.597C833.631 152.517 835.685 153.855 837.389 155.611C839.094 157.349 840.406 159.463 841.327 161.952C842.247 164.44 842.707 167.244 842.707 170.364V173.636H807.628V165.864H829.719C829.702 164.739 829.412 163.75 828.85 162.898C828.304 162.028 827.563 161.355 826.625 160.878C825.705 160.384 824.656 160.136 823.48 160.136C822.338 160.136 821.29 160.384 820.335 160.878C819.381 161.355 818.614 162.02 818.034 162.872C817.472 163.724 817.173 164.722 817.139 165.864V174.25C817.139 175.511 817.403 176.636 817.932 177.625C818.46 178.614 819.219 179.389 820.207 179.952C821.196 180.514 822.389 180.795 823.787 180.795C824.759 180.795 825.645 180.659 826.446 180.386C827.264 180.114 827.963 179.722 828.543 179.21C829.122 178.682 829.548 178.051 829.821 177.318H842.707C842.264 180.045 841.216 182.415 839.563 184.426C837.909 186.42 835.719 187.972 832.992 189.08C830.281 190.17 827.111 190.716 823.48 190.716ZM859.7 167.909V190H845.587V150.727H858.984V158.193H859.394C860.246 155.705 861.746 153.753 863.894 152.338C866.058 150.923 868.581 150.216 871.462 150.216C874.24 150.216 876.652 150.855 878.697 152.134C880.76 153.395 882.354 155.134 883.479 157.349C884.621 159.565 885.183 162.097 885.166 164.943V190H871.053V167.909C871.07 165.966 870.575 164.44 869.57 163.332C868.581 162.224 867.2 161.67 865.428 161.67C864.269 161.67 863.254 161.926 862.385 162.438C861.533 162.932 860.876 163.648 860.416 164.585C859.956 165.506 859.717 166.614 859.7 167.909ZM908.174 190.716C903.913 190.716 900.265 189.872 897.231 188.185C894.197 186.48 891.87 184.111 890.251 181.077C888.631 178.026 887.822 174.489 887.822 170.466C887.822 166.443 888.631 162.915 890.251 159.881C891.87 156.83 894.197 154.46 897.231 152.773C900.265 151.068 903.913 150.216 908.174 150.216C912.026 150.216 915.359 150.915 918.171 152.312C921.001 153.693 923.191 155.653 924.742 158.193C926.293 160.716 927.077 163.682 927.094 167.091H914.004C913.816 165.028 913.219 163.46 912.214 162.386C911.225 161.295 909.947 160.75 908.379 160.75C907.151 160.75 906.077 161.108 905.157 161.824C904.237 162.523 903.521 163.588 903.009 165.02C902.498 166.435 902.242 168.216 902.242 170.364C902.242 172.511 902.498 174.301 903.009 175.733C903.521 177.148 904.237 178.213 905.157 178.929C906.077 179.628 907.151 179.977 908.379 179.977C909.418 179.977 910.339 179.739 911.14 179.261C911.941 178.767 912.589 178.051 913.083 177.114C913.594 176.159 913.901 175 914.004 173.636H927.094C927.043 177.097 926.251 180.114 924.717 182.688C923.183 185.244 921.009 187.222 918.197 188.619C915.401 190.017 912.06 190.716 908.174 190.716ZM948.856 190.716C944.663 190.716 941.049 189.915 938.015 188.312C934.998 186.693 932.671 184.375 931.035 181.358C929.416 178.324 928.606 174.693 928.606 170.466C928.606 166.409 929.424 162.864 931.06 159.83C932.697 156.795 935.006 154.435 937.989 152.747C940.972 151.06 944.492 150.216 948.549 150.216C951.515 150.216 954.2 150.676 956.603 151.597C959.006 152.517 961.06 153.855 962.765 155.611C964.469 157.349 965.782 159.463 966.702 161.952C967.623 164.44 968.083 167.244 968.083 170.364V173.636H933.004V165.864H955.094C955.077 164.739 954.788 163.75 954.225 162.898C953.68 162.028 952.938 161.355 952.001 160.878C951.08 160.384 950.032 160.136 948.856 160.136C947.714 160.136 946.666 160.384 945.711 160.878C944.756 161.355 943.989 162.02 943.41 162.872C942.847 163.724 942.549 164.722 942.515 165.864V174.25C942.515 175.511 942.779 176.636 943.308 177.625C943.836 178.614 944.594 179.389 945.583 179.952C946.572 180.514 947.765 180.795 949.163 180.795C950.134 180.795 951.021 180.659 951.822 180.386C952.64 180.114 953.339 179.722 953.918 179.21C954.498 178.682 954.924 178.051 955.197 177.318H968.083C967.64 180.045 966.592 182.415 964.938 184.426C963.285 186.42 961.094 187.972 958.367 189.08C955.657 190.17 952.487 190.716 948.856 190.716Z" fill="#7E22CE"/>
<path d="M1362.89 190H1342.74V137.636H1362.69C1368.07 137.636 1372.73 138.685 1376.65 140.781C1380.59 142.861 1383.62 145.861 1385.75 149.781C1387.9 153.685 1388.97 158.364 1388.97 163.818C1388.97 169.273 1387.91 173.96 1385.78 177.881C1383.65 181.784 1380.63 184.784 1376.72 186.881C1372.82 188.96 1368.21 190 1362.89 190ZM1356.96 177.932H1362.38C1364.97 177.932 1367.18 177.514 1369 176.679C1370.84 175.844 1372.24 174.403 1373.2 172.358C1374.17 170.312 1374.65 167.466 1374.65 163.818C1374.65 160.17 1374.16 157.324 1373.17 155.278C1372.2 153.233 1370.77 151.793 1368.88 150.957C1367 150.122 1364.7 149.705 1361.97 149.705H1356.96V177.932ZM1392.87 190V150.727H1406.58V158.193H1406.99C1407.7 155.432 1408.84 153.412 1410.39 152.134C1411.96 150.855 1413.79 150.216 1415.89 150.216C1416.5 150.216 1417.1 150.267 1417.7 150.369C1418.31 150.455 1418.9 150.582 1419.46 150.753V162.795C1418.77 162.557 1417.91 162.378 1416.88 162.259C1415.86 162.139 1414.98 162.08 1414.25 162.08C1412.87 162.08 1411.62 162.395 1410.52 163.026C1409.42 163.639 1408.56 164.509 1407.93 165.634C1407.3 166.741 1406.99 168.045 1406.99 169.545V190H1392.87ZM1437.78 190.716C1433.59 190.716 1429.97 189.915 1426.94 188.312C1423.92 186.693 1421.6 184.375 1419.96 181.358C1418.34 178.324 1417.53 174.693 1417.53 170.466C1417.53 166.409 1418.35 162.864 1419.99 159.83C1421.62 156.795 1423.93 154.435 1426.91 152.747C1429.9 151.06 1433.42 150.216 1437.47 150.216C1440.44 150.216 1443.12 150.676 1445.53 151.597C1447.93 152.517 1449.99 153.855 1451.69 155.611C1453.39 157.349 1454.71 159.463 1455.63 161.952C1456.55 164.44 1457.01 167.244 1457.01 170.364V173.636H1421.93V165.864H1444.02C1444 164.739 1443.71 163.75 1443.15 162.898C1442.6 162.028 1441.86 161.355 1440.93 160.878C1440.01 160.384 1438.96 160.136 1437.78 160.136C1436.64 160.136 1435.59 160.384 1434.64 160.878C1433.68 161.355 1432.91 162.02 1432.33 162.872C1431.77 163.724 1431.47 164.722 1431.44 165.864V174.25C1431.44 175.511 1431.7 176.636 1432.23 177.625C1432.76 178.614 1433.52 179.389 1434.51 179.952C1435.5 180.514 1436.69 180.795 1438.09 180.795C1439.06 180.795 1439.95 180.659 1440.75 180.386C1441.56 180.114 1442.26 179.722 1442.84 179.21C1443.42 178.682 1443.85 178.051 1444.12 177.318H1457.01C1456.56 180.045 1455.52 182.415 1453.86 184.426C1452.21 186.42 1450.02 187.972 1447.29 189.08C1444.58 190.17 1441.41 190.716 1437.78 190.716ZM1470.83 190.614C1468.32 190.614 1466.11 190.205 1464.18 189.386C1462.27 188.551 1460.77 187.29 1459.68 185.602C1458.59 183.915 1458.05 181.767 1458.05 179.159C1458.05 177.011 1458.41 175.179 1459.15 173.662C1459.88 172.128 1460.9 170.875 1462.21 169.903C1463.53 168.932 1465.05 168.19 1466.79 167.679C1468.55 167.168 1470.44 166.835 1472.47 166.682C1474.67 166.511 1476.43 166.307 1477.76 166.068C1479.11 165.812 1480.08 165.463 1480.67 165.02C1481.27 164.56 1481.57 163.955 1481.57 163.205V163.102C1481.57 162.08 1481.18 161.295 1480.39 160.75C1479.61 160.205 1478.6 159.932 1477.38 159.932C1476.03 159.932 1474.93 160.23 1474.08 160.827C1473.24 161.406 1472.74 162.301 1472.57 163.511H1459.58C1459.75 161.125 1460.51 158.926 1461.86 156.915C1463.22 154.886 1465.21 153.267 1467.81 152.057C1470.42 150.83 1473.68 150.216 1477.58 150.216C1480.39 150.216 1482.92 150.548 1485.15 151.213C1487.38 151.861 1489.28 152.773 1490.85 153.949C1492.42 155.108 1493.61 156.472 1494.43 158.04C1495.27 159.591 1495.68 161.278 1495.68 163.102V190H1482.49V184.477H1482.18C1481.4 185.943 1480.44 187.128 1479.32 188.031C1478.21 188.935 1476.94 189.591 1475.51 190C1474.09 190.409 1472.54 190.614 1470.83 190.614ZM1475.43 181.716C1476.51 181.716 1477.51 181.494 1478.45 181.051C1479.4 180.608 1480.18 179.969 1480.78 179.134C1481.37 178.298 1481.67 177.284 1481.67 176.091V172.818C1481.3 172.972 1480.9 173.116 1480.47 173.253C1480.06 173.389 1479.62 173.517 1479.14 173.636C1478.68 173.756 1478.19 173.866 1477.66 173.969C1477.15 174.071 1476.61 174.165 1476.05 174.25C1474.96 174.42 1474.06 174.702 1473.36 175.094C1472.68 175.469 1472.17 175.938 1471.83 176.5C1471.5 177.045 1471.34 177.659 1471.34 178.341C1471.34 179.432 1471.73 180.267 1472.49 180.847C1473.26 181.426 1474.24 181.716 1475.43 181.716ZM1499.55 190V150.727H1512.94V158.193H1513.35C1514.17 155.739 1515.57 153.795 1517.55 152.364C1519.52 150.932 1521.88 150.216 1524.6 150.216C1527.36 150.216 1529.74 150.949 1531.74 152.415C1533.73 153.864 1534.93 155.79 1535.34 158.193H1535.75C1536.42 155.79 1537.83 153.864 1540 152.415C1542.16 150.949 1544.7 150.216 1547.61 150.216C1551.38 150.216 1554.43 151.426 1556.77 153.847C1559.12 156.267 1560.3 159.489 1560.3 163.511V190H1546.18V167.091C1546.18 165.369 1545.75 164.023 1544.88 163.051C1544.01 162.062 1542.84 161.568 1541.38 161.568C1539.93 161.568 1538.78 162.062 1537.92 163.051C1537.09 164.023 1536.67 165.369 1536.67 167.091V190H1523.17V167.091C1523.17 165.369 1522.74 164.023 1521.87 163.051C1521 162.062 1519.83 161.568 1518.36 161.568C1517.39 161.568 1516.56 161.79 1515.86 162.233C1515.16 162.676 1514.61 163.315 1514.22 164.151C1513.85 164.969 1513.66 165.949 1513.66 167.091V190H1499.55ZM1597.22 137.636H1611.23V173.534C1611.21 176.943 1610.35 179.943 1608.65 182.534C1606.96 185.108 1604.62 187.119 1601.64 188.568C1598.67 190 1595.26 190.716 1591.39 190.716C1588.03 190.716 1584.96 190.136 1582.18 188.977C1579.4 187.801 1577.19 185.96 1575.53 183.455C1573.88 180.932 1573.06 177.659 1573.08 173.636H1587.3C1587.35 174.949 1587.57 176.057 1587.96 176.96C1588.37 177.864 1588.93 178.545 1589.65 179.006C1590.38 179.449 1591.27 179.67 1592.31 179.67C1593.36 179.67 1594.25 179.44 1594.97 178.98C1595.7 178.52 1596.25 177.838 1596.63 176.935C1597 176.014 1597.2 174.881 1597.22 173.534V137.636ZM1634.21 190.716C1629.95 190.716 1626.3 189.872 1623.27 188.185C1620.23 186.48 1617.91 184.111 1616.29 181.077C1614.67 178.026 1613.86 174.489 1613.86 170.466C1613.86 166.443 1614.67 162.915 1616.29 159.881C1617.91 156.83 1620.23 154.46 1623.27 152.773C1626.3 151.068 1629.95 150.216 1634.21 150.216C1638.47 150.216 1642.12 151.068 1645.15 152.773C1648.19 154.46 1650.51 156.83 1652.13 159.881C1653.75 162.915 1654.56 166.443 1654.56 170.466C1654.56 174.489 1653.75 178.026 1652.13 181.077C1650.51 184.111 1648.19 186.48 1645.15 188.185C1642.12 189.872 1638.47 190.716 1634.21 190.716ZM1634.31 180.284C1635.51 180.284 1636.54 179.884 1637.41 179.082C1638.28 178.281 1638.95 177.139 1639.43 175.656C1639.9 174.173 1640.14 172.409 1640.14 170.364C1640.14 168.301 1639.9 166.537 1639.43 165.071C1638.95 163.588 1638.28 162.446 1637.41 161.645C1636.54 160.844 1635.51 160.443 1634.31 160.443C1633.05 160.443 1631.97 160.844 1631.06 161.645C1630.16 162.446 1629.47 163.588 1628.99 165.071C1628.52 166.537 1628.28 168.301 1628.28 170.364C1628.28 172.409 1628.52 174.173 1628.99 175.656C1629.47 177.139 1630.16 178.281 1631.06 179.082C1631.97 179.884 1633.05 180.284 1634.31 180.284ZM1657.2 190V137.636H1671.32V157.58H1671.52C1672.03 156.25 1672.78 155.031 1673.77 153.923C1674.76 152.798 1675.99 151.903 1677.45 151.239C1678.92 150.557 1680.63 150.216 1682.57 150.216C1685.16 150.216 1687.62 150.906 1689.96 152.287C1692.31 153.668 1694.22 155.841 1695.68 158.807C1697.17 161.773 1697.91 165.625 1697.91 170.364C1697.91 174.898 1697.2 178.656 1695.79 181.639C1694.39 184.622 1692.51 186.847 1690.16 188.312C1687.83 189.778 1685.26 190.511 1682.47 190.511C1680.63 190.511 1678.98 190.213 1677.53 189.616C1676.1 189.003 1674.87 188.176 1673.85 187.136C1672.84 186.08 1672.07 184.886 1671.52 183.557H1671.22V190H1657.2ZM1671.01 170.364C1671.01 172.273 1671.26 173.926 1671.75 175.324C1672.26 176.705 1672.98 177.778 1673.9 178.545C1674.84 179.295 1675.95 179.67 1677.25 179.67C1678.55 179.67 1679.65 179.304 1680.55 178.571C1681.47 177.821 1682.17 176.756 1682.65 175.375C1683.14 173.977 1683.39 172.307 1683.39 170.364C1683.39 168.42 1683.14 166.759 1682.65 165.378C1682.17 163.98 1681.47 162.915 1680.55 162.182C1679.65 161.432 1678.55 161.057 1677.25 161.057C1675.95 161.057 1674.84 161.432 1673.9 162.182C1672.98 162.915 1672.26 163.98 1671.75 165.378C1671.26 166.759 1671.01 168.42 1671.01 170.364Z" fill="#FFAC0B"/>
</g>
<defs>
<clipPath id="clip0_2268_658">
<rect width="1920" height="87" fill="white" transform="translate(0 120)"/>
</clipPath>
</defs>
</svg>
