<svg width="593" height="630" viewBox="0 0 593 630" fill="none" xmlns="http://www.w3.org/2000/svg">
<g filter="url(#filter0_d_2270_1228)">
<rect x="14" y="19" width="495" height="533" rx="20" fill="#FAF3DD" shape-rendering="crispEdges"/>
<rect x="14.5" y="19.5" width="494" height="532" rx="19.5" stroke="#E5F4F2" shape-rendering="crispEdges"/>
<path d="M216 121C216 102.144 216 92.7157 221.858 86.8579C227.716 81 237.144 81 256 81H258C276.856 81 286.284 81 292.142 86.8579C298 92.7157 298 102.144 298 121V123C298 141.856 298 151.284 292.142 157.142C286.284 163 276.856 163 258 163H256C237.144 163 227.716 163 221.858 157.142C216 151.284 216 141.856 216 123V121Z" fill="#009379" fill-opacity="0.44"/>
<path d="M77.9515 244.744H69.0555L67.5835 249H62.8795L70.9115 226.632H76.1275L84.1595 249H79.4235L77.9515 244.744ZM76.7355 241.16L73.5035 231.816L70.2715 241.16H76.7355ZM91.3218 226.664V249H86.8418V226.664H91.3218ZM109.06 235.688V239.464H95.492V235.688H109.06ZM129.316 233.384C128.804 232.445 128.1 231.731 127.204 231.24C126.308 230.749 125.263 230.504 124.068 230.504C122.746 230.504 121.572 230.803 120.548 231.4C119.524 231.997 118.724 232.851 118.148 233.96C117.572 235.069 117.284 236.349 117.284 237.8C117.284 239.293 117.572 240.595 118.148 241.704C118.746 242.813 119.567 243.667 120.612 244.264C121.658 244.861 122.874 245.16 124.26 245.16C125.967 245.16 127.364 244.712 128.452 243.816C129.54 242.899 130.255 241.629 130.596 240.008H122.916V236.584H135.012V240.488C134.714 242.045 134.074 243.485 133.092 244.808C132.111 246.131 130.842 247.197 129.284 248.008C127.748 248.797 126.02 249.192 124.1 249.192C121.946 249.192 119.994 248.712 118.244 247.752C116.516 246.771 115.151 245.416 114.148 243.688C113.167 241.96 112.676 239.997 112.676 237.8C112.676 235.603 113.167 233.64 114.148 231.912C115.151 230.163 116.516 228.808 118.244 227.848C119.994 226.867 121.935 226.376 124.068 226.376C126.586 226.376 128.772 226.995 130.628 228.232C132.484 229.448 133.764 231.165 134.468 233.384H129.316ZM154.487 239.752C154.487 240.392 154.444 240.968 154.359 241.48H141.399C141.505 242.76 141.953 243.763 142.743 244.488C143.532 245.213 144.503 245.576 145.655 245.576C147.319 245.576 148.503 244.861 149.207 243.432H154.039C153.527 245.139 152.545 246.547 151.095 247.656C149.644 248.744 147.863 249.288 145.751 249.288C144.044 249.288 142.508 248.915 141.143 248.168C139.799 247.4 138.743 246.323 137.975 244.936C137.228 243.549 136.855 241.949 136.855 240.136C136.855 238.301 137.228 236.691 137.975 235.304C138.721 233.917 139.767 232.851 141.111 232.104C142.455 231.357 144.001 230.984 145.751 230.984C147.436 230.984 148.94 231.347 150.263 232.072C151.607 232.797 152.641 233.832 153.367 235.176C154.113 236.499 154.487 238.024 154.487 239.752ZM149.847 238.472C149.825 237.32 149.409 236.403 148.599 235.72C147.788 235.016 146.796 234.664 145.623 234.664C144.513 234.664 143.575 235.005 142.807 235.688C142.06 236.349 141.601 237.277 141.431 238.472H149.847ZM167.261 231.016C169.373 231.016 171.079 231.688 172.381 233.032C173.682 234.355 174.333 236.211 174.333 238.6V249H169.853V239.208C169.853 237.8 169.501 236.723 168.797 235.976C168.093 235.208 167.133 234.824 165.917 234.824C164.679 234.824 163.698 235.208 162.973 235.976C162.269 236.723 161.917 237.8 161.917 239.208V249H157.437V231.272H161.917V233.48C162.514 232.712 163.271 232.115 164.189 231.688C165.127 231.24 166.151 231.016 167.261 231.016ZM194.753 239.752C194.753 240.392 194.71 240.968 194.625 241.48H181.665C181.772 242.76 182.22 243.763 183.009 244.488C183.798 245.213 184.769 245.576 185.921 245.576C187.585 245.576 188.769 244.861 189.473 243.432H194.305C193.793 245.139 192.812 246.547 191.361 247.656C189.91 248.744 188.129 249.288 186.017 249.288C184.31 249.288 182.774 248.915 181.409 248.168C180.065 247.4 179.009 246.323 178.241 244.936C177.494 243.549 177.121 241.949 177.121 240.136C177.121 238.301 177.494 236.691 178.241 235.304C178.988 233.917 180.033 232.851 181.377 232.104C182.721 231.357 184.268 230.984 186.017 230.984C187.702 230.984 189.206 231.347 190.529 232.072C191.873 232.797 192.908 233.832 193.633 235.176C194.38 236.499 194.753 238.024 194.753 239.752ZM190.113 238.472C190.092 237.32 189.676 236.403 188.865 235.72C188.054 235.016 187.062 234.664 185.889 234.664C184.78 234.664 183.841 235.005 183.073 235.688C182.326 236.349 181.868 237.277 181.697 238.472H190.113ZM202.183 234.024C202.759 233.085 203.506 232.349 204.423 231.816C205.362 231.283 206.428 231.016 207.623 231.016V235.72H206.439C205.031 235.72 203.964 236.051 203.239 236.712C202.535 237.373 202.183 238.525 202.183 240.168V249H197.703V231.272H202.183V234.024ZM209.169 240.072C209.169 238.28 209.521 236.691 210.225 235.304C210.95 233.917 211.921 232.851 213.137 232.104C214.374 231.357 215.75 230.984 217.265 230.984C218.587 230.984 219.739 231.251 220.721 231.784C221.723 232.317 222.523 232.989 223.121 233.8V231.272H227.633V249H223.121V246.408C222.545 247.24 221.745 247.933 220.721 248.488C219.718 249.021 218.555 249.288 217.233 249.288C215.739 249.288 214.374 248.904 213.137 248.136C211.921 247.368 210.95 246.291 210.225 244.904C209.521 243.496 209.169 241.885 209.169 240.072ZM223.121 240.136C223.121 239.048 222.907 238.12 222.481 237.352C222.054 236.563 221.478 235.965 220.753 235.56C220.027 235.133 219.249 234.92 218.417 234.92C217.585 234.92 216.817 235.123 216.113 235.528C215.409 235.933 214.833 236.531 214.385 237.32C213.958 238.088 213.745 239.005 213.745 240.072C213.745 241.139 213.958 242.077 214.385 242.888C214.833 243.677 215.409 244.285 216.113 244.712C216.838 245.139 217.606 245.352 218.417 245.352C219.249 245.352 220.027 245.149 220.753 244.744C221.478 244.317 222.054 243.72 222.481 242.952C222.907 242.163 223.121 241.224 223.121 240.136ZM236.904 234.952V243.528C236.904 244.125 237.043 244.563 237.32 244.84C237.619 245.096 238.109 245.224 238.792 245.224H240.872V249H238.056C234.28 249 232.392 247.165 232.392 243.496V234.952H230.28V231.272H232.392V226.888H236.904V231.272H240.872V234.952H236.904ZM260.254 239.752C260.254 240.392 260.212 240.968 260.126 241.48H247.166C247.273 242.76 247.721 243.763 248.51 244.488C249.3 245.213 250.27 245.576 251.422 245.576C253.086 245.576 254.27 244.861 254.974 243.432H259.806C259.294 245.139 258.313 246.547 256.862 247.656C255.412 248.744 253.63 249.288 251.518 249.288C249.812 249.288 248.276 248.915 246.91 248.168C245.566 247.4 244.51 246.323 243.742 244.936C242.996 243.549 242.622 241.949 242.622 240.136C242.622 238.301 242.996 236.691 243.742 235.304C244.489 233.917 245.534 232.851 246.878 232.104C248.222 231.357 249.769 230.984 251.518 230.984C253.204 230.984 254.708 231.347 256.03 232.072C257.374 232.797 258.409 233.832 259.134 235.176C259.881 236.499 260.254 238.024 260.254 239.752ZM255.614 238.472C255.593 237.32 255.177 236.403 254.366 235.72C253.556 235.016 252.564 234.664 251.39 234.664C250.281 234.664 249.342 235.005 248.574 235.688C247.828 236.349 247.369 237.277 247.198 238.472H255.614ZM262.052 240.072C262.052 238.28 262.404 236.691 263.108 235.304C263.834 233.917 264.815 232.851 266.052 232.104C267.29 231.357 268.666 230.984 270.18 230.984C271.332 230.984 272.431 231.24 273.476 231.752C274.522 232.243 275.354 232.904 275.972 233.736V225.32H280.516V249H275.972V246.376C275.418 247.251 274.639 247.955 273.636 248.488C272.634 249.021 271.471 249.288 270.148 249.288C268.655 249.288 267.29 248.904 266.052 248.136C264.815 247.368 263.834 246.291 263.108 244.904C262.404 243.496 262.052 241.885 262.052 240.072ZM276.004 240.136C276.004 239.048 275.791 238.12 275.364 237.352C274.938 236.563 274.362 235.965 273.636 235.56C272.911 235.133 272.132 234.92 271.3 234.92C270.468 234.92 269.7 235.123 268.996 235.528C268.292 235.933 267.716 236.531 267.268 237.32C266.842 238.088 266.628 239.005 266.628 240.072C266.628 241.139 266.842 242.077 267.268 242.888C267.716 243.677 268.292 244.285 268.996 244.712C269.722 245.139 270.49 245.352 271.3 245.352C272.132 245.352 272.911 245.149 273.636 244.744C274.362 244.317 274.938 243.72 275.364 242.952C275.791 242.163 276.004 241.224 276.004 240.136ZM308.517 252.936L305.125 248.872C304.186 249.107 303.226 249.224 302.245 249.224C300.154 249.224 298.234 248.733 296.485 247.752C294.735 246.771 293.349 245.416 292.325 243.688C291.301 241.939 290.789 239.965 290.789 237.768C290.789 235.592 291.301 233.64 292.325 231.912C293.349 230.163 294.735 228.797 296.485 227.816C298.234 226.835 300.154 226.344 302.245 226.344C304.357 226.344 306.277 226.835 308.005 227.816C309.754 228.797 311.13 230.163 312.133 231.912C313.157 233.64 313.669 235.592 313.669 237.768C313.669 239.752 313.242 241.565 312.389 243.208C311.557 244.829 310.415 246.152 308.965 247.176L314.085 252.936H308.517ZM295.397 237.768C295.397 239.261 295.685 240.573 296.261 241.704C296.837 242.835 297.637 243.709 298.661 244.328C299.706 244.925 300.901 245.224 302.245 245.224C303.589 245.224 304.773 244.925 305.797 244.328C306.821 243.709 307.621 242.835 308.197 241.704C308.773 240.573 309.061 239.261 309.061 237.768C309.061 236.275 308.773 234.973 308.197 233.864C307.621 232.733 306.821 231.869 305.797 231.272C304.773 230.675 303.589 230.376 302.245 230.376C300.901 230.376 299.706 230.675 298.661 231.272C297.637 231.869 296.837 232.733 296.261 233.864C295.685 234.973 295.397 236.275 295.397 237.768ZM333.48 231.272V249H328.968V246.76C328.392 247.528 327.635 248.136 326.696 248.584C325.779 249.011 324.776 249.224 323.688 249.224C322.302 249.224 321.075 248.936 320.008 248.36C318.942 247.763 318.099 246.899 317.48 245.768C316.883 244.616 316.584 243.251 316.584 241.672V231.272H321.064V241.032C321.064 242.44 321.416 243.528 322.12 244.296C322.824 245.043 323.784 245.416 325 245.416C326.238 245.416 327.208 245.043 327.912 244.296C328.616 243.528 328.968 242.44 328.968 241.032V231.272H333.48ZM354.06 239.752C354.06 240.392 354.018 240.968 353.932 241.48H340.972C341.079 242.76 341.527 243.763 342.316 244.488C343.106 245.213 344.076 245.576 345.228 245.576C346.892 245.576 348.076 244.861 348.78 243.432H353.612C353.1 245.139 352.119 246.547 350.668 247.656C349.218 248.744 347.436 249.288 345.324 249.288C343.618 249.288 342.082 248.915 340.716 248.168C339.372 247.4 338.316 246.323 337.548 244.936C336.802 243.549 336.428 241.949 336.428 240.136C336.428 238.301 336.802 236.691 337.548 235.304C338.295 233.917 339.34 232.851 340.684 232.104C342.028 231.357 343.575 230.984 345.324 230.984C347.01 230.984 348.514 231.347 349.836 232.072C351.18 232.797 352.215 233.832 352.94 235.176C353.687 236.499 354.06 238.024 354.06 239.752ZM349.42 238.472C349.399 237.32 348.983 236.403 348.172 235.72C347.362 235.016 346.37 234.664 345.196 234.664C344.087 234.664 343.148 235.005 342.38 235.688C341.634 236.349 341.175 237.277 341.004 238.472H349.42ZM363.794 249.288C362.344 249.288 361.042 249.032 359.89 248.52C358.738 247.987 357.821 247.272 357.138 246.376C356.477 245.48 356.114 244.488 356.05 243.4H360.562C360.648 244.083 360.978 244.648 361.554 245.096C362.152 245.544 362.888 245.768 363.762 245.768C364.616 245.768 365.277 245.597 365.746 245.256C366.237 244.915 366.482 244.477 366.482 243.944C366.482 243.368 366.184 242.941 365.586 242.664C365.01 242.365 364.082 242.045 362.802 241.704C361.48 241.384 360.392 241.053 359.538 240.712C358.706 240.371 357.981 239.848 357.362 239.144C356.765 238.44 356.466 237.491 356.466 236.296C356.466 235.315 356.744 234.419 357.298 233.608C357.874 232.797 358.685 232.157 359.73 231.688C360.797 231.219 362.045 230.984 363.474 230.984C365.586 230.984 367.272 231.517 368.53 232.584C369.789 233.629 370.482 235.048 370.61 236.84H366.322C366.258 236.136 365.96 235.581 365.426 235.176C364.914 234.749 364.221 234.536 363.346 234.536C362.536 234.536 361.906 234.685 361.458 234.984C361.032 235.283 360.818 235.699 360.818 236.232C360.818 236.829 361.117 237.288 361.714 237.608C362.312 237.907 363.24 238.216 364.498 238.536C365.778 238.856 366.834 239.187 367.666 239.528C368.498 239.869 369.213 240.403 369.81 241.128C370.429 241.832 370.749 242.771 370.77 243.944C370.77 244.968 370.482 245.885 369.906 246.696C369.352 247.507 368.541 248.147 367.474 248.616C366.429 249.064 365.202 249.288 363.794 249.288ZM379.344 234.952V243.528C379.344 244.125 379.483 244.563 379.76 244.84C380.059 245.096 380.549 245.224 381.232 245.224H383.312V249H380.496C376.72 249 374.832 247.165 374.832 243.496V234.952H372.72V231.272H374.832V226.888H379.344V231.272H383.312V234.952H379.344ZM388.486 229.16C387.697 229.16 387.036 228.915 386.502 228.424C385.99 227.912 385.734 227.283 385.734 226.536C385.734 225.789 385.99 225.171 386.502 224.68C387.036 224.168 387.697 223.912 388.486 223.912C389.276 223.912 389.926 224.168 390.438 224.68C390.972 225.171 391.238 225.789 391.238 226.536C391.238 227.283 390.972 227.912 390.438 228.424C389.926 228.915 389.276 229.16 388.486 229.16ZM390.694 231.272V249H386.214V231.272H390.694ZM402.673 249.288C400.966 249.288 399.43 248.915 398.065 248.168C396.699 247.4 395.622 246.323 394.833 244.936C394.065 243.549 393.681 241.949 393.681 240.136C393.681 238.323 394.075 236.723 394.865 235.336C395.675 233.949 396.774 232.883 398.161 232.136C399.547 231.368 401.094 230.984 402.801 230.984C404.507 230.984 406.054 231.368 407.441 232.136C408.827 232.883 409.915 233.949 410.705 235.336C411.515 236.723 411.921 238.323 411.921 240.136C411.921 241.949 411.505 243.549 410.673 244.936C409.862 246.323 408.753 247.4 407.345 248.168C405.958 248.915 404.401 249.288 402.673 249.288ZM402.673 245.384C403.483 245.384 404.241 245.192 404.945 244.808C405.67 244.403 406.246 243.805 406.673 243.016C407.099 242.227 407.313 241.267 407.313 240.136C407.313 238.451 406.865 237.16 405.969 236.264C405.094 235.347 404.017 234.888 402.737 234.888C401.457 234.888 400.379 235.347 399.505 236.264C398.651 237.16 398.225 238.451 398.225 240.136C398.225 241.821 398.641 243.123 399.473 244.04C400.326 244.936 401.393 245.384 402.673 245.384ZM424.711 231.016C426.823 231.016 428.529 231.688 429.831 233.032C431.132 234.355 431.783 236.211 431.783 238.6V249H427.303V239.208C427.303 237.8 426.951 236.723 426.247 235.976C425.543 235.208 424.583 234.824 423.367 234.824C422.129 234.824 421.148 235.208 420.423 235.976C419.719 236.723 419.367 237.8 419.367 239.208V249H414.887V231.272H419.367V233.48C419.964 232.712 420.721 232.115 421.639 231.688C422.577 231.24 423.601 231.016 424.711 231.016ZM442.507 249.288C441.056 249.288 439.755 249.032 438.603 248.52C437.451 247.987 436.534 247.272 435.851 246.376C435.19 245.48 434.827 244.488 434.763 243.4H439.275C439.36 244.083 439.691 244.648 440.267 245.096C440.864 245.544 441.6 245.768 442.475 245.768C443.328 245.768 443.99 245.597 444.459 245.256C444.95 244.915 445.195 244.477 445.195 243.944C445.195 243.368 444.896 242.941 444.299 242.664C443.723 242.365 442.795 242.045 441.515 241.704C440.192 241.384 439.104 241.053 438.251 240.712C437.419 240.371 436.694 239.848 436.075 239.144C435.478 238.44 435.179 237.491 435.179 236.296C435.179 235.315 435.456 234.419 436.011 233.608C436.587 232.797 437.398 232.157 438.443 231.688C439.51 231.219 440.758 230.984 442.187 230.984C444.299 230.984 445.984 231.517 447.243 232.584C448.502 233.629 449.195 235.048 449.323 236.84H445.035C444.971 236.136 444.672 235.581 444.139 235.176C443.627 234.749 442.934 234.536 442.059 234.536C441.248 234.536 440.619 234.685 440.171 234.984C439.744 235.283 439.531 235.699 439.531 236.232C439.531 236.829 439.83 237.288 440.427 237.608C441.024 237.907 441.952 238.216 443.211 238.536C444.491 238.856 445.547 239.187 446.379 239.528C447.211 239.869 447.926 240.403 448.523 241.128C449.142 241.832 449.462 242.771 449.483 243.944C449.483 244.968 449.195 245.885 448.619 246.696C448.064 247.507 447.254 248.147 446.187 248.616C445.142 249.064 443.915 249.288 442.507 249.288Z" fill="#2D2D2D"/>
<path d="M257 144C254.161 144 251.45 143.423 248.856 142.267C246.248 141.105 244.015 139.546 242.146 137.593C240.278 135.64 238.783 133.3 237.666 130.562C236.556 127.838 236 124.987 236 122C236 119.013 236.556 116.162 237.666 113.438C238.783 110.7 240.278 108.36 242.146 106.407C244.015 104.454 246.248 102.895 248.856 101.733C251.45 100.577 254.161 100 257 100C259.839 100 262.55 100.577 265.144 101.733C267.752 102.895 269.985 104.454 271.854 106.407C273.722 108.36 275.217 110.7 276.334 113.438C277.444 116.162 278 119.013 278 122C278 124.987 277.444 127.838 276.334 130.562C275.217 133.3 273.722 135.64 271.854 137.593C269.985 139.546 267.752 141.105 265.144 142.267C262.55 143.423 259.839 144 257 144ZM257.021 140.25C258.057 140.25 258.961 139.859 259.678 139.11C260.392 138.363 260.75 137.439 260.75 136.397C260.75 135.357 260.393 134.43 259.687 133.672C258.973 132.905 258.066 132.5 257.021 132.5C255.978 132.5 255.069 132.904 254.344 133.662C253.62 134.419 253.25 135.349 253.25 136.397C253.25 137.447 253.621 138.374 254.353 139.12C255.08 139.86 255.987 140.25 257.021 140.25ZM257 103.75C253.683 103.75 250.832 104.99 248.5 107.428C246.169 109.864 245 112.824 245 116.25C245 117.301 245.354 118.234 246.072 118.985C246.789 119.734 247.693 120.125 248.729 120.125C249.763 120.125 250.67 119.735 251.397 118.995C252.133 118.245 252.5 117.309 252.5 116.25C252.5 114.914 252.942 113.808 253.834 112.876C254.725 111.945 255.762 111.5 257 111.5C258.238 111.5 259.275 111.945 260.166 112.876C261.058 113.808 261.5 114.914 261.5 116.25C261.5 117.586 261.058 118.692 260.166 119.624C259.275 120.555 258.238 121 257 121C255.629 121 254.736 122.099 254.158 123.356C253.546 124.686 253.25 126.157 253.25 127.75C253.25 128.801 253.604 129.734 254.322 130.485C255.043 131.238 255.956 131.625 257 131.625C258.044 131.625 258.957 131.238 259.678 130.485C260.307 129.827 260.657 129.029 260.734 128.135C263.04 127.351 264.961 125.932 266.48 123.902C268.159 121.659 269 119.097 269 116.25C269 112.824 267.831 109.864 265.5 107.428C263.168 104.99 260.317 103.75 257 103.75Z" fill="#009379" fill-opacity="0.02" stroke="#027560" stroke-width="2"/>
<path d="M117.338 325V313.72H121.946C123.13 313.72 124.047 314.003 124.698 314.568C125.348 315.123 125.674 315.901 125.674 316.904C125.674 317.565 125.524 318.131 125.226 318.6C124.938 319.059 124.527 319.411 123.994 319.656C123.471 319.901 122.858 320.024 122.154 320.024L122.442 319.816H122.762C123.199 319.816 123.588 319.923 123.93 320.136C124.282 320.349 124.559 320.707 124.762 321.208L126.362 325H124.906L123.37 321.272C123.188 320.792 122.916 320.483 122.554 320.344C122.191 320.195 121.738 320.12 121.194 320.12H118.666V325H117.338ZM118.666 319.08H121.754C122.607 319.08 123.252 318.899 123.69 318.536C124.138 318.163 124.362 317.629 124.362 316.936C124.362 316.243 124.138 315.715 123.69 315.352C123.252 314.989 122.607 314.808 121.754 314.808H118.666V319.08ZM131.668 325.144C130.409 325.144 129.417 324.781 128.692 324.056C127.967 323.32 127.604 322.301 127.604 321C127.604 320.157 127.764 319.427 128.084 318.808C128.404 318.179 128.852 317.693 129.428 317.352C130.004 317 130.665 316.824 131.412 316.824C132.148 316.824 132.767 316.979 133.268 317.288C133.769 317.597 134.153 318.04 134.42 318.616C134.687 319.181 134.82 319.853 134.82 320.632V321.112H128.596V320.296H133.972L133.7 320.504C133.7 319.651 133.508 318.984 133.124 318.504C132.74 318.024 132.169 317.784 131.412 317.784C130.612 317.784 129.988 318.067 129.54 318.632C129.092 319.187 128.868 319.939 128.868 320.888V321.032C128.868 322.035 129.113 322.797 129.604 323.32C130.105 323.832 130.804 324.088 131.7 324.088C132.18 324.088 132.628 324.019 133.044 323.88C133.471 323.731 133.876 323.491 134.26 323.16L134.708 324.072C134.356 324.413 133.908 324.68 133.364 324.872C132.831 325.053 132.265 325.144 131.668 325.144ZM140.179 325.144C139.39 325.144 138.702 324.973 138.115 324.632C137.539 324.291 137.091 323.805 136.771 323.176C136.462 322.547 136.307 321.8 136.307 320.936C136.307 320.061 136.467 319.32 136.787 318.712C137.107 318.093 137.555 317.624 138.131 317.304C138.718 316.984 139.4 316.824 140.179 316.824C140.691 316.824 141.187 316.915 141.667 317.096C142.158 317.277 142.563 317.533 142.883 317.864L142.419 318.792C142.099 318.483 141.747 318.253 141.363 318.104C140.99 317.955 140.622 317.88 140.259 317.88C139.427 317.88 138.782 318.141 138.323 318.664C137.864 319.187 137.635 319.949 137.635 320.952C137.635 321.944 137.864 322.712 138.323 323.256C138.782 323.8 139.427 324.072 140.259 324.072C140.611 324.072 140.974 324.003 141.347 323.864C141.731 323.725 142.088 323.496 142.419 323.176L142.883 324.088C142.552 324.429 142.142 324.691 141.651 324.872C141.16 325.053 140.67 325.144 140.179 325.144ZM148.137 325.144C146.878 325.144 145.886 324.781 145.161 324.056C144.435 323.32 144.073 322.301 144.073 321C144.073 320.157 144.233 319.427 144.553 318.808C144.873 318.179 145.321 317.693 145.897 317.352C146.473 317 147.134 316.824 147.881 316.824C148.617 316.824 149.235 316.979 149.737 317.288C150.238 317.597 150.622 318.04 150.889 318.616C151.155 319.181 151.289 319.853 151.289 320.632V321.112H145.065V320.296H150.441L150.169 320.504C150.169 319.651 149.977 318.984 149.593 318.504C149.209 318.024 148.638 317.784 147.881 317.784C147.081 317.784 146.457 318.067 146.009 318.632C145.561 319.187 145.337 319.939 145.337 320.888V321.032C145.337 322.035 145.582 322.797 146.073 323.32C146.574 323.832 147.273 324.088 148.169 324.088C148.649 324.088 149.097 324.019 149.513 323.88C149.939 323.731 150.345 323.491 150.729 323.16L151.177 324.072C150.825 324.413 150.377 324.68 149.833 324.872C149.299 325.053 148.734 325.144 148.137 325.144ZM153.272 325V316.968H154.568V325H153.272ZM153.112 315.144V313.688H154.712V315.144H153.112ZM159.452 325L156.012 316.968H157.42L160.3 324.04H159.868L162.78 316.968H164.124L160.684 325H159.452ZM169.043 325.144C167.784 325.144 166.792 324.781 166.067 324.056C165.342 323.32 164.979 322.301 164.979 321C164.979 320.157 165.139 319.427 165.459 318.808C165.779 318.179 166.227 317.693 166.803 317.352C167.379 317 168.04 316.824 168.787 316.824C169.523 316.824 170.142 316.979 170.643 317.288C171.144 317.597 171.528 318.04 171.795 318.616C172.062 319.181 172.195 319.853 172.195 320.632V321.112H165.971V320.296H171.347L171.075 320.504C171.075 319.651 170.883 318.984 170.499 318.504C170.115 318.024 169.544 317.784 168.787 317.784C167.987 317.784 167.363 318.067 166.915 318.632C166.467 319.187 166.243 319.939 166.243 320.888V321.032C166.243 322.035 166.488 322.797 166.979 323.32C167.48 323.832 168.179 324.088 169.075 324.088C169.555 324.088 170.003 324.019 170.419 323.88C170.846 323.731 171.251 323.491 171.635 323.16L172.083 324.072C171.731 324.413 171.283 324.68 170.739 324.872C170.206 325.053 169.64 325.144 169.043 325.144ZM181.406 325.144C180.691 325.144 180.067 324.979 179.534 324.648C179.001 324.307 178.585 323.827 178.286 323.208C177.998 322.589 177.854 321.848 177.854 320.984C177.854 320.109 177.998 319.363 178.286 318.744C178.585 318.125 179.001 317.651 179.534 317.32C180.067 316.989 180.691 316.824 181.406 316.824C182.131 316.824 182.755 317.011 183.278 317.384C183.811 317.747 184.163 318.243 184.334 318.872H184.142L184.318 316.968H185.566C185.534 317.277 185.502 317.592 185.47 317.912C185.449 318.221 185.438 318.525 185.438 318.824V325H184.142V323.112H184.318C184.147 323.741 183.795 324.237 183.262 324.6C182.729 324.963 182.11 325.144 181.406 325.144ZM181.662 324.088C182.43 324.088 183.038 323.827 183.486 323.304C183.934 322.771 184.158 321.997 184.158 320.984C184.158 319.96 183.934 319.187 183.486 318.664C183.038 318.131 182.43 317.864 181.662 317.864C180.905 317.864 180.297 318.131 179.838 318.664C179.39 319.187 179.166 319.96 179.166 320.984C179.166 321.997 179.39 322.771 179.838 323.304C180.297 323.827 180.905 324.088 181.662 324.088ZM194.484 325L191.044 316.968H192.452L195.332 324.04H194.9L197.812 316.968H199.156L195.716 325H194.484ZM203.515 325.144C202.801 325.144 202.177 324.979 201.643 324.648C201.11 324.307 200.694 323.827 200.395 323.208C200.107 322.589 199.963 321.848 199.963 320.984C199.963 320.109 200.107 319.363 200.395 318.744C200.694 318.125 201.11 317.651 201.643 317.32C202.177 316.989 202.801 316.824 203.515 316.824C204.241 316.824 204.865 317.011 205.387 317.384C205.921 317.747 206.273 318.243 206.443 318.872H206.251L206.427 316.968H207.675C207.643 317.277 207.611 317.592 207.579 317.912C207.558 318.221 207.547 318.525 207.547 318.824V325H206.251V323.112H206.427C206.257 323.741 205.905 324.237 205.371 324.6C204.838 324.963 204.219 325.144 203.515 325.144ZM203.771 324.088C204.539 324.088 205.147 323.827 205.595 323.304C206.043 322.771 206.267 321.997 206.267 320.984C206.267 319.96 206.043 319.187 205.595 318.664C205.147 318.131 204.539 317.864 203.771 317.864C203.014 317.864 202.406 318.131 201.947 318.664C201.499 319.187 201.275 319.96 201.275 320.984C201.275 321.997 201.499 322.771 201.947 323.304C202.406 323.827 203.014 324.088 203.771 324.088ZM210.021 325V318.904C210.021 318.584 210.01 318.259 209.989 317.928C209.978 317.597 209.957 317.277 209.925 316.968H211.173L211.333 318.92L211.109 318.936C211.216 318.456 211.402 318.061 211.669 317.752C211.936 317.443 212.25 317.213 212.613 317.064C212.976 316.904 213.354 316.824 213.749 316.824C213.909 316.824 214.048 316.829 214.165 316.84C214.293 316.851 214.41 316.877 214.517 316.92L214.501 318.072C214.341 318.019 214.192 317.987 214.053 317.976C213.925 317.955 213.776 317.944 213.605 317.944C213.136 317.944 212.725 318.056 212.373 318.28C212.032 318.504 211.77 318.792 211.589 319.144C211.418 319.496 211.333 319.869 211.333 320.264V325H210.021ZM215.866 325V316.968H217.162V325H215.866ZM215.706 315.144V313.688H217.306V315.144H215.706ZM223.246 325.144C221.987 325.144 220.995 324.781 220.27 324.056C219.545 323.32 219.182 322.301 219.182 321C219.182 320.157 219.342 319.427 219.662 318.808C219.982 318.179 220.43 317.693 221.006 317.352C221.582 317 222.243 316.824 222.99 316.824C223.726 316.824 224.345 316.979 224.846 317.288C225.347 317.597 225.731 318.04 225.998 318.616C226.265 319.181 226.398 319.853 226.398 320.632V321.112H220.174V320.296H225.55L225.278 320.504C225.278 319.651 225.086 318.984 224.702 318.504C224.318 318.024 223.747 317.784 222.99 317.784C222.19 317.784 221.566 318.067 221.118 318.632C220.67 319.187 220.446 319.939 220.446 320.888V321.032C220.446 322.035 220.691 322.797 221.182 323.32C221.683 323.832 222.382 324.088 223.278 324.088C223.758 324.088 224.206 324.019 224.622 323.88C225.049 323.731 225.454 323.491 225.838 323.16L226.286 324.072C225.934 324.413 225.486 324.68 224.942 324.872C224.409 325.053 223.843 325.144 223.246 325.144ZM231.229 325.144C230.44 325.144 229.837 324.92 229.421 324.472C229.005 324.013 228.797 323.325 228.797 322.408V317.976H227.229V316.968H228.797V314.776L230.093 314.408V316.968H232.397V317.976H230.093V322.264C230.093 322.904 230.2 323.363 230.413 323.64C230.637 323.907 230.968 324.04 231.405 324.04C231.608 324.04 231.789 324.024 231.949 323.992C232.109 323.949 232.253 323.901 232.381 323.848V324.936C232.232 325 232.051 325.048 231.837 325.08C231.635 325.123 231.432 325.144 231.229 325.144ZM233.749 328.632L233.445 327.56C233.946 327.443 234.362 327.304 234.693 327.144C235.034 326.995 235.317 326.792 235.541 326.536C235.765 326.28 235.957 325.96 236.117 325.576L236.533 324.632L236.501 325.176L232.997 316.968H234.405L237.301 324.024H236.885L239.749 316.968H241.109L237.397 325.672C237.183 326.184 236.949 326.611 236.693 326.952C236.437 327.304 236.159 327.587 235.861 327.8C235.573 328.024 235.253 328.2 234.901 328.328C234.549 328.456 234.165 328.557 233.749 328.632ZM250.037 325.144C249.269 325.144 248.597 324.979 248.021 324.648C247.455 324.307 247.018 323.827 246.709 323.208C246.399 322.579 246.245 321.837 246.245 320.984C246.245 320.12 246.399 319.379 246.709 318.76C247.018 318.141 247.455 317.667 248.021 317.336C248.597 316.995 249.269 316.824 250.037 316.824C250.815 316.824 251.487 316.995 252.053 317.336C252.629 317.667 253.071 318.141 253.381 318.76C253.701 319.379 253.861 320.12 253.861 320.984C253.861 321.837 253.701 322.579 253.381 323.208C253.071 323.827 252.629 324.307 252.053 324.648C251.487 324.979 250.815 325.144 250.037 325.144ZM250.037 324.088C250.805 324.088 251.413 323.827 251.861 323.304C252.309 322.771 252.533 321.997 252.533 320.984C252.533 319.96 252.303 319.187 251.845 318.664C251.397 318.131 250.794 317.864 250.037 317.864C249.279 317.864 248.677 318.131 248.229 318.664C247.781 319.187 247.557 319.96 247.557 320.984C247.557 321.997 247.781 322.771 248.229 323.304C248.677 323.827 249.279 324.088 250.037 324.088ZM256.219 325V317.976H254.651V316.968H256.571L256.219 317.304V315.96C256.219 315.053 256.448 314.36 256.907 313.88C257.366 313.4 258.022 313.16 258.875 313.16C259.088 313.16 259.307 313.181 259.531 313.224C259.766 313.256 259.958 313.304 260.107 313.368V314.44C259.979 314.387 259.819 314.344 259.627 314.312C259.446 314.269 259.259 314.248 259.067 314.248C258.736 314.248 258.454 314.317 258.219 314.456C257.984 314.584 257.808 314.781 257.691 315.048C257.574 315.315 257.515 315.656 257.515 316.072V317.24L257.307 316.968H259.755V317.976H257.515V325H256.219ZM265.381 325V316.968H266.677V325H265.381ZM265.221 315.144V313.688H266.821V315.144H265.221ZM269.194 325V318.824C269.194 318.525 269.178 318.221 269.146 317.912C269.124 317.592 269.098 317.277 269.066 316.968H270.314L270.474 318.728H270.282C270.516 318.109 270.89 317.64 271.402 317.32C271.924 316.989 272.527 316.824 273.21 316.824C274.159 316.824 274.874 317.08 275.354 317.592C275.844 318.093 276.09 318.888 276.09 319.976V325H274.794V320.056C274.794 319.299 274.639 318.749 274.33 318.408C274.031 318.056 273.562 317.88 272.922 317.88C272.175 317.88 271.583 318.109 271.146 318.568C270.708 319.027 270.49 319.64 270.49 320.408V325H269.194ZM281.417 325.144C280.627 325.144 280.025 324.92 279.609 324.472C279.193 324.013 278.985 323.325 278.985 322.408V317.976H277.417V316.968H278.985V314.776L280.281 314.408V316.968H282.585V317.976H280.281V322.264C280.281 322.904 280.387 323.363 280.601 323.64C280.825 323.907 281.155 324.04 281.593 324.04C281.795 324.04 281.977 324.024 282.137 323.992C282.297 323.949 282.441 323.901 282.569 323.848V324.936C282.419 325 282.238 325.048 282.025 325.08C281.822 325.123 281.619 325.144 281.417 325.144ZM287.652 325.144C286.394 325.144 285.402 324.781 284.676 324.056C283.951 323.32 283.588 322.301 283.588 321C283.588 320.157 283.748 319.427 284.068 318.808C284.388 318.179 284.836 317.693 285.412 317.352C285.988 317 286.65 316.824 287.396 316.824C288.132 316.824 288.751 316.979 289.252 317.288C289.754 317.597 290.138 318.04 290.404 318.616C290.671 319.181 290.804 319.853 290.804 320.632V321.112H284.58V320.296H289.956L289.684 320.504C289.684 319.651 289.492 318.984 289.108 318.504C288.724 318.024 288.154 317.784 287.396 317.784C286.596 317.784 285.972 318.067 285.524 318.632C285.076 319.187 284.852 319.939 284.852 320.888V321.032C284.852 322.035 285.098 322.797 285.588 323.32C286.09 323.832 286.788 324.088 287.684 324.088C288.164 324.088 288.612 324.019 289.028 323.88C289.455 323.731 289.86 323.491 290.244 323.16L290.692 324.072C290.34 324.413 289.892 324.68 289.348 324.872C288.815 325.053 288.25 325.144 287.652 325.144ZM292.755 325V318.904C292.755 318.584 292.745 318.259 292.723 317.928C292.713 317.597 292.691 317.277 292.659 316.968H293.907L294.067 318.92L293.843 318.936C293.95 318.456 294.137 318.061 294.403 317.752C294.67 317.443 294.985 317.213 295.347 317.064C295.71 316.904 296.089 316.824 296.483 316.824C296.643 316.824 296.782 316.829 296.899 316.84C297.027 316.851 297.145 316.877 297.251 316.92L297.235 318.072C297.075 318.019 296.926 317.987 296.787 317.976C296.659 317.955 296.51 317.944 296.339 317.944C295.87 317.944 295.459 318.056 295.107 318.28C294.766 318.504 294.505 318.792 294.323 319.144C294.153 319.496 294.067 319.869 294.067 320.264V325H292.755ZM301.452 325L298.012 316.968H299.42L302.3 324.04H301.868L304.78 316.968H306.124L302.684 325H301.452ZM307.584 325V316.968H308.88V325H307.584ZM307.424 315.144V313.688H309.024V315.144H307.424ZM314.965 325.144C313.706 325.144 312.714 324.781 311.989 324.056C311.263 323.32 310.901 322.301 310.901 321C310.901 320.157 311.061 319.427 311.381 318.808C311.701 318.179 312.149 317.693 312.725 317.352C313.301 317 313.962 316.824 314.709 316.824C315.445 316.824 316.063 316.979 316.565 317.288C317.066 317.597 317.45 318.04 317.717 318.616C317.983 319.181 318.117 319.853 318.117 320.632V321.112H311.893V320.296H317.269L316.997 320.504C316.997 319.651 316.805 318.984 316.421 318.504C316.037 318.024 315.466 317.784 314.709 317.784C313.909 317.784 313.285 318.067 312.837 318.632C312.389 319.187 312.165 319.939 312.165 320.888V321.032C312.165 322.035 312.41 322.797 312.901 323.32C313.402 323.832 314.101 324.088 314.997 324.088C315.477 324.088 315.925 324.019 316.341 323.88C316.767 323.731 317.173 323.491 317.557 323.16L318.005 324.072C317.653 324.413 317.205 324.68 316.661 324.872C316.127 325.053 315.562 325.144 314.965 325.144ZM322.15 325L319.174 316.968H320.55L323.03 324.04H322.614L325.174 316.968H326.294L328.806 324.04H328.406L330.902 316.968H332.214L329.222 325H327.974L325.382 317.816H326.022L323.414 325H322.15ZM343.876 328.456V323.112H344.052C343.882 323.741 343.53 324.237 342.996 324.6C342.463 324.963 341.844 325.144 341.14 325.144C340.426 325.144 339.802 324.979 339.268 324.648C338.735 324.307 338.319 323.827 338.02 323.208C337.732 322.589 337.588 321.848 337.588 320.984C337.588 320.109 337.732 319.363 338.02 318.744C338.319 318.125 338.735 317.651 339.268 317.32C339.802 316.989 340.426 316.824 341.14 316.824C341.866 316.824 342.49 317.011 343.012 317.384C343.546 317.747 343.898 318.243 344.068 318.872H343.876L344.052 316.968H345.3C345.268 317.277 345.236 317.592 345.204 317.912C345.183 318.221 345.172 318.525 345.172 318.824V328.456H343.876ZM341.396 324.088C342.164 324.088 342.772 323.827 343.22 323.304C343.668 322.771 343.892 321.997 343.892 320.984C343.892 319.96 343.668 319.187 343.22 318.664C342.772 318.131 342.164 317.864 341.396 317.864C340.639 317.864 340.031 318.131 339.572 318.664C339.124 319.187 338.9 319.96 338.9 320.984C338.9 321.997 339.124 322.771 339.572 323.304C340.031 323.827 340.639 324.088 341.396 324.088ZM350.51 325.144C349.561 325.144 348.841 324.883 348.35 324.36C347.87 323.837 347.63 323.037 347.63 321.96V316.968H348.926V321.928C348.926 322.664 349.075 323.208 349.374 323.56C349.673 323.901 350.137 324.072 350.766 324.072C351.47 324.072 352.035 323.843 352.462 323.384C352.889 322.925 353.102 322.312 353.102 321.544V316.968H354.398V325H353.134V323.192H353.342C353.118 323.811 352.755 324.291 352.254 324.632C351.763 324.973 351.182 325.144 350.51 325.144ZM360.48 325.144C359.222 325.144 358.23 324.781 357.504 324.056C356.779 323.32 356.416 322.301 356.416 321C356.416 320.157 356.576 319.427 356.896 318.808C357.216 318.179 357.664 317.693 358.24 317.352C358.816 317 359.478 316.824 360.224 316.824C360.96 316.824 361.579 316.979 362.08 317.288C362.582 317.597 362.966 318.04 363.232 318.616C363.499 319.181 363.632 319.853 363.632 320.632V321.112H357.408V320.296H362.784L362.512 320.504C362.512 319.651 362.32 318.984 361.936 318.504C361.552 318.024 360.982 317.784 360.224 317.784C359.424 317.784 358.8 318.067 358.352 318.632C357.904 319.187 357.68 319.939 357.68 320.888V321.032C357.68 322.035 357.926 322.797 358.416 323.32C358.918 323.832 359.616 324.088 360.512 324.088C360.992 324.088 361.44 324.019 361.856 323.88C362.283 323.731 362.688 323.491 363.072 323.16L363.52 324.072C363.168 324.413 362.72 324.68 362.176 324.872C361.643 325.053 361.078 325.144 360.48 325.144ZM368.288 325.144C367.648 325.144 367.05 325.059 366.496 324.888C365.941 324.707 365.482 324.456 365.12 324.136L365.568 323.224C365.962 323.533 366.389 323.763 366.848 323.912C367.317 324.061 367.802 324.136 368.304 324.136C368.944 324.136 369.424 324.024 369.744 323.8C370.074 323.565 370.24 323.245 370.24 322.84C370.24 322.531 370.133 322.285 369.92 322.104C369.717 321.912 369.381 321.763 368.912 321.656L367.424 321.352C366.741 321.203 366.229 320.952 365.888 320.6C365.546 320.237 365.376 319.779 365.376 319.224C365.376 318.755 365.498 318.344 365.744 317.992C365.989 317.629 366.346 317.347 366.816 317.144C367.285 316.931 367.834 316.824 368.464 316.824C369.05 316.824 369.589 316.915 370.08 317.096C370.581 317.267 370.997 317.517 371.328 317.848L370.864 318.744C370.544 318.435 370.176 318.205 369.76 318.056C369.354 317.896 368.933 317.816 368.496 317.816C367.866 317.816 367.392 317.944 367.072 318.2C366.762 318.445 366.608 318.771 366.608 319.176C366.608 319.485 366.704 319.741 366.896 319.944C367.098 320.136 367.408 320.28 367.824 320.376L369.312 320.68C370.037 320.84 370.576 321.091 370.928 321.432C371.29 321.763 371.472 322.211 371.472 322.776C371.472 323.256 371.338 323.677 371.072 324.04C370.805 324.392 370.432 324.664 369.952 324.856C369.482 325.048 368.928 325.144 368.288 325.144ZM376.323 325.144C375.534 325.144 374.931 324.92 374.515 324.472C374.099 324.013 373.891 323.325 373.891 322.408V317.976H372.323V316.968H373.891V314.776L375.187 314.408V316.968H377.491V317.976H375.187V322.264C375.187 322.904 375.294 323.363 375.507 323.64C375.731 323.907 376.062 324.04 376.499 324.04C376.702 324.04 376.883 324.024 377.043 323.992C377.203 323.949 377.347 323.901 377.475 323.848V324.936C377.326 325 377.144 325.048 376.931 325.08C376.728 325.123 376.526 325.144 376.323 325.144ZM379.069 325V316.968H380.365V325H379.069ZM378.909 315.144V313.688H380.509V315.144H378.909ZM386.177 325.144C385.409 325.144 384.737 324.979 384.161 324.648C383.596 324.307 383.159 323.827 382.849 323.208C382.54 322.579 382.385 321.837 382.385 320.984C382.385 320.12 382.54 319.379 382.849 318.76C383.159 318.141 383.596 317.667 384.161 317.336C384.737 316.995 385.409 316.824 386.177 316.824C386.956 316.824 387.628 316.995 388.193 317.336C388.769 317.667 389.212 318.141 389.521 318.76C389.841 319.379 390.001 320.12 390.001 320.984C390.001 321.837 389.841 322.579 389.521 323.208C389.212 323.827 388.769 324.307 388.193 324.648C387.628 324.979 386.956 325.144 386.177 325.144ZM386.177 324.088C386.945 324.088 387.553 323.827 388.001 323.304C388.449 322.771 388.673 321.997 388.673 320.984C388.673 319.96 388.444 319.187 387.985 318.664C387.537 318.131 386.935 317.864 386.177 317.864C385.42 317.864 384.817 318.131 384.369 318.664C383.921 319.187 383.697 319.96 383.697 320.984C383.697 321.997 383.921 322.771 384.369 323.304C384.817 323.827 385.42 324.088 386.177 324.088ZM392.022 325V318.824C392.022 318.525 392.006 318.221 391.974 317.912C391.952 317.592 391.926 317.277 391.894 316.968H393.142L393.302 318.728H393.11C393.344 318.109 393.718 317.64 394.23 317.32C394.752 316.989 395.355 316.824 396.038 316.824C396.987 316.824 397.702 317.08 398.182 317.592C398.672 318.093 398.918 318.888 398.918 319.976V325H397.622V320.056C397.622 319.299 397.467 318.749 397.158 318.408C396.859 318.056 396.39 317.88 395.75 317.88C395.003 317.88 394.411 318.109 393.974 318.568C393.536 319.027 393.318 319.64 393.318 320.408V325H392.022ZM404.069 325.144C403.429 325.144 402.831 325.059 402.277 324.888C401.722 324.707 401.263 324.456 400.901 324.136L401.349 323.224C401.743 323.533 402.17 323.763 402.629 323.912C403.098 324.061 403.583 324.136 404.085 324.136C404.725 324.136 405.205 324.024 405.525 323.8C405.855 323.565 406.021 323.245 406.021 322.84C406.021 322.531 405.914 322.285 405.701 322.104C405.498 321.912 405.162 321.763 404.693 321.656L403.205 321.352C402.522 321.203 402.01 320.952 401.669 320.6C401.327 320.237 401.157 319.779 401.157 319.224C401.157 318.755 401.279 318.344 401.525 317.992C401.77 317.629 402.127 317.347 402.597 317.144C403.066 316.931 403.615 316.824 404.245 316.824C404.831 316.824 405.37 316.915 405.861 317.096C406.362 317.267 406.778 317.517 407.109 317.848L406.645 318.744C406.325 318.435 405.957 318.205 405.541 318.056C405.135 317.896 404.714 317.816 404.277 317.816C403.647 317.816 403.173 317.944 402.853 318.2C402.543 318.445 402.389 318.771 402.389 319.176C402.389 319.485 402.485 319.741 402.677 319.944C402.879 320.136 403.189 320.28 403.605 320.376L405.093 320.68C405.818 320.84 406.357 321.091 406.709 321.432C407.071 321.763 407.253 322.211 407.253 322.776C407.253 323.256 407.119 323.677 406.853 324.04C406.586 324.392 406.213 324.664 405.733 324.856C405.263 325.048 404.709 325.144 404.069 325.144ZM111.964 349.144C111.174 349.144 110.572 348.92 110.156 348.472C109.74 348.013 109.532 347.325 109.532 346.408V341.976H107.964V340.968H109.532V338.776L110.828 338.408V340.968H113.132V341.976H110.828V346.264C110.828 346.904 110.934 347.363 111.148 347.64C111.372 347.907 111.702 348.04 112.14 348.04C112.342 348.04 112.524 348.024 112.684 347.992C112.844 347.949 112.988 347.901 113.116 347.848V348.936C112.966 349 112.785 349.048 112.572 349.08C112.369 349.123 112.166 349.144 111.964 349.144ZM117.765 349.144C117.051 349.144 116.427 348.979 115.893 348.648C115.36 348.307 114.944 347.827 114.645 347.208C114.357 346.589 114.213 345.848 114.213 344.984C114.213 344.109 114.357 343.363 114.645 342.744C114.944 342.125 115.36 341.651 115.893 341.32C116.427 340.989 117.051 340.824 117.765 340.824C118.491 340.824 119.115 341.011 119.637 341.384C120.171 341.747 120.523 342.243 120.693 342.872H120.501L120.677 340.968H121.925C121.893 341.277 121.861 341.592 121.829 341.912C121.808 342.221 121.797 342.525 121.797 342.824V349H120.501V347.112H120.677C120.507 347.741 120.155 348.237 119.621 348.6C119.088 348.963 118.469 349.144 117.765 349.144ZM118.021 348.088C118.789 348.088 119.397 347.827 119.845 347.304C120.293 346.771 120.517 345.997 120.517 344.984C120.517 343.96 120.293 343.187 119.845 342.664C119.397 342.131 118.789 341.864 118.021 341.864C117.264 341.864 116.656 342.131 116.197 342.664C115.749 343.187 115.525 343.96 115.525 344.984C115.525 345.997 115.749 346.771 116.197 347.304C116.656 347.827 117.264 348.088 118.021 348.088ZM124.303 349V340.968H125.599V349H124.303ZM124.143 339.144V337.688H125.743V339.144H124.143ZM128.116 349V337.224H129.412V349H128.116ZM135.224 349.144C134.456 349.144 133.784 348.979 133.208 348.648C132.643 348.307 132.205 347.827 131.896 347.208C131.587 346.579 131.432 345.837 131.432 344.984C131.432 344.12 131.587 343.379 131.896 342.76C132.205 342.141 132.643 341.667 133.208 341.336C133.784 340.995 134.456 340.824 135.224 340.824C136.003 340.824 136.675 340.995 137.24 341.336C137.816 341.667 138.259 342.141 138.568 342.76C138.888 343.379 139.048 344.12 139.048 344.984C139.048 345.837 138.888 346.579 138.568 347.208C138.259 347.827 137.816 348.307 137.24 348.648C136.675 348.979 136.003 349.144 135.224 349.144ZM135.224 348.088C135.992 348.088 136.6 347.827 137.048 347.304C137.496 346.771 137.72 345.997 137.72 344.984C137.72 343.96 137.491 343.187 137.032 342.664C136.584 342.131 135.981 341.864 135.224 341.864C134.467 341.864 133.864 342.131 133.416 342.664C132.968 343.187 132.744 343.96 132.744 344.984C132.744 345.997 132.968 346.771 133.416 347.304C133.864 347.827 134.467 348.088 135.224 348.088ZM141.037 349V342.904C141.037 342.584 141.026 342.259 141.005 341.928C140.994 341.597 140.973 341.277 140.941 340.968H142.189L142.349 342.92L142.125 342.936C142.231 342.456 142.418 342.061 142.685 341.752C142.951 341.443 143.266 341.213 143.629 341.064C143.991 340.904 144.37 340.824 144.765 340.824C144.925 340.824 145.063 340.829 145.181 340.84C145.309 340.851 145.426 340.877 145.533 340.92L145.517 342.072C145.357 342.019 145.207 341.987 145.069 341.976C144.941 341.955 144.791 341.944 144.621 341.944C144.151 341.944 143.741 342.056 143.389 342.28C143.047 342.504 142.786 342.792 142.605 343.144C142.434 343.496 142.349 343.869 142.349 344.264V349H141.037ZM150.355 349.144C149.097 349.144 148.105 348.781 147.379 348.056C146.654 347.32 146.291 346.301 146.291 345C146.291 344.157 146.451 343.427 146.771 342.808C147.091 342.179 147.539 341.693 148.115 341.352C148.691 341 149.353 340.824 150.099 340.824C150.835 340.824 151.454 340.979 151.955 341.288C152.457 341.597 152.841 342.04 153.107 342.616C153.374 343.181 153.507 343.853 153.507 344.632V345.112H147.283V344.296H152.659L152.387 344.504C152.387 343.651 152.195 342.984 151.811 342.504C151.427 342.024 150.857 341.784 150.099 341.784C149.299 341.784 148.675 342.067 148.227 342.632C147.779 343.187 147.555 343.939 147.555 344.888V345.032C147.555 346.035 147.801 346.797 148.291 347.32C148.793 347.832 149.491 348.088 150.387 348.088C150.867 348.088 151.315 348.019 151.731 347.88C152.158 347.731 152.563 347.491 152.947 347.16L153.395 348.072C153.043 348.413 152.595 348.68 152.051 348.872C151.518 349.053 150.953 349.144 150.355 349.144ZM158.531 349.144C157.827 349.144 157.208 348.979 156.675 348.648C156.141 348.307 155.725 347.827 155.427 347.208C155.139 346.589 154.995 345.848 154.995 344.984C154.995 344.109 155.139 343.363 155.427 342.744C155.725 342.125 156.141 341.651 156.675 341.32C157.208 340.989 157.827 340.824 158.531 340.824C159.256 340.824 159.88 341.005 160.403 341.368C160.936 341.731 161.293 342.221 161.475 342.84H161.283V337.224H162.579V349H161.299V347.08H161.475C161.304 347.72 160.952 348.227 160.419 348.6C159.885 348.963 159.256 349.144 158.531 349.144ZM158.803 348.088C159.56 348.088 160.168 347.827 160.627 347.304C161.085 346.771 161.315 345.997 161.315 344.984C161.315 343.96 161.085 343.187 160.627 342.664C160.168 342.131 159.56 341.864 158.803 341.864C158.045 341.864 157.437 342.131 156.979 342.664C156.531 343.187 156.307 343.96 156.307 344.984C156.307 345.997 156.531 346.771 156.979 347.304C157.437 347.827 158.045 348.088 158.803 348.088ZM172.104 349.144C171.315 349.144 170.712 348.92 170.296 348.472C169.88 348.013 169.672 347.325 169.672 346.408V341.976H168.104V340.968H169.672V338.776L170.968 338.408V340.968H173.272V341.976H170.968V346.264C170.968 346.904 171.075 347.363 171.288 347.64C171.512 347.907 171.843 348.04 172.28 348.04C172.483 348.04 172.664 348.024 172.824 347.992C172.984 347.949 173.128 347.901 173.256 347.848V348.936C173.107 349 172.926 349.048 172.712 349.08C172.51 349.123 172.307 349.144 172.104 349.144ZM178.068 349.144C177.3 349.144 176.628 348.979 176.052 348.648C175.486 348.307 175.049 347.827 174.74 347.208C174.43 346.579 174.276 345.837 174.276 344.984C174.276 344.12 174.43 343.379 174.74 342.76C175.049 342.141 175.486 341.667 176.052 341.336C176.628 340.995 177.3 340.824 178.068 340.824C178.846 340.824 179.518 340.995 180.084 341.336C180.66 341.667 181.102 342.141 181.412 342.76C181.732 343.379 181.892 344.12 181.892 344.984C181.892 345.837 181.732 346.579 181.412 347.208C181.102 347.827 180.66 348.307 180.084 348.648C179.518 348.979 178.846 349.144 178.068 349.144ZM178.068 348.088C178.836 348.088 179.444 347.827 179.892 347.304C180.34 346.771 180.564 345.997 180.564 344.984C180.564 343.96 180.334 343.187 179.876 342.664C179.428 342.131 178.825 341.864 178.068 341.864C177.31 341.864 176.708 342.131 176.26 342.664C175.812 343.187 175.588 343.96 175.588 344.984C175.588 345.997 175.812 346.771 176.26 347.304C176.708 347.827 177.31 348.088 178.068 348.088ZM191.124 349.144C190.42 349.144 189.802 348.979 189.268 348.648C188.735 348.307 188.319 347.827 188.02 347.208C187.732 346.589 187.588 345.848 187.588 344.984C187.588 344.109 187.732 343.363 188.02 342.744C188.319 342.125 188.735 341.651 189.268 341.32C189.802 340.989 190.42 340.824 191.124 340.824C191.85 340.824 192.474 341.005 192.996 341.368C193.53 341.731 193.887 342.221 194.068 342.84H193.876V337.224H195.172V349H193.892V347.08H194.068C193.898 347.72 193.546 348.227 193.012 348.6C192.479 348.963 191.85 349.144 191.124 349.144ZM191.396 348.088C192.154 348.088 192.762 347.827 193.22 347.304C193.679 346.771 193.908 345.997 193.908 344.984C193.908 343.96 193.679 343.187 193.22 342.664C192.762 342.131 192.154 341.864 191.396 341.864C190.639 341.864 190.031 342.131 189.572 342.664C189.124 343.187 188.9 343.96 188.9 344.984C188.9 345.997 189.124 346.771 189.572 347.304C190.031 347.827 190.639 348.088 191.396 348.088ZM197.678 349V340.968H198.974V349H197.678ZM197.518 339.144V337.688H199.118V339.144H197.518ZM201.907 349V341.976H200.339V340.968H202.259L201.907 341.304V339.96C201.907 339.053 202.136 338.36 202.595 337.88C203.053 337.4 203.709 337.16 204.563 337.16C204.776 337.16 204.995 337.181 205.219 337.224C205.453 337.256 205.645 337.304 205.795 337.368V338.44C205.667 338.387 205.507 338.344 205.315 338.312C205.133 338.269 204.947 338.248 204.755 338.248C204.424 338.248 204.141 338.317 203.907 338.456C203.672 338.584 203.496 338.781 203.379 339.048C203.261 339.315 203.203 339.656 203.203 340.072V341.24L202.995 340.968H205.443V341.976H203.203V349H201.907ZM207.063 349V341.976H205.495V340.968H207.415L207.063 341.304V339.96C207.063 339.053 207.292 338.36 207.751 337.88C208.209 337.4 208.865 337.16 209.719 337.16C209.932 337.16 210.151 337.181 210.375 337.224C210.609 337.256 210.801 337.304 210.951 337.368V338.44C210.823 338.387 210.663 338.344 210.471 338.312C210.289 338.269 210.103 338.248 209.911 338.248C209.58 338.248 209.297 338.317 209.063 338.456C208.828 338.584 208.652 338.781 208.535 339.048C208.417 339.315 208.359 339.656 208.359 340.072V341.24L208.151 340.968H210.599V341.976H208.359V349H207.063ZM215.402 349.144C214.144 349.144 213.152 348.781 212.426 348.056C211.701 347.32 211.338 346.301 211.338 345C211.338 344.157 211.498 343.427 211.818 342.808C212.138 342.179 212.586 341.693 213.162 341.352C213.738 341 214.4 340.824 215.146 340.824C215.882 340.824 216.501 340.979 217.002 341.288C217.504 341.597 217.888 342.04 218.154 342.616C218.421 343.181 218.554 343.853 218.554 344.632V345.112H212.33V344.296H217.706L217.434 344.504C217.434 343.651 217.242 342.984 216.858 342.504C216.474 342.024 215.904 341.784 215.146 341.784C214.346 341.784 213.722 342.067 213.274 342.632C212.826 343.187 212.602 343.939 212.602 344.888V345.032C212.602 346.035 212.848 346.797 213.338 347.32C213.84 347.832 214.538 348.088 215.434 348.088C215.914 348.088 216.362 348.019 216.778 347.88C217.205 347.731 217.61 347.491 217.994 347.16L218.442 348.072C218.09 348.413 217.642 348.68 217.098 348.872C216.565 349.053 216 349.144 215.402 349.144ZM220.505 349V342.904C220.505 342.584 220.495 342.259 220.473 341.928C220.463 341.597 220.441 341.277 220.409 340.968H221.657L221.817 342.92L221.593 342.936C221.7 342.456 221.887 342.061 222.153 341.752C222.42 341.443 222.735 341.213 223.097 341.064C223.46 340.904 223.839 340.824 224.233 340.824C224.393 340.824 224.532 340.829 224.649 340.84C224.777 340.851 224.895 340.877 225.001 340.92L224.985 342.072C224.825 342.019 224.676 341.987 224.537 341.976C224.409 341.955 224.26 341.944 224.089 341.944C223.62 341.944 223.209 342.056 222.857 342.28C222.516 342.504 222.255 342.792 222.073 343.144C221.903 343.496 221.817 343.869 221.817 344.264V349H220.505ZM229.824 349.144C228.566 349.144 227.574 348.781 226.848 348.056C226.123 347.32 225.76 346.301 225.76 345C225.76 344.157 225.92 343.427 226.24 342.808C226.56 342.179 227.008 341.693 227.584 341.352C228.16 341 228.822 340.824 229.568 340.824C230.304 340.824 230.923 340.979 231.424 341.288C231.926 341.597 232.31 342.04 232.576 342.616C232.843 343.181 232.976 343.853 232.976 344.632V345.112H226.752V344.296H232.128L231.856 344.504C231.856 343.651 231.664 342.984 231.28 342.504C230.896 342.024 230.326 341.784 229.568 341.784C228.768 341.784 228.144 342.067 227.696 342.632C227.248 343.187 227.024 343.939 227.024 344.888V345.032C227.024 346.035 227.27 346.797 227.76 347.32C228.262 347.832 228.96 348.088 229.856 348.088C230.336 348.088 230.784 348.019 231.2 347.88C231.627 347.731 232.032 347.491 232.416 347.16L232.864 348.072C232.512 348.413 232.064 348.68 231.52 348.872C230.987 349.053 230.422 349.144 229.824 349.144ZM234.959 349V342.824C234.959 342.525 234.943 342.221 234.911 341.912C234.89 341.592 234.863 341.277 234.831 340.968H236.079L236.239 342.728H236.047C236.282 342.109 236.655 341.64 237.167 341.32C237.69 340.989 238.293 340.824 238.975 340.824C239.925 340.824 240.639 341.08 241.119 341.592C241.61 342.093 241.855 342.888 241.855 343.976V349H240.559V344.056C240.559 343.299 240.405 342.749 240.095 342.408C239.797 342.056 239.327 341.88 238.687 341.88C237.941 341.88 237.349 342.109 236.911 342.568C236.474 343.027 236.255 343.64 236.255 344.408V349H234.959ZM247.182 349.144C246.393 349.144 245.79 348.92 245.374 348.472C244.958 348.013 244.75 347.325 244.75 346.408V341.976H243.182V340.968H244.75V338.776L246.046 338.408V340.968H248.35V341.976H246.046V346.264C246.046 346.904 246.153 347.363 246.366 347.64C246.59 347.907 246.921 348.04 247.358 348.04C247.561 348.04 247.742 348.024 247.902 347.992C248.062 347.949 248.206 347.901 248.334 347.848V348.936C248.185 349 248.004 349.048 247.79 349.08C247.588 349.123 247.385 349.144 247.182 349.144ZM257.14 349.144C256.436 349.144 255.817 348.979 255.284 348.648C254.751 348.307 254.335 347.827 254.036 347.208C253.748 346.589 253.604 345.848 253.604 344.984C253.604 344.109 253.748 343.363 254.036 342.744C254.335 342.125 254.751 341.651 255.284 341.32C255.817 340.989 256.436 340.824 257.14 340.824C257.865 340.824 258.489 341.005 259.012 341.368C259.545 341.731 259.903 342.221 260.084 342.84H259.892V337.224H261.188V349H259.908V347.08H260.084C259.913 347.72 259.561 348.227 259.028 348.6C258.495 348.963 257.865 349.144 257.14 349.144ZM257.412 348.088C258.169 348.088 258.777 347.827 259.236 347.304C259.695 346.771 259.924 345.997 259.924 344.984C259.924 343.96 259.695 343.187 259.236 342.664C258.777 342.131 258.169 341.864 257.412 341.864C256.655 341.864 256.047 342.131 255.588 342.664C255.14 343.187 254.916 343.96 254.916 344.984C254.916 345.997 255.14 346.771 255.588 347.304C256.047 347.827 256.655 348.088 257.412 348.088ZM266.99 349.144C266.222 349.144 265.55 348.979 264.974 348.648C264.408 348.307 263.971 347.827 263.662 347.208C263.352 346.579 263.198 345.837 263.198 344.984C263.198 344.12 263.352 343.379 263.662 342.76C263.971 342.141 264.408 341.667 264.974 341.336C265.55 340.995 266.222 340.824 266.99 340.824C267.768 340.824 268.44 340.995 269.006 341.336C269.582 341.667 270.024 342.141 270.334 342.76C270.654 343.379 270.814 344.12 270.814 344.984C270.814 345.837 270.654 346.579 270.334 347.208C270.024 347.827 269.582 348.307 269.006 348.648C268.44 348.979 267.768 349.144 266.99 349.144ZM266.99 348.088C267.758 348.088 268.366 347.827 268.814 347.304C269.262 346.771 269.486 345.997 269.486 344.984C269.486 343.96 269.256 343.187 268.798 342.664C268.35 342.131 267.747 341.864 266.99 341.864C266.232 341.864 265.63 342.131 265.182 342.664C264.734 343.187 264.51 343.96 264.51 344.984C264.51 345.997 264.734 346.771 265.182 347.304C265.63 347.827 266.232 348.088 266.99 348.088ZM272.834 349V342.824C272.834 342.525 272.818 342.221 272.786 341.912C272.765 341.592 272.738 341.277 272.706 340.968H273.954L274.114 342.728H273.922C274.136 342.12 274.472 341.651 274.93 341.32C275.4 340.989 275.965 340.824 276.626 340.824C277.298 340.824 277.842 340.984 278.258 341.304C278.685 341.624 278.973 342.12 279.122 342.792H278.882C279.085 342.184 279.442 341.704 279.954 341.352C280.466 341 281.064 340.824 281.746 340.824C282.632 340.824 283.298 341.08 283.746 341.592C284.194 342.093 284.418 342.888 284.418 343.976V349H283.122V344.056C283.122 343.299 282.989 342.749 282.722 342.408C282.456 342.056 282.029 341.88 281.442 341.88C280.77 341.88 280.237 342.115 279.842 342.584C279.458 343.043 279.266 343.661 279.266 344.44V349H277.97V344.056C277.97 343.299 277.837 342.749 277.57 342.408C277.304 342.056 276.877 341.88 276.29 341.88C275.618 341.88 275.09 342.115 274.706 342.584C274.322 343.043 274.13 343.661 274.13 344.44V349H272.834ZM289.937 349.144C289.223 349.144 288.599 348.979 288.065 348.648C287.532 348.307 287.116 347.827 286.817 347.208C286.529 346.589 286.385 345.848 286.385 344.984C286.385 344.109 286.529 343.363 286.817 342.744C287.116 342.125 287.532 341.651 288.065 341.32C288.599 340.989 289.223 340.824 289.937 340.824C290.663 340.824 291.287 341.011 291.809 341.384C292.343 341.747 292.695 342.243 292.865 342.872H292.673L292.849 340.968H294.097C294.065 341.277 294.033 341.592 294.001 341.912C293.98 342.221 293.969 342.525 293.969 342.824V349H292.673V347.112H292.849C292.679 347.741 292.327 348.237 291.793 348.6C291.26 348.963 290.641 349.144 289.937 349.144ZM290.193 348.088C290.961 348.088 291.569 347.827 292.017 347.304C292.465 346.771 292.689 345.997 292.689 344.984C292.689 343.96 292.465 343.187 292.017 342.664C291.569 342.131 290.961 341.864 290.193 341.864C289.436 341.864 288.828 342.131 288.369 342.664C287.921 343.187 287.697 343.96 287.697 344.984C287.697 345.997 287.921 346.771 288.369 347.304C288.828 347.827 289.436 348.088 290.193 348.088ZM296.475 349V340.968H297.771V349H296.475ZM296.315 339.144V337.688H297.915V339.144H296.315ZM300.287 349V342.824C300.287 342.525 300.271 342.221 300.239 341.912C300.218 341.592 300.191 341.277 300.159 340.968H301.407L301.567 342.728H301.375C301.61 342.109 301.983 341.64 302.495 341.32C303.018 340.989 303.621 340.824 304.303 340.824C305.253 340.824 305.967 341.08 306.447 341.592C306.938 342.093 307.183 342.888 307.183 343.976V349H305.887V344.056C305.887 343.299 305.733 342.749 305.423 342.408C305.125 342.056 304.655 341.88 304.015 341.88C303.269 341.88 302.677 342.109 302.239 342.568C301.802 343.027 301.583 343.64 301.583 344.408V349H300.287ZM312.334 349.144C311.694 349.144 311.097 349.059 310.542 348.888C309.988 348.707 309.529 348.456 309.166 348.136L309.614 347.224C310.009 347.533 310.436 347.763 310.894 347.912C311.364 348.061 311.849 348.136 312.35 348.136C312.99 348.136 313.47 348.024 313.79 347.8C314.121 347.565 314.286 347.245 314.286 346.84C314.286 346.531 314.18 346.285 313.966 346.104C313.764 345.912 313.428 345.763 312.958 345.656L311.47 345.352C310.788 345.203 310.276 344.952 309.934 344.6C309.593 344.237 309.422 343.779 309.422 343.224C309.422 342.755 309.545 342.344 309.79 341.992C310.036 341.629 310.393 341.347 310.862 341.144C311.332 340.931 311.881 340.824 312.51 340.824C313.097 340.824 313.636 340.915 314.126 341.096C314.628 341.267 315.044 341.517 315.374 341.848L314.91 342.744C314.59 342.435 314.222 342.205 313.806 342.056C313.401 341.896 312.98 341.816 312.542 341.816C311.913 341.816 311.438 341.944 311.118 342.2C310.809 342.445 310.654 342.771 310.654 343.176C310.654 343.485 310.75 343.741 310.942 343.944C311.145 344.136 311.454 344.28 311.87 344.376L313.358 344.68C314.084 344.84 314.622 345.091 314.974 345.432C315.337 345.763 315.518 346.211 315.518 346.776C315.518 347.256 315.385 347.677 315.118 348.04C314.852 348.392 314.478 348.664 313.998 348.856C313.529 349.048 312.974 349.144 312.334 349.144ZM324.828 349.144C324.113 349.144 323.489 348.979 322.956 348.648C322.422 348.307 322.006 347.827 321.708 347.208C321.42 346.589 321.276 345.848 321.276 344.984C321.276 344.109 321.42 343.363 321.708 342.744C322.006 342.125 322.422 341.651 322.956 341.32C323.489 340.989 324.113 340.824 324.828 340.824C325.553 340.824 326.177 341.011 326.7 341.384C327.233 341.747 327.585 342.243 327.756 342.872H327.564L327.74 340.968H328.988C328.956 341.277 328.924 341.592 328.892 341.912C328.87 342.221 328.86 342.525 328.86 342.824V349H327.564V347.112H327.74C327.569 347.741 327.217 348.237 326.684 348.6C326.15 348.963 325.532 349.144 324.828 349.144ZM325.084 348.088C325.852 348.088 326.46 347.827 326.908 347.304C327.356 346.771 327.58 345.997 327.58 344.984C327.58 343.96 327.356 343.187 326.908 342.664C326.46 342.131 325.852 341.864 325.084 341.864C324.326 341.864 323.718 342.131 323.26 342.664C322.812 343.187 322.588 343.96 322.588 344.984C322.588 345.997 322.812 346.771 323.26 347.304C323.718 347.827 324.326 348.088 325.084 348.088ZM331.366 349V342.824C331.366 342.525 331.35 342.221 331.318 341.912C331.296 341.592 331.27 341.277 331.238 340.968H332.486L332.646 342.728H332.454C332.688 342.109 333.062 341.64 333.574 341.32C334.096 340.989 334.699 340.824 335.382 340.824C336.331 340.824 337.046 341.08 337.526 341.592C338.016 342.093 338.262 342.888 338.262 343.976V349H336.966V344.056C336.966 343.299 336.811 342.749 336.502 342.408C336.203 342.056 335.734 341.88 335.094 341.88C334.347 341.88 333.755 342.109 333.318 342.568C332.88 343.027 332.662 343.64 332.662 344.408V349H331.366ZM343.781 349.144C343.077 349.144 342.458 348.979 341.925 348.648C341.391 348.307 340.975 347.827 340.677 347.208C340.389 346.589 340.245 345.848 340.245 344.984C340.245 344.109 340.389 343.363 340.677 342.744C340.975 342.125 341.391 341.651 341.925 341.32C342.458 340.989 343.077 340.824 343.781 340.824C344.506 340.824 345.13 341.005 345.653 341.368C346.186 341.731 346.543 342.221 346.725 342.84H346.533V337.224H347.829V349H346.549V347.08H346.725C346.554 347.72 346.202 348.227 345.669 348.6C345.135 348.963 344.506 349.144 343.781 349.144ZM344.053 348.088C344.81 348.088 345.418 347.827 345.877 347.304C346.335 346.771 346.565 345.997 346.565 344.984C346.565 343.96 346.335 343.187 345.877 342.664C345.418 342.131 344.81 341.864 344.053 341.864C343.295 341.864 342.687 342.131 342.229 342.664C341.781 343.187 341.557 343.96 341.557 344.984C341.557 345.997 341.781 346.771 342.229 347.304C342.687 347.827 343.295 348.088 344.053 348.088ZM357.546 349.144C356.842 349.144 356.224 348.979 355.69 348.648C355.157 348.307 354.741 347.827 354.442 347.208C354.154 346.589 354.01 345.848 354.01 344.984C354.01 344.109 354.154 343.363 354.442 342.744C354.741 342.125 355.157 341.651 355.69 341.32C356.224 340.989 356.842 340.824 357.546 340.824C358.272 340.824 358.896 341.005 359.418 341.368C359.952 341.731 360.309 342.221 360.49 342.84H360.298V337.224H361.594V349H360.314V347.08H360.49C360.32 347.72 359.968 348.227 359.434 348.6C358.901 348.963 358.272 349.144 357.546 349.144ZM357.818 348.088C358.576 348.088 359.184 347.827 359.642 347.304C360.101 346.771 360.33 345.997 360.33 344.984C360.33 343.96 360.101 343.187 359.642 342.664C359.184 342.131 358.576 341.864 357.818 341.864C357.061 341.864 356.453 342.131 355.994 342.664C355.546 343.187 355.322 343.96 355.322 344.984C355.322 345.997 355.546 346.771 355.994 347.304C356.453 347.827 357.061 348.088 357.818 348.088ZM364.1 349V340.968H365.396V349H364.1ZM363.94 339.144V337.688H365.54V339.144H363.94ZM368.328 349V341.976H366.76V340.968H368.68L368.328 341.304V339.96C368.328 339.053 368.558 338.36 369.016 337.88C369.475 337.4 370.131 337.16 370.984 337.16C371.198 337.16 371.416 337.181 371.64 337.224C371.875 337.256 372.067 337.304 372.216 337.368V338.44C372.088 338.387 371.928 338.344 371.736 338.312C371.555 338.269 371.368 338.248 371.176 338.248C370.846 338.248 370.563 338.317 370.328 338.456C370.094 338.584 369.918 338.781 369.8 339.048C369.683 339.315 369.624 339.656 369.624 340.072V341.24L369.416 340.968H371.864V341.976H369.624V349H368.328ZM373.485 349V341.976H371.917V340.968H373.837L373.485 341.304V339.96C373.485 339.053 373.709 338.36 374.157 337.88C374.615 337.4 375.266 337.16 376.109 337.16C376.311 337.16 376.525 337.181 376.749 337.224C376.983 337.256 377.181 337.304 377.341 337.368V338.44C377.213 338.387 377.053 338.344 376.861 338.312C376.679 338.269 376.493 338.248 376.301 338.248C375.799 338.248 375.421 338.397 375.165 338.696C374.909 338.995 374.781 339.453 374.781 340.072V341.24L374.573 340.968H379.725V349H378.429V341.976H374.781V349H373.485ZM378.285 339.144V337.688H379.885V339.144H378.285ZM385.632 349.144C384.843 349.144 384.155 348.973 383.568 348.632C382.992 348.291 382.544 347.805 382.224 347.176C381.915 346.547 381.76 345.8 381.76 344.936C381.76 344.061 381.92 343.32 382.24 342.712C382.56 342.093 383.008 341.624 383.584 341.304C384.171 340.984 384.854 340.824 385.632 340.824C386.144 340.824 386.64 340.915 387.12 341.096C387.611 341.277 388.016 341.533 388.336 341.864L387.872 342.792C387.552 342.483 387.2 342.253 386.816 342.104C386.443 341.955 386.075 341.88 385.712 341.88C384.88 341.88 384.235 342.141 383.776 342.664C383.318 343.187 383.088 343.949 383.088 344.952C383.088 345.944 383.318 346.712 383.776 347.256C384.235 347.8 384.88 348.072 385.712 348.072C386.064 348.072 386.427 348.003 386.8 347.864C387.184 347.725 387.542 347.496 387.872 347.176L388.336 348.088C388.006 348.429 387.595 348.691 387.104 348.872C386.614 349.053 386.123 349.144 385.632 349.144ZM393.01 349.144C392.061 349.144 391.341 348.883 390.85 348.36C390.37 347.837 390.13 347.037 390.13 345.96V340.968H391.426V345.928C391.426 346.664 391.575 347.208 391.874 347.56C392.173 347.901 392.637 348.072 393.266 348.072C393.97 348.072 394.535 347.843 394.962 347.384C395.389 346.925 395.602 346.312 395.602 345.544V340.968H396.898V349H395.634V347.192H395.842C395.618 347.811 395.255 348.291 394.754 348.632C394.263 348.973 393.682 349.144 393.01 349.144ZM399.412 349V337.224H400.708V349H399.412ZM406.073 349.144C405.284 349.144 404.681 348.92 404.265 348.472C403.849 348.013 403.641 347.325 403.641 346.408V341.976H402.073V340.968H403.641V338.776L404.937 338.408V340.968H407.241V341.976H404.937V346.264C404.937 346.904 405.044 347.363 405.257 347.64C405.481 347.907 405.812 348.04 406.249 348.04C406.452 348.04 406.633 348.024 406.793 347.992C406.953 347.949 407.097 347.901 407.225 347.848V348.936C407.076 349 406.894 349.048 406.681 349.08C406.478 349.123 406.276 349.144 406.073 349.144ZM408.592 352.632L408.288 351.56C408.79 351.443 409.206 351.304 409.536 351.144C409.878 350.995 410.16 350.792 410.384 350.536C410.608 350.28 410.8 349.96 410.96 349.576L411.376 348.632L411.344 349.176L407.84 340.968H409.248L412.144 348.024H411.728L414.592 340.968H415.952L412.24 349.672C412.027 350.184 411.792 350.611 411.536 350.952C411.28 351.304 411.003 351.587 410.704 351.8C410.416 352.024 410.096 352.2 409.744 352.328C409.392 352.456 409.008 352.557 408.592 352.632ZM242.631 373V361.224H243.927V373H242.631ZM250.012 373.144C248.753 373.144 247.761 372.781 247.036 372.056C246.31 371.32 245.948 370.301 245.948 369C245.948 368.157 246.108 367.427 246.428 366.808C246.748 366.179 247.196 365.693 247.772 365.352C248.348 365 249.009 364.824 249.756 364.824C250.492 364.824 251.11 364.979 251.612 365.288C252.113 365.597 252.497 366.04 252.764 366.616C253.03 367.181 253.164 367.853 253.164 368.632V369.112H246.94V368.296H252.316L252.044 368.504C252.044 367.651 251.852 366.984 251.468 366.504C251.084 366.024 250.513 365.784 249.756 365.784C248.956 365.784 248.332 366.067 247.884 366.632C247.436 367.187 247.212 367.939 247.212 368.888V369.032C247.212 370.035 247.457 370.797 247.948 371.32C248.449 371.832 249.148 372.088 250.044 372.088C250.524 372.088 250.972 372.019 251.388 371.88C251.814 371.731 252.22 371.491 252.604 371.16L253.052 372.072C252.7 372.413 252.252 372.68 251.708 372.872C251.174 373.053 250.609 373.144 250.012 373.144ZM257.421 373L253.981 364.968H255.389L258.269 372.04H257.837L260.749 364.968H262.093L258.653 373H257.421ZM267.012 373.144C265.753 373.144 264.761 372.781 264.036 372.056C263.31 371.32 262.948 370.301 262.948 369C262.948 368.157 263.108 367.427 263.428 366.808C263.748 366.179 264.196 365.693 264.772 365.352C265.348 365 266.009 364.824 266.756 364.824C267.492 364.824 268.11 364.979 268.612 365.288C269.113 365.597 269.497 366.04 269.764 366.616C270.03 367.181 270.164 367.853 270.164 368.632V369.112H263.94V368.296H269.316L269.044 368.504C269.044 367.651 268.852 366.984 268.468 366.504C268.084 366.024 267.513 365.784 266.756 365.784C265.956 365.784 265.332 366.067 264.884 366.632C264.436 367.187 264.212 367.939 264.212 368.888V369.032C264.212 370.035 264.457 370.797 264.948 371.32C265.449 371.832 266.148 372.088 267.044 372.088C267.524 372.088 267.972 372.019 268.388 371.88C268.814 371.731 269.22 371.491 269.604 371.16L270.052 372.072C269.7 372.413 269.252 372.68 268.708 372.872C268.174 373.053 267.609 373.144 267.012 373.144ZM272.147 373V361.224H273.443V373H272.147ZM278.631 373.144C277.991 373.144 277.394 373.059 276.839 372.888C276.285 372.707 275.826 372.456 275.463 372.136L275.911 371.224C276.306 371.533 276.733 371.763 277.191 371.912C277.661 372.061 278.146 372.136 278.647 372.136C279.287 372.136 279.767 372.024 280.087 371.8C280.418 371.565 280.583 371.245 280.583 370.84C280.583 370.531 280.477 370.285 280.263 370.104C280.061 369.912 279.725 369.763 279.255 369.656L277.767 369.352C277.085 369.203 276.573 368.952 276.231 368.6C275.89 368.237 275.719 367.779 275.719 367.224C275.719 366.755 275.842 366.344 276.087 365.992C276.333 365.629 276.69 365.347 277.159 365.144C277.629 364.931 278.178 364.824 278.807 364.824C279.394 364.824 279.933 364.915 280.423 365.096C280.925 365.267 281.341 365.517 281.671 365.848L281.207 366.744C280.887 366.435 280.519 366.205 280.103 366.056C279.698 365.896 279.277 365.816 278.839 365.816C278.21 365.816 277.735 365.944 277.415 366.2C277.106 366.445 276.951 366.771 276.951 367.176C276.951 367.485 277.047 367.741 277.239 367.944C277.442 368.136 277.751 368.28 278.167 368.376L279.655 368.68C280.381 368.84 280.919 369.091 281.271 369.432C281.634 369.763 281.815 370.211 281.815 370.776C281.815 371.256 281.682 371.677 281.415 372.04C281.149 372.392 280.775 372.664 280.295 372.856C279.826 373.048 279.271 373.144 278.631 373.144Z" fill="#2D2D2D"/>
</g>
<defs>
<filter id="filter0_d_2270_1228" x="0.514149" y="0.286028" width="591.68" height="629.68" filterUnits="userSpaceOnUse" color-interpolation-filters="sRGB">
<feFlood flood-opacity="0" result="BackgroundImageFix"/>
<feColorMatrix in="SourceAlpha" type="matrix" values="0 0 0 0 0 0 0 0 0 0 0 0 0 0 0 0 0 0 127 0" result="hardAlpha"/>
<feOffset dx="34.8541" dy="29.626"/>
<feGaussianBlur stdDeviation="24.17"/>
<feComposite in2="hardAlpha" operator="out"/>
<feColorMatrix type="matrix" values="0 0 0 0 0.2 0 0 0 0 0.4 0 0 0 0 1 0 0 0 0.05 0"/>
<feBlend mode="normal" in2="BackgroundImageFix" result="effect1_dropShadow_2270_1228"/>
<feBlend mode="normal" in="SourceGraphic" in2="effect1_dropShadow_2270_1228" result="shape"/>
</filter>
</defs>
</svg>
