<svg width="593" height="626" viewBox="0 0 593 626" fill="none" xmlns="http://www.w3.org/2000/svg">
<g filter="url(#filter0_d_2268_876)">
<rect x="14" y="19.4536" width="495" height="528.546" rx="20" fill="#FAF3DD" shape-rendering="crispEdges"/>
<rect x="14.5" y="19.9536" width="494" height="527.546" rx="19.5" stroke="#E5F4F2" shape-rendering="crispEdges"/>
<path d="M216 121.454C216 102.597 216 93.1693 221.858 87.3115C227.716 81.4536 237.144 81.4536 256 81.4536H258C276.856 81.4536 286.284 81.4536 292.142 87.3115C298 93.1693 298 102.597 298 121.454V123.454C298 142.31 298 151.738 292.142 157.596C286.284 163.454 276.856 163.454 258 163.454H256C237.144 163.454 227.716 163.454 221.858 157.596C216 151.738 216 142.31 216 123.454V121.454Z" fill="#FF6250" fill-opacity="0.2"/>
<path opacity="0.2" d="M247.436 137.268C247.313 137.392 247.168 137.491 247.007 137.558C246.847 137.625 246.674 137.66 246.5 137.66C246.326 137.66 246.154 137.625 245.993 137.558C245.833 137.491 245.687 137.392 245.565 137.268L242.186 133.889C242.061 133.767 241.963 133.621 241.896 133.461C241.829 133.3 241.794 133.128 241.794 132.954C241.794 132.78 241.829 132.607 241.896 132.447C241.963 132.286 242.061 132.141 242.186 132.018L259.625 114.579L264.875 119.829L247.436 137.268Z" fill="#FF6250"/>
<path d="M271.438 122.454V130.329" stroke="#FF6250" stroke-width="2.375" stroke-linecap="round" stroke-linejoin="round"/>
<path d="M267.5 126.391H275.375" stroke="#FF6250" stroke-width="2.375" stroke-linecap="round" stroke-linejoin="round"/>
<path d="M249.781 108.016V114.579" stroke="#FF6250" stroke-width="2.375" stroke-linecap="round" stroke-linejoin="round"/>
<path d="M246.5 111.297H253.062" stroke="#FF6250" stroke-width="2.375" stroke-linecap="round" stroke-linejoin="round"/>
<path d="M263.562 131.641V136.891" stroke="#FF6250" stroke-width="2.375" stroke-linecap="round" stroke-linejoin="round"/>
<path d="M260.938 134.266H266.187" stroke="#FF6250" stroke-width="2.375" stroke-linecap="round" stroke-linejoin="round"/>
<path d="M266.585 107.628L242.188 132.025C241.675 132.537 241.675 133.368 242.188 133.881L245.581 137.274C246.094 137.787 246.925 137.787 247.437 137.274L271.834 112.877C272.347 112.365 272.347 111.534 271.834 111.021L268.441 107.628C267.928 107.115 267.097 107.115 266.585 107.628Z" stroke="#FF6250" stroke-width="2.375" stroke-linecap="round" stroke-linejoin="round"/>
<path d="M259.625 114.579L264.875 119.829" stroke="#FF6250" stroke-width="2.375" stroke-linecap="round" stroke-linejoin="round"/>
<path d="M115.151 249.454L110.223 240.75H108.111V249.454H103.631V227.118H112.015C113.743 227.118 115.215 227.427 116.431 228.046C117.647 228.643 118.554 229.464 119.151 230.51C119.77 231.534 120.079 232.686 120.079 233.966C120.079 235.438 119.652 236.771 118.799 237.966C117.946 239.139 116.676 239.95 114.991 240.398L120.335 249.454H115.151ZM108.111 237.39H111.855C113.071 237.39 113.978 237.102 114.575 236.526C115.172 235.928 115.471 235.107 115.471 234.062C115.471 233.038 115.172 232.248 114.575 231.694C113.978 231.118 113.071 230.83 111.855 230.83H108.111V237.39ZM140.291 240.206C140.291 240.846 140.248 241.422 140.163 241.934H127.203C127.31 243.214 127.758 244.216 128.547 244.942C129.336 245.667 130.307 246.03 131.459 246.03C133.123 246.03 134.307 245.315 135.011 243.886H139.843C139.331 245.592 138.35 247 136.899 248.11C135.448 249.198 133.667 249.742 131.555 249.742C129.848 249.742 128.312 249.368 126.947 248.622C125.603 247.854 124.547 246.776 123.779 245.39C123.032 244.003 122.659 242.403 122.659 240.59C122.659 238.755 123.032 237.144 123.779 235.758C124.526 234.371 125.571 233.304 126.915 232.558C128.259 231.811 129.806 231.438 131.555 231.438C133.24 231.438 134.744 231.8 136.067 232.526C137.411 233.251 138.446 234.286 139.171 235.63C139.918 236.952 140.291 238.478 140.291 240.206ZM135.651 238.926C135.63 237.774 135.214 236.856 134.403 236.174C133.592 235.47 132.6 235.118 131.427 235.118C130.318 235.118 129.379 235.459 128.611 236.142C127.864 236.803 127.406 237.731 127.235 238.926H135.651ZM142.089 240.526C142.089 238.734 142.441 237.144 143.145 235.758C143.87 234.371 144.841 233.304 146.057 232.558C147.294 231.811 148.67 231.438 150.185 231.438C151.508 231.438 152.66 231.704 153.641 232.238C154.644 232.771 155.444 233.443 156.041 234.254V231.726H160.553V249.454H156.041V246.862C155.465 247.694 154.665 248.387 153.641 248.942C152.638 249.475 151.476 249.742 150.153 249.742C148.66 249.742 147.294 249.358 146.057 248.59C144.841 247.822 143.87 246.744 143.145 245.358C142.441 243.95 142.089 242.339 142.089 240.526ZM156.041 240.59C156.041 239.502 155.828 238.574 155.401 237.806C154.974 237.016 154.398 236.419 153.673 236.014C152.948 235.587 152.169 235.374 151.337 235.374C150.505 235.374 149.737 235.576 149.033 235.982C148.329 236.387 147.753 236.984 147.305 237.774C146.878 238.542 146.665 239.459 146.665 240.526C146.665 241.592 146.878 242.531 147.305 243.342C147.753 244.131 148.329 244.739 149.033 245.166C149.758 245.592 150.526 245.806 151.337 245.806C152.169 245.806 152.948 245.603 153.673 245.198C154.398 244.771 154.974 244.174 155.401 243.406C155.828 242.616 156.041 241.678 156.041 240.59ZM169.089 225.774V249.454H164.609V225.774H169.089ZM186.827 236.142V239.918H173.259V236.142H186.827ZM206.731 227.118V230.734H200.779V249.454H196.299V230.734H190.347V227.118H206.731ZM211.952 229.614C211.163 229.614 210.501 229.368 209.968 228.878C209.456 228.366 209.2 227.736 209.2 226.99C209.2 226.243 209.456 225.624 209.968 225.134C210.501 224.622 211.163 224.366 211.952 224.366C212.741 224.366 213.392 224.622 213.904 225.134C214.437 225.624 214.704 226.243 214.704 226.99C214.704 227.736 214.437 228.366 213.904 228.878C213.392 229.368 212.741 229.614 211.952 229.614ZM214.16 231.726V249.454H209.68V231.726H214.16ZM240.282 231.47C242.458 231.47 244.207 232.142 245.53 233.486C246.874 234.808 247.546 236.664 247.546 239.054V249.454H243.066V239.662C243.066 238.275 242.714 237.219 242.01 236.494C241.306 235.747 240.346 235.374 239.13 235.374C237.914 235.374 236.943 235.747 236.218 236.494C235.514 237.219 235.162 238.275 235.162 239.662V249.454H230.682V239.662C230.682 238.275 230.33 237.219 229.626 236.494C228.922 235.747 227.962 235.374 226.746 235.374C225.509 235.374 224.527 235.747 223.802 236.494C223.098 237.219 222.746 238.275 222.746 239.662V249.454H218.266V231.726H222.746V233.87C223.322 233.123 224.058 232.536 224.954 232.11C225.871 231.683 226.874 231.47 227.962 231.47C229.349 231.47 230.586 231.768 231.674 232.366C232.762 232.942 233.605 233.774 234.202 234.862C234.778 233.838 235.61 233.016 236.698 232.398C237.807 231.779 239.002 231.47 240.282 231.47ZM267.957 240.206C267.957 240.846 267.915 241.422 267.829 241.934H254.869C254.976 243.214 255.424 244.216 256.213 244.942C257.003 245.667 257.973 246.03 259.125 246.03C260.789 246.03 261.973 245.315 262.677 243.886H267.509C266.997 245.592 266.016 247 264.565 248.11C263.115 249.198 261.333 249.742 259.221 249.742C257.515 249.742 255.979 249.368 254.613 248.622C253.269 247.854 252.213 246.776 251.445 245.39C250.699 244.003 250.325 242.403 250.325 240.59C250.325 238.755 250.699 237.144 251.445 235.758C252.192 234.371 253.237 233.304 254.581 232.558C255.925 231.811 257.472 231.438 259.221 231.438C260.907 231.438 262.411 231.8 263.733 232.526C265.077 233.251 266.112 234.286 266.837 235.63C267.584 236.952 267.957 238.478 267.957 240.206ZM263.317 238.926C263.296 237.774 262.88 236.856 262.069 236.174C261.259 235.47 260.267 235.118 259.093 235.118C257.984 235.118 257.045 235.459 256.277 236.142C255.531 236.803 255.072 237.731 254.901 238.926H263.317ZM291.908 245.198H283.012L281.54 249.454H276.836L284.868 227.086H290.084L298.116 249.454H293.38L291.908 245.198ZM290.692 241.614L287.46 232.27L284.228 241.614H290.692ZM310.623 231.47C312.735 231.47 314.441 232.142 315.743 233.486C317.044 234.808 317.695 236.664 317.695 239.054V249.454H313.215V239.662C313.215 238.254 312.863 237.176 312.159 236.43C311.455 235.662 310.495 235.278 309.279 235.278C308.041 235.278 307.06 235.662 306.335 236.43C305.631 237.176 305.279 238.254 305.279 239.662V249.454H300.799V231.726H305.279V233.934C305.876 233.166 306.633 232.568 307.551 232.142C308.489 231.694 309.513 231.47 310.623 231.47ZM320.483 240.526C320.483 238.734 320.835 237.144 321.539 235.758C322.264 234.371 323.235 233.304 324.451 232.558C325.688 231.811 327.064 231.438 328.579 231.438C329.902 231.438 331.054 231.704 332.035 232.238C333.038 232.771 333.838 233.443 334.435 234.254V231.726H338.947V249.454H334.435V246.862C333.859 247.694 333.059 248.387 332.035 248.942C331.032 249.475 329.87 249.742 328.547 249.742C327.054 249.742 325.688 249.358 324.451 248.59C323.235 247.822 322.264 246.744 321.539 245.358C320.835 243.95 320.483 242.339 320.483 240.526ZM334.435 240.59C334.435 239.502 334.222 238.574 333.795 237.806C333.368 237.016 332.792 236.419 332.067 236.014C331.342 235.587 330.563 235.374 329.731 235.374C328.899 235.374 328.131 235.576 327.427 235.982C326.723 236.387 326.147 236.984 325.699 237.774C325.272 238.542 325.059 239.459 325.059 240.526C325.059 241.592 325.272 242.531 325.699 243.342C326.147 244.131 326.723 244.739 327.427 245.166C328.152 245.592 328.92 245.806 329.731 245.806C330.563 245.806 331.342 245.603 332.067 245.198C332.792 244.771 333.368 244.174 333.795 243.406C334.222 242.616 334.435 241.678 334.435 240.59ZM347.482 225.774V249.454H343.002V225.774H347.482ZM368.549 231.726L357.573 257.838H352.805L356.645 249.006L349.541 231.726H354.565L359.141 244.11L363.781 231.726H368.549ZM377.428 249.742C375.977 249.742 374.676 249.486 373.524 248.974C372.372 248.44 371.454 247.726 370.772 246.83C370.11 245.934 369.748 244.942 369.684 243.854H374.196C374.281 244.536 374.612 245.102 375.188 245.55C375.785 245.998 376.521 246.222 377.396 246.222C378.249 246.222 378.91 246.051 379.38 245.71C379.87 245.368 380.116 244.931 380.116 244.398C380.116 243.822 379.817 243.395 379.22 243.118C378.644 242.819 377.716 242.499 376.436 242.158C375.113 241.838 374.025 241.507 373.172 241.166C372.34 240.824 371.614 240.302 370.996 239.598C370.398 238.894 370.1 237.944 370.1 236.75C370.1 235.768 370.377 234.872 370.932 234.062C371.508 233.251 372.318 232.611 373.364 232.142C374.43 231.672 375.678 231.438 377.108 231.438C379.22 231.438 380.905 231.971 382.164 233.038C383.422 234.083 384.116 235.502 384.244 237.294H379.956C379.892 236.59 379.593 236.035 379.06 235.63C378.548 235.203 377.854 234.99 376.98 234.99C376.169 234.99 375.54 235.139 375.092 235.438C374.665 235.736 374.452 236.152 374.452 236.686C374.452 237.283 374.75 237.742 375.348 238.062C375.945 238.36 376.873 238.67 378.132 238.99C379.412 239.31 380.468 239.64 381.3 239.982C382.132 240.323 382.846 240.856 383.444 241.582C384.062 242.286 384.382 243.224 384.404 244.398C384.404 245.422 384.116 246.339 383.54 247.15C382.985 247.96 382.174 248.6 381.108 249.07C380.062 249.518 378.836 249.742 377.428 249.742ZM390.033 229.614C389.244 229.614 388.582 229.368 388.049 228.878C387.537 228.366 387.281 227.736 387.281 226.99C387.281 226.243 387.537 225.624 388.049 225.134C388.582 224.622 389.244 224.366 390.033 224.366C390.822 224.366 391.473 224.622 391.985 225.134C392.518 225.624 392.785 226.243 392.785 226.99C392.785 227.736 392.518 228.366 391.985 228.878C391.473 229.368 390.822 229.614 390.033 229.614ZM392.241 231.726V249.454H387.761V231.726H392.241ZM403.131 249.742C401.681 249.742 400.379 249.486 399.227 248.974C398.075 248.44 397.158 247.726 396.475 246.83C395.814 245.934 395.451 244.942 395.387 243.854H399.899C399.985 244.536 400.315 245.102 400.891 245.55C401.489 245.998 402.225 246.222 403.099 246.222C403.953 246.222 404.614 246.051 405.083 245.71C405.574 245.368 405.819 244.931 405.819 244.398C405.819 243.822 405.521 243.395 404.923 243.118C404.347 242.819 403.419 242.499 402.139 242.158C400.817 241.838 399.729 241.507 398.875 241.166C398.043 240.824 397.318 240.302 396.699 239.598C396.102 238.894 395.803 237.944 395.803 236.75C395.803 235.768 396.081 234.872 396.635 234.062C397.211 233.251 398.022 232.611 399.067 232.142C400.134 231.672 401.382 231.438 402.811 231.438C404.923 231.438 406.609 231.971 407.867 233.038C409.126 234.083 409.819 235.502 409.947 237.294H405.659C405.595 236.59 405.297 236.035 404.763 235.63C404.251 235.203 403.558 234.99 402.683 234.99C401.873 234.99 401.243 235.139 400.795 235.438C400.369 235.736 400.155 236.152 400.155 236.686C400.155 237.283 400.454 237.742 401.051 238.062C401.649 238.36 402.577 238.67 403.835 238.99C405.115 239.31 406.171 239.64 407.003 239.982C407.835 240.323 408.55 240.856 409.147 241.582C409.766 242.286 410.086 243.224 410.107 244.398C410.107 245.422 409.819 246.339 409.243 247.15C408.689 247.96 407.878 248.6 406.811 249.07C405.766 249.518 404.539 249.742 403.131 249.742Z" fill="#2D2D2D"/>
<path d="M162.334 325.598C161.097 325.598 160.062 325.368 159.23 324.91C158.398 324.451 157.774 323.79 157.358 322.926C156.942 322.062 156.734 321.027 156.734 319.822C156.734 318.627 156.953 317.598 157.39 316.734C157.828 315.87 158.457 315.203 159.278 314.734C160.1 314.264 161.092 314.03 162.254 314.03C163.076 314.03 163.785 314.152 164.382 314.398C164.99 314.632 165.534 314.984 166.014 315.454L165.518 316.494C165.166 316.184 164.825 315.939 164.494 315.758C164.174 315.576 163.838 315.443 163.486 315.358C163.134 315.262 162.724 315.214 162.254 315.214C160.921 315.214 159.897 315.619 159.182 316.43C158.478 317.23 158.126 318.366 158.126 319.838C158.126 321.32 158.468 322.456 159.15 323.246C159.844 324.035 160.916 324.43 162.366 324.43C162.9 324.43 163.406 324.382 163.886 324.286C164.377 324.179 164.852 324.03 165.31 323.838L165.022 324.558V320.59H162.142V319.55H166.158V324.782C165.7 325.027 165.118 325.224 164.414 325.374C163.721 325.523 163.028 325.598 162.334 325.598ZM172.277 325.598C171.019 325.598 170.027 325.235 169.301 324.51C168.576 323.774 168.213 322.755 168.213 321.454C168.213 320.611 168.373 319.88 168.693 319.262C169.013 318.632 169.461 318.147 170.037 317.806C170.613 317.454 171.275 317.278 172.021 317.278C172.757 317.278 173.376 317.432 173.877 317.742C174.379 318.051 174.763 318.494 175.029 319.07C175.296 319.635 175.429 320.307 175.429 321.086V321.566H169.205V320.75H174.581L174.309 320.958C174.309 320.104 174.117 319.438 173.733 318.958C173.349 318.478 172.779 318.238 172.021 318.238C171.221 318.238 170.597 318.52 170.149 319.086C169.701 319.64 169.477 320.392 169.477 321.342V321.486C169.477 322.488 169.723 323.251 170.213 323.774C170.715 324.286 171.413 324.542 172.309 324.542C172.789 324.542 173.237 324.472 173.653 324.334C174.08 324.184 174.485 323.944 174.869 323.614L175.317 324.526C174.965 324.867 174.517 325.134 173.973 325.326C173.44 325.507 172.875 325.598 172.277 325.598ZM180.26 325.598C179.471 325.598 178.868 325.374 178.452 324.926C178.036 324.467 177.828 323.779 177.828 322.862V318.43H176.26V317.422H177.828V315.23L179.124 314.862V317.422H181.428V318.43H179.124V322.718C179.124 323.358 179.231 323.816 179.444 324.094C179.668 324.36 179.999 324.494 180.436 324.494C180.639 324.494 180.82 324.478 180.98 324.446C181.14 324.403 181.284 324.355 181.412 324.302V325.39C181.263 325.454 181.082 325.502 180.868 325.534C180.666 325.576 180.463 325.598 180.26 325.598ZM187.178 325.454V317.422H188.474V325.454H187.178ZM187.018 315.598V314.142H188.618V315.598H187.018ZM190.991 325.454V319.278C190.991 318.979 190.975 318.675 190.943 318.366C190.921 318.046 190.895 317.731 190.863 317.422H192.111L192.271 319.182H192.079C192.313 318.563 192.687 318.094 193.199 317.774C193.721 317.443 194.324 317.278 195.007 317.278C195.956 317.278 196.671 317.534 197.151 318.046C197.641 318.547 197.887 319.342 197.887 320.43V325.454H196.591V320.51C196.591 319.752 196.436 319.203 196.127 318.862C195.828 318.51 195.359 318.334 194.719 318.334C193.972 318.334 193.38 318.563 192.943 319.022C192.505 319.48 192.287 320.094 192.287 320.862V325.454H190.991ZM203.038 325.598C202.398 325.598 201.8 325.512 201.246 325.342C200.691 325.16 200.232 324.91 199.87 324.59L200.318 323.678C200.712 323.987 201.139 324.216 201.598 324.366C202.067 324.515 202.552 324.59 203.054 324.59C203.694 324.59 204.174 324.478 204.494 324.254C204.824 324.019 204.99 323.699 204.99 323.294C204.99 322.984 204.883 322.739 204.67 322.558C204.467 322.366 204.131 322.216 203.662 322.11L202.174 321.806C201.491 321.656 200.979 321.406 200.638 321.054C200.296 320.691 200.126 320.232 200.126 319.678C200.126 319.208 200.248 318.798 200.494 318.446C200.739 318.083 201.096 317.8 201.566 317.598C202.035 317.384 202.584 317.278 203.214 317.278C203.8 317.278 204.339 317.368 204.83 317.55C205.331 317.72 205.747 317.971 206.078 318.302L205.614 319.198C205.294 318.888 204.926 318.659 204.51 318.51C204.104 318.35 203.683 318.27 203.246 318.27C202.616 318.27 202.142 318.398 201.822 318.654C201.512 318.899 201.358 319.224 201.358 319.63C201.358 319.939 201.454 320.195 201.646 320.398C201.848 320.59 202.158 320.734 202.574 320.83L204.062 321.134C204.787 321.294 205.326 321.544 205.678 321.886C206.04 322.216 206.222 322.664 206.222 323.23C206.222 323.71 206.088 324.131 205.822 324.494C205.555 324.846 205.182 325.118 204.702 325.31C204.232 325.502 203.678 325.598 203.038 325.598ZM211.073 325.598C210.284 325.598 209.681 325.374 209.265 324.926C208.849 324.467 208.641 323.779 208.641 322.862V318.43H207.073V317.422H208.641V315.23L209.937 314.862V317.422H212.241V318.43H209.937V322.718C209.937 323.358 210.044 323.816 210.257 324.094C210.481 324.36 210.812 324.494 211.249 324.494C211.452 324.494 211.633 324.478 211.793 324.446C211.953 324.403 212.097 324.355 212.225 324.302V325.39C212.076 325.454 211.894 325.502 211.681 325.534C211.478 325.576 211.276 325.598 211.073 325.598ZM216.875 325.598C216.16 325.598 215.536 325.432 215.003 325.102C214.469 324.76 214.053 324.28 213.755 323.662C213.467 323.043 213.323 322.302 213.323 321.438C213.323 320.563 213.467 319.816 213.755 319.198C214.053 318.579 214.469 318.104 215.003 317.774C215.536 317.443 216.16 317.278 216.875 317.278C217.6 317.278 218.224 317.464 218.747 317.838C219.28 318.2 219.632 318.696 219.803 319.326H219.611L219.787 317.422H221.035C221.003 317.731 220.971 318.046 220.939 318.366C220.917 318.675 220.907 318.979 220.907 319.278V325.454H219.611V323.566H219.787C219.616 324.195 219.264 324.691 218.731 325.054C218.197 325.416 217.579 325.598 216.875 325.598ZM217.131 324.542C217.899 324.542 218.507 324.28 218.955 323.758C219.403 323.224 219.627 322.451 219.627 321.438C219.627 320.414 219.403 319.64 218.955 319.118C218.507 318.584 217.899 318.318 217.131 318.318C216.373 318.318 215.765 318.584 215.307 319.118C214.859 319.64 214.635 320.414 214.635 321.438C214.635 322.451 214.859 323.224 215.307 323.758C215.765 324.28 216.373 324.542 217.131 324.542ZM223.412 325.454V319.278C223.412 318.979 223.396 318.675 223.364 318.366C223.343 318.046 223.316 317.731 223.284 317.422H224.532L224.692 319.182H224.5C224.735 318.563 225.108 318.094 225.62 317.774C226.143 317.443 226.746 317.278 227.428 317.278C228.378 317.278 229.092 317.534 229.572 318.046C230.063 318.547 230.308 319.342 230.308 320.43V325.454H229.012V320.51C229.012 319.752 228.858 319.203 228.548 318.862C228.25 318.51 227.78 318.334 227.14 318.334C226.394 318.334 225.802 318.563 225.364 319.022C224.927 319.48 224.708 320.094 224.708 320.862V325.454H223.412ZM235.635 325.598C234.846 325.598 234.243 325.374 233.827 324.926C233.411 324.467 233.203 323.779 233.203 322.862V318.43H231.635V317.422H233.203V315.23L234.499 314.862V317.422H236.803V318.43H234.499V322.718C234.499 323.358 234.606 323.816 234.819 324.094C235.043 324.36 235.374 324.494 235.811 324.494C236.014 324.494 236.195 324.478 236.355 324.446C236.515 324.403 236.659 324.355 236.787 324.302V325.39C236.638 325.454 236.457 325.502 236.243 325.534C236.041 325.576 235.838 325.598 235.635 325.598ZM242.969 325.454V318.43H241.401V317.422H243.321L242.969 317.758V316.414C242.969 315.507 243.198 314.814 243.657 314.334C244.116 313.854 244.772 313.614 245.625 313.614C245.838 313.614 246.057 313.635 246.281 313.678C246.516 313.71 246.708 313.758 246.857 313.822V314.894C246.729 314.84 246.569 314.798 246.377 314.766C246.196 314.723 246.009 314.702 245.817 314.702C245.486 314.702 245.204 314.771 244.969 314.91C244.734 315.038 244.558 315.235 244.441 315.502C244.324 315.768 244.265 316.11 244.265 316.526V317.694L244.057 317.422H246.505V318.43H244.265V325.454H242.969ZM251.309 325.598C250.05 325.598 249.058 325.235 248.333 324.51C247.607 323.774 247.245 322.755 247.245 321.454C247.245 320.611 247.405 319.88 247.725 319.262C248.045 318.632 248.493 318.147 249.069 317.806C249.645 317.454 250.306 317.278 251.053 317.278C251.789 317.278 252.407 317.432 252.909 317.742C253.41 318.051 253.794 318.494 254.061 319.07C254.327 319.635 254.461 320.307 254.461 321.086V321.566H248.237V320.75H253.613L253.341 320.958C253.341 320.104 253.149 319.438 252.765 318.958C252.381 318.478 251.81 318.238 251.053 318.238C250.253 318.238 249.629 318.52 249.181 319.086C248.733 319.64 248.509 320.392 248.509 321.342V321.486C248.509 322.488 248.754 323.251 249.245 323.774C249.746 324.286 250.445 324.542 251.341 324.542C251.821 324.542 252.269 324.472 252.685 324.334C253.111 324.184 253.517 323.944 253.901 323.614L254.349 324.526C253.997 324.867 253.549 325.134 253.005 325.326C252.471 325.507 251.906 325.598 251.309 325.598ZM260.012 325.598C258.753 325.598 257.761 325.235 257.036 324.51C256.31 323.774 255.948 322.755 255.948 321.454C255.948 320.611 256.108 319.88 256.428 319.262C256.748 318.632 257.196 318.147 257.772 317.806C258.348 317.454 259.009 317.278 259.756 317.278C260.492 317.278 261.11 317.432 261.612 317.742C262.113 318.051 262.497 318.494 262.764 319.07C263.03 319.635 263.164 320.307 263.164 321.086V321.566H256.94V320.75H262.316L262.044 320.958C262.044 320.104 261.852 319.438 261.468 318.958C261.084 318.478 260.513 318.238 259.756 318.238C258.956 318.238 258.332 318.52 257.884 319.086C257.436 319.64 257.212 320.392 257.212 321.342V321.486C257.212 322.488 257.457 323.251 257.948 323.774C258.449 324.286 259.148 324.542 260.044 324.542C260.524 324.542 260.972 324.472 261.388 324.334C261.814 324.184 262.22 323.944 262.604 323.614L263.052 324.526C262.7 324.867 262.252 325.134 261.708 325.326C261.174 325.507 260.609 325.598 260.012 325.598ZM268.187 325.598C267.483 325.598 266.864 325.432 266.331 325.102C265.797 324.76 265.381 324.28 265.083 323.662C264.795 323.043 264.651 322.302 264.651 321.438C264.651 320.563 264.795 319.816 265.083 319.198C265.381 318.579 265.797 318.104 266.331 317.774C266.864 317.443 267.483 317.278 268.187 317.278C268.912 317.278 269.536 317.459 270.059 317.822C270.592 318.184 270.949 318.675 271.131 319.294H270.939V313.678H272.235V325.454H270.955V323.534H271.131C270.96 324.174 270.608 324.68 270.075 325.054C269.541 325.416 268.912 325.598 268.187 325.598ZM268.459 324.542C269.216 324.542 269.824 324.28 270.283 323.758C270.741 323.224 270.971 322.451 270.971 321.438C270.971 320.414 270.741 319.64 270.283 319.118C269.824 318.584 269.216 318.318 268.459 318.318C267.701 318.318 267.093 318.584 266.635 319.118C266.187 319.64 265.963 320.414 265.963 321.438C265.963 322.451 266.187 323.224 266.635 323.758C267.093 324.28 267.701 324.542 268.459 324.542ZM278.773 325.598C278.047 325.598 277.423 325.416 276.901 325.054C276.378 324.68 276.026 324.174 275.845 323.534H276.021V325.454H274.741V313.678H276.037V319.294H275.845C276.026 318.675 276.378 318.184 276.901 317.822C277.423 317.459 278.047 317.278 278.773 317.278C279.498 317.278 280.122 317.448 280.645 317.79C281.178 318.12 281.589 318.595 281.877 319.214C282.175 319.832 282.325 320.574 282.325 321.438C282.325 322.302 282.175 323.043 281.877 323.662C281.578 324.28 281.162 324.76 280.629 325.102C280.106 325.432 279.487 325.598 278.773 325.598ZM278.501 324.542C279.258 324.542 279.866 324.28 280.325 323.758C280.783 323.235 281.013 322.462 281.013 321.438C281.013 320.414 280.783 319.64 280.325 319.118C279.866 318.584 279.258 318.318 278.501 318.318C277.743 318.318 277.135 318.584 276.677 319.118C276.229 319.64 276.005 320.414 276.005 321.438C276.005 322.451 276.229 323.224 276.677 323.758C277.135 324.28 277.743 324.542 278.501 324.542ZM287.39 325.598C286.676 325.598 286.052 325.432 285.518 325.102C284.985 324.76 284.569 324.28 284.27 323.662C283.982 323.043 283.838 322.302 283.838 321.438C283.838 320.563 283.982 319.816 284.27 319.198C284.569 318.579 284.985 318.104 285.518 317.774C286.052 317.443 286.676 317.278 287.39 317.278C288.116 317.278 288.74 317.464 289.262 317.838C289.796 318.2 290.148 318.696 290.318 319.326H290.126L290.302 317.422H291.55C291.518 317.731 291.486 318.046 291.454 318.366C291.433 318.675 291.422 318.979 291.422 319.278V325.454H290.126V323.566H290.302C290.132 324.195 289.78 324.691 289.246 325.054C288.713 325.416 288.094 325.598 287.39 325.598ZM287.646 324.542C288.414 324.542 289.022 324.28 289.47 323.758C289.918 323.224 290.142 322.451 290.142 321.438C290.142 320.414 289.918 319.64 289.47 319.118C289.022 318.584 288.414 318.318 287.646 318.318C286.889 318.318 286.281 318.584 285.822 319.118C285.374 319.64 285.15 320.414 285.15 321.438C285.15 322.451 285.374 323.224 285.822 323.758C286.281 324.28 286.889 324.542 287.646 324.542ZM297.304 325.598C296.515 325.598 295.827 325.427 295.24 325.086C294.664 324.744 294.216 324.259 293.896 323.63C293.587 323 293.432 322.254 293.432 321.39C293.432 320.515 293.592 319.774 293.912 319.166C294.232 318.547 294.68 318.078 295.256 317.758C295.843 317.438 296.525 317.278 297.304 317.278C297.816 317.278 298.312 317.368 298.792 317.55C299.283 317.731 299.688 317.987 300.008 318.318L299.544 319.246C299.224 318.936 298.872 318.707 298.488 318.558C298.115 318.408 297.747 318.334 297.384 318.334C296.552 318.334 295.907 318.595 295.448 319.118C294.989 319.64 294.76 320.403 294.76 321.406C294.76 322.398 294.989 323.166 295.448 323.71C295.907 324.254 296.552 324.526 297.384 324.526C297.736 324.526 298.099 324.456 298.472 324.318C298.856 324.179 299.213 323.95 299.544 323.63L300.008 324.542C299.677 324.883 299.267 325.144 298.776 325.326C298.285 325.507 297.795 325.598 297.304 325.598ZM301.85 325.454V313.678H303.146V320.99H303.178L306.906 317.422H308.538L304.138 321.614L304.17 320.958L308.954 325.454H307.274L303.178 321.678H303.146V325.454H301.85ZM317.552 325.598C316.784 325.598 316.112 325.432 315.536 325.102C314.971 324.76 314.534 324.28 314.224 323.662C313.915 323.032 313.76 322.291 313.76 321.438C313.76 320.574 313.915 319.832 314.224 319.214C314.534 318.595 314.971 318.12 315.536 317.79C316.112 317.448 316.784 317.278 317.552 317.278C318.331 317.278 319.003 317.448 319.568 317.79C320.144 318.12 320.587 318.595 320.896 319.214C321.216 319.832 321.376 320.574 321.376 321.438C321.376 322.291 321.216 323.032 320.896 323.662C320.587 324.28 320.144 324.76 319.568 325.102C319.003 325.432 318.331 325.598 317.552 325.598ZM317.552 324.542C318.32 324.542 318.928 324.28 319.376 323.758C319.824 323.224 320.048 322.451 320.048 321.438C320.048 320.414 319.819 319.64 319.36 319.118C318.912 318.584 318.31 318.318 317.552 318.318C316.795 318.318 316.192 318.584 315.744 319.118C315.296 319.64 315.072 320.414 315.072 321.438C315.072 322.451 315.296 323.224 315.744 323.758C316.192 324.28 316.795 324.542 317.552 324.542ZM323.397 325.454V319.278C323.397 318.979 323.381 318.675 323.349 318.366C323.327 318.046 323.301 317.731 323.269 317.422H324.517L324.677 319.182H324.485C324.719 318.563 325.093 318.094 325.605 317.774C326.127 317.443 326.73 317.278 327.413 317.278C328.362 317.278 329.077 317.534 329.557 318.046C330.047 318.547 330.293 319.342 330.293 320.43V325.454H328.997V320.51C328.997 319.752 328.842 319.203 328.533 318.862C328.234 318.51 327.765 318.334 327.125 318.334C326.378 318.334 325.786 318.563 325.349 319.022C324.911 319.48 324.693 320.094 324.693 320.862V325.454H323.397ZM336.624 329.086L336.32 328.014C336.821 327.896 337.237 327.758 337.568 327.598C337.909 327.448 338.192 327.246 338.416 326.99C338.64 326.734 338.832 326.414 338.992 326.03L339.408 325.086L339.376 325.63L335.872 317.422H337.28L340.176 324.478H339.76L342.624 317.422H343.984L340.272 326.126C340.058 326.638 339.824 327.064 339.568 327.406C339.312 327.758 339.034 328.04 338.736 328.254C338.448 328.478 338.128 328.654 337.776 328.782C337.424 328.91 337.04 329.011 336.624 329.086ZM348.63 325.598C347.862 325.598 347.19 325.432 346.614 325.102C346.049 324.76 345.612 324.28 345.302 323.662C344.993 323.032 344.838 322.291 344.838 321.438C344.838 320.574 344.993 319.832 345.302 319.214C345.612 318.595 346.049 318.12 346.614 317.79C347.19 317.448 347.862 317.278 348.63 317.278C349.409 317.278 350.081 317.448 350.646 317.79C351.222 318.12 351.665 318.595 351.974 319.214C352.294 319.832 352.454 320.574 352.454 321.438C352.454 322.291 352.294 323.032 351.974 323.662C351.665 324.28 351.222 324.76 350.646 325.102C350.081 325.432 349.409 325.598 348.63 325.598ZM348.63 324.542C349.398 324.542 350.006 324.28 350.454 323.758C350.902 323.224 351.126 322.451 351.126 321.438C351.126 320.414 350.897 319.64 350.438 319.118C349.99 318.584 349.388 318.318 348.63 318.318C347.873 318.318 347.27 318.584 346.822 319.118C346.374 319.64 346.15 320.414 346.15 321.438C346.15 322.451 346.374 323.224 346.822 323.758C347.27 324.28 347.873 324.542 348.63 324.542ZM357.307 325.598C356.358 325.598 355.638 325.336 355.147 324.814C354.667 324.291 354.427 323.491 354.427 322.414V317.422H355.723V322.382C355.723 323.118 355.872 323.662 356.171 324.014C356.47 324.355 356.934 324.526 357.563 324.526C358.267 324.526 358.832 324.296 359.259 323.838C359.686 323.379 359.899 322.766 359.899 321.998V317.422H361.195V325.454H359.931V323.646H360.139C359.915 324.264 359.552 324.744 359.051 325.086C358.56 325.427 357.979 325.598 357.307 325.598ZM363.677 325.454V319.358C363.677 319.038 363.667 318.712 363.645 318.382C363.635 318.051 363.613 317.731 363.581 317.422H364.829L364.989 319.374L364.765 319.39C364.872 318.91 365.059 318.515 365.325 318.206C365.592 317.896 365.907 317.667 366.269 317.518C366.632 317.358 367.011 317.278 367.405 317.278C367.565 317.278 367.704 317.283 367.821 317.294C367.949 317.304 368.067 317.331 368.173 317.374L368.157 318.526C367.997 318.472 367.848 318.44 367.709 318.43C367.581 318.408 367.432 318.398 367.261 318.398C366.792 318.398 366.381 318.51 366.029 318.734C365.688 318.958 365.427 319.246 365.245 319.598C365.075 319.95 364.989 320.323 364.989 320.718V325.454H363.677ZM122.037 352.91V343.278C122.037 342.979 122.021 342.675 121.989 342.366C121.968 342.046 121.941 341.731 121.909 341.422H123.157L123.333 343.326H123.141C123.312 342.696 123.659 342.2 124.181 341.838C124.704 341.464 125.328 341.278 126.053 341.278C126.779 341.278 127.403 341.443 127.925 341.774C128.459 342.104 128.875 342.579 129.173 343.198C129.472 343.816 129.621 344.563 129.621 345.438C129.621 346.302 129.472 347.043 129.173 347.662C128.885 348.28 128.475 348.76 127.941 349.102C127.408 349.432 126.779 349.598 126.053 349.598C125.339 349.598 124.72 349.416 124.197 349.054C123.675 348.691 123.328 348.195 123.157 347.566H123.333V352.91H122.037ZM125.797 348.542C126.565 348.542 127.173 348.28 127.621 347.758C128.08 347.224 128.309 346.451 128.309 345.438C128.309 344.414 128.08 343.64 127.621 343.118C127.173 342.584 126.565 342.318 125.797 342.318C125.04 342.318 124.432 342.584 123.973 343.118C123.525 343.64 123.301 344.414 123.301 345.438C123.301 346.451 123.525 347.224 123.973 347.758C124.432 348.28 125.04 348.542 125.797 348.542ZM135.199 349.598C133.941 349.598 132.949 349.235 132.223 348.51C131.498 347.774 131.135 346.755 131.135 345.454C131.135 344.611 131.295 343.88 131.615 343.262C131.935 342.632 132.383 342.147 132.959 341.806C133.535 341.454 134.197 341.278 134.943 341.278C135.679 341.278 136.298 341.432 136.799 341.742C137.301 342.051 137.685 342.494 137.951 343.07C138.218 343.635 138.351 344.307 138.351 345.086V345.566H132.127V344.75H137.503L137.231 344.958C137.231 344.104 137.039 343.438 136.655 342.958C136.271 342.478 135.701 342.238 134.943 342.238C134.143 342.238 133.519 342.52 133.071 343.086C132.623 343.64 132.399 344.392 132.399 345.342V345.486C132.399 346.488 132.645 347.251 133.135 347.774C133.637 348.286 134.335 348.542 135.231 348.542C135.711 348.542 136.159 348.472 136.575 348.334C137.002 348.184 137.407 347.944 137.791 347.614L138.239 348.526C137.887 348.867 137.439 349.134 136.895 349.326C136.362 349.507 135.797 349.598 135.199 349.598ZM140.302 349.454V343.358C140.302 343.038 140.292 342.712 140.27 342.382C140.26 342.051 140.238 341.731 140.206 341.422H141.454L141.614 343.374L141.39 343.39C141.497 342.91 141.684 342.515 141.95 342.206C142.217 341.896 142.532 341.667 142.894 341.518C143.257 341.358 143.636 341.278 144.03 341.278C144.19 341.278 144.329 341.283 144.446 341.294C144.574 341.304 144.692 341.331 144.798 341.374L144.782 342.526C144.622 342.472 144.473 342.44 144.334 342.43C144.206 342.408 144.057 342.398 143.886 342.398C143.417 342.398 143.006 342.51 142.654 342.734C142.313 342.958 142.052 343.246 141.87 343.598C141.7 343.95 141.614 344.323 141.614 344.718V349.454H140.302ZM146.985 349.454V342.43H145.417V341.422H147.337L146.985 341.758V340.414C146.985 339.507 147.214 338.814 147.673 338.334C148.131 337.854 148.787 337.614 149.641 337.614C149.854 337.614 150.073 337.635 150.297 337.678C150.531 337.71 150.723 337.758 150.873 337.822V338.894C150.745 338.84 150.585 338.798 150.393 338.766C150.211 338.723 150.025 338.702 149.833 338.702C149.502 338.702 149.219 338.771 148.985 338.91C148.75 339.038 148.574 339.235 148.457 339.502C148.339 339.768 148.281 340.11 148.281 340.526V341.694L148.073 341.422H150.521V342.43H148.281V349.454H146.985ZM155.052 349.598C154.284 349.598 153.612 349.432 153.036 349.102C152.471 348.76 152.034 348.28 151.724 347.662C151.415 347.032 151.26 346.291 151.26 345.438C151.26 344.574 151.415 343.832 151.724 343.214C152.034 342.595 152.471 342.12 153.036 341.79C153.612 341.448 154.284 341.278 155.052 341.278C155.831 341.278 156.503 341.448 157.068 341.79C157.644 342.12 158.087 342.595 158.396 343.214C158.716 343.832 158.876 344.574 158.876 345.438C158.876 346.291 158.716 347.032 158.396 347.662C158.087 348.28 157.644 348.76 157.068 349.102C156.503 349.432 155.831 349.598 155.052 349.598ZM155.052 348.542C155.82 348.542 156.428 348.28 156.876 347.758C157.324 347.224 157.548 346.451 157.548 345.438C157.548 344.414 157.319 343.64 156.86 343.118C156.412 342.584 155.81 342.318 155.052 342.318C154.295 342.318 153.692 342.584 153.244 343.118C152.796 343.64 152.572 344.414 152.572 345.438C152.572 346.451 152.796 347.224 153.244 347.758C153.692 348.28 154.295 348.542 155.052 348.542ZM160.865 349.454V343.358C160.865 343.038 160.854 342.712 160.833 342.382C160.822 342.051 160.801 341.731 160.769 341.422H162.017L162.177 343.374L161.953 343.39C162.059 342.91 162.246 342.515 162.513 342.206C162.779 341.896 163.094 341.667 163.457 341.518C163.819 341.358 164.198 341.278 164.593 341.278C164.753 341.278 164.891 341.283 165.009 341.294C165.137 341.304 165.254 341.331 165.361 341.374L165.345 342.526C165.185 342.472 165.035 342.44 164.897 342.43C164.769 342.408 164.619 342.398 164.449 342.398C163.979 342.398 163.569 342.51 163.217 342.734C162.875 342.958 162.614 343.246 162.433 343.598C162.262 343.95 162.177 344.323 162.177 344.718V349.454H160.865ZM166.709 349.454V343.278C166.709 342.979 166.693 342.675 166.661 342.366C166.64 342.046 166.613 341.731 166.581 341.422H167.829L167.989 343.182H167.797C168.011 342.574 168.347 342.104 168.805 341.774C169.275 341.443 169.84 341.278 170.501 341.278C171.173 341.278 171.717 341.438 172.133 341.758C172.56 342.078 172.848 342.574 172.997 343.246H172.757C172.96 342.638 173.317 342.158 173.829 341.806C174.341 341.454 174.939 341.278 175.621 341.278C176.507 341.278 177.173 341.534 177.621 342.046C178.069 342.547 178.293 343.342 178.293 344.43V349.454H176.997V344.51C176.997 343.752 176.864 343.203 176.597 342.862C176.331 342.51 175.904 342.334 175.317 342.334C174.645 342.334 174.112 342.568 173.717 343.038C173.333 343.496 173.141 344.115 173.141 344.894V349.454H171.845V344.51C171.845 343.752 171.712 343.203 171.445 342.862C171.179 342.51 170.752 342.334 170.165 342.334C169.493 342.334 168.965 342.568 168.581 343.038C168.197 343.496 168.005 344.115 168.005 344.894V349.454H166.709ZM183.812 349.598C183.098 349.598 182.474 349.432 181.94 349.102C181.407 348.76 180.991 348.28 180.692 347.662C180.404 347.043 180.26 346.302 180.26 345.438C180.26 344.563 180.404 343.816 180.692 343.198C180.991 342.579 181.407 342.104 181.94 341.774C182.474 341.443 183.098 341.278 183.812 341.278C184.538 341.278 185.162 341.464 185.684 341.838C186.218 342.2 186.57 342.696 186.74 343.326H186.548L186.724 341.422H187.972C187.94 341.731 187.908 342.046 187.876 342.366C187.855 342.675 187.844 342.979 187.844 343.278V349.454H186.548V347.566H186.724C186.554 348.195 186.202 348.691 185.668 349.054C185.135 349.416 184.516 349.598 183.812 349.598ZM184.068 348.542C184.836 348.542 185.444 348.28 185.892 347.758C186.34 347.224 186.564 346.451 186.564 345.438C186.564 344.414 186.34 343.64 185.892 343.118C185.444 342.584 184.836 342.318 184.068 342.318C183.311 342.318 182.703 342.584 182.244 343.118C181.796 343.64 181.572 344.414 181.572 345.438C181.572 346.451 181.796 347.224 182.244 347.758C182.703 348.28 183.311 348.542 184.068 348.542ZM190.35 349.454V343.278C190.35 342.979 190.334 342.675 190.302 342.366C190.281 342.046 190.254 341.731 190.222 341.422H191.47L191.63 343.182H191.438C191.673 342.563 192.046 342.094 192.558 341.774C193.081 341.443 193.683 341.278 194.366 341.278C195.315 341.278 196.03 341.534 196.51 342.046C197.001 342.547 197.246 343.342 197.246 344.43V349.454H195.95V344.51C195.95 343.752 195.795 343.203 195.486 342.862C195.187 342.51 194.718 342.334 194.078 342.334C193.331 342.334 192.739 342.563 192.302 343.022C191.865 343.48 191.646 344.094 191.646 344.862V349.454H190.35ZM203.101 349.598C202.312 349.598 201.624 349.427 201.037 349.086C200.461 348.744 200.013 348.259 199.693 347.63C199.384 347 199.229 346.254 199.229 345.39C199.229 344.515 199.389 343.774 199.709 343.166C200.029 342.547 200.477 342.078 201.053 341.758C201.64 341.438 202.322 341.278 203.101 341.278C203.613 341.278 204.109 341.368 204.589 341.55C205.08 341.731 205.485 341.987 205.805 342.318L205.341 343.246C205.021 342.936 204.669 342.707 204.285 342.558C203.912 342.408 203.544 342.334 203.181 342.334C202.349 342.334 201.704 342.595 201.245 343.118C200.786 343.64 200.557 344.403 200.557 345.406C200.557 346.398 200.786 347.166 201.245 347.71C201.704 348.254 202.349 348.526 203.181 348.526C203.533 348.526 203.896 348.456 204.269 348.318C204.653 348.179 205.01 347.95 205.341 347.63L205.805 348.542C205.474 348.883 205.064 349.144 204.573 349.326C204.082 349.507 203.592 349.598 203.101 349.598ZM211.059 349.598C209.8 349.598 208.808 349.235 208.083 348.51C207.357 347.774 206.995 346.755 206.995 345.454C206.995 344.611 207.155 343.88 207.475 343.262C207.795 342.632 208.243 342.147 208.819 341.806C209.395 341.454 210.056 341.278 210.803 341.278C211.539 341.278 212.157 341.432 212.659 341.742C213.16 342.051 213.544 342.494 213.811 343.07C214.077 343.635 214.211 344.307 214.211 345.086V345.566H207.987V344.75H213.363L213.091 344.958C213.091 344.104 212.899 343.438 212.515 342.958C212.131 342.478 211.56 342.238 210.803 342.238C210.003 342.238 209.379 342.52 208.931 343.086C208.483 343.64 208.259 344.392 208.259 345.342V345.486C208.259 346.488 208.504 347.251 208.995 347.774C209.496 348.286 210.195 348.542 211.091 348.542C211.571 348.542 212.019 348.472 212.435 348.334C212.861 348.184 213.267 347.944 213.651 347.614L214.099 348.526C213.747 348.867 213.299 349.134 212.755 349.326C212.221 349.507 211.656 349.598 211.059 349.598ZM216.61 351.278L216.002 350.814C216.29 350.515 216.476 350.232 216.562 349.966C216.658 349.71 216.706 349.448 216.706 349.182L216.994 349.454H215.938V347.822H217.57V348.974C217.57 349.4 217.5 349.8 217.362 350.174C217.223 350.558 216.972 350.926 216.61 351.278ZM224.006 349.454V341.422H225.302V349.454H224.006ZM223.846 339.598V338.142H225.446V339.598H223.846ZM227.819 349.454V343.278C227.819 342.979 227.803 342.675 227.771 342.366C227.749 342.046 227.723 341.731 227.691 341.422H228.939L229.099 343.182H228.907C229.141 342.563 229.515 342.094 230.027 341.774C230.549 341.443 231.152 341.278 231.835 341.278C232.784 341.278 233.499 341.534 233.979 342.046C234.469 342.547 234.715 343.342 234.715 344.43V349.454H233.419V344.51C233.419 343.752 233.264 343.203 232.955 342.862C232.656 342.51 232.187 342.334 231.547 342.334C230.8 342.334 230.208 342.563 229.771 343.022C229.333 343.48 229.115 344.094 229.115 344.862V349.454H227.819ZM240.57 349.598C239.78 349.598 239.092 349.427 238.506 349.086C237.93 348.744 237.482 348.259 237.162 347.63C236.852 347 236.698 346.254 236.698 345.39C236.698 344.515 236.858 343.774 237.178 343.166C237.498 342.547 237.946 342.078 238.522 341.758C239.108 341.438 239.791 341.278 240.57 341.278C241.082 341.278 241.578 341.368 242.058 341.55C242.548 341.731 242.954 341.987 243.274 342.318L242.81 343.246C242.49 342.936 242.138 342.707 241.754 342.558C241.38 342.408 241.012 342.334 240.65 342.334C239.818 342.334 239.172 342.595 238.714 343.118C238.255 343.64 238.026 344.403 238.026 345.406C238.026 346.398 238.255 347.166 238.714 347.71C239.172 348.254 239.818 348.526 240.65 348.526C241.002 348.526 241.364 348.456 241.738 348.318C242.122 348.179 242.479 347.95 242.81 347.63L243.274 348.542C242.943 348.883 242.532 349.144 242.042 349.326C241.551 349.507 241.06 349.598 240.57 349.598ZM245.116 349.454V337.678H246.412V349.454H245.116ZM251.76 349.598C250.811 349.598 250.091 349.336 249.6 348.814C249.12 348.291 248.88 347.491 248.88 346.414V341.422H250.176V346.382C250.176 347.118 250.325 347.662 250.624 348.014C250.923 348.355 251.387 348.526 252.016 348.526C252.72 348.526 253.285 348.296 253.712 347.838C254.139 347.379 254.352 346.766 254.352 345.998V341.422H255.648V349.454H254.384V347.646H254.592C254.368 348.264 254.005 348.744 253.504 349.086C253.013 349.427 252.432 349.598 251.76 349.598ZM261.202 349.598C260.498 349.598 259.88 349.432 259.346 349.102C258.813 348.76 258.397 348.28 258.098 347.662C257.81 347.043 257.666 346.302 257.666 345.438C257.666 344.563 257.81 343.816 258.098 343.198C258.397 342.579 258.813 342.104 259.346 341.774C259.88 341.443 260.498 341.278 261.202 341.278C261.928 341.278 262.552 341.459 263.074 341.822C263.608 342.184 263.965 342.675 264.146 343.294H263.954V337.678H265.25V349.454H263.97V347.534H264.146C263.976 348.174 263.624 348.68 263.09 349.054C262.557 349.416 261.928 349.598 261.202 349.598ZM261.474 348.542C262.232 348.542 262.84 348.28 263.298 347.758C263.757 347.224 263.986 346.451 263.986 345.438C263.986 344.414 263.757 343.64 263.298 343.118C262.84 342.584 262.232 342.318 261.474 342.318C260.717 342.318 260.109 342.584 259.65 343.118C259.202 343.64 258.978 344.414 258.978 345.438C258.978 346.451 259.202 347.224 259.65 347.758C260.109 348.28 260.717 348.542 261.474 348.542ZM267.756 349.454V341.422H269.052V349.454H267.756ZM267.596 339.598V338.142H269.196V339.598H267.596ZM271.569 349.454V343.278C271.569 342.979 271.553 342.675 271.521 342.366C271.499 342.046 271.473 341.731 271.441 341.422H272.689L272.849 343.182H272.657C272.891 342.563 273.265 342.094 273.777 341.774C274.299 341.443 274.902 341.278 275.585 341.278C276.534 341.278 277.249 341.534 277.729 342.046C278.219 342.547 278.465 343.342 278.465 344.43V349.454H277.169V344.51C277.169 343.752 277.014 343.203 276.705 342.862C276.406 342.51 275.937 342.334 275.297 342.334C274.55 342.334 273.958 342.563 273.521 343.022C273.083 343.48 272.865 344.094 272.865 344.862V349.454H271.569ZM284.48 353.022C283.786 353.022 283.146 352.936 282.56 352.766C281.973 352.595 281.445 352.334 280.976 351.982L281.36 351.006C281.69 351.24 282.016 351.427 282.336 351.566C282.656 351.704 282.986 351.806 283.328 351.87C283.669 351.944 284.032 351.982 284.416 351.982C285.205 351.982 285.802 351.774 286.208 351.358C286.613 350.942 286.816 350.35 286.816 349.582V347.23H286.976C286.805 347.859 286.453 348.36 285.92 348.734C285.386 349.096 284.762 349.278 284.048 349.278C283.312 349.278 282.672 349.118 282.128 348.798C281.594 348.467 281.178 348.003 280.88 347.406C280.592 346.798 280.448 346.083 280.448 345.262C280.448 344.451 280.592 343.747 280.88 343.15C281.178 342.552 281.594 342.094 282.128 341.774C282.672 341.443 283.312 341.278 284.048 341.278C284.773 341.278 285.397 341.459 285.92 341.822C286.453 342.184 286.805 342.686 286.976 343.326L286.816 343.166L286.96 341.422H288.224C288.181 341.731 288.149 342.046 288.128 342.366C288.106 342.675 288.096 342.979 288.096 343.278V349.406C288.096 350.6 287.786 351.502 287.168 352.11C286.56 352.718 285.664 353.022 284.48 353.022ZM284.288 348.222C285.066 348.222 285.68 347.966 286.128 347.454C286.576 346.931 286.8 346.2 286.8 345.262C286.8 344.323 286.576 343.598 286.128 343.086C285.68 342.574 285.066 342.318 284.288 342.318C283.52 342.318 282.906 342.574 282.448 343.086C281.989 343.598 281.76 344.323 281.76 345.262C281.76 346.2 281.989 346.931 282.448 347.454C282.906 347.966 283.52 348.222 284.288 348.222ZM297.812 349.598C297.098 349.598 296.474 349.432 295.94 349.102C295.407 348.76 294.991 348.28 294.692 347.662C294.404 347.043 294.26 346.302 294.26 345.438C294.26 344.563 294.404 343.816 294.692 343.198C294.991 342.579 295.407 342.104 295.94 341.774C296.474 341.443 297.098 341.278 297.812 341.278C298.538 341.278 299.162 341.464 299.684 341.838C300.218 342.2 300.57 342.696 300.74 343.326H300.548L300.724 341.422H301.972C301.94 341.731 301.908 342.046 301.876 342.366C301.855 342.675 301.844 342.979 301.844 343.278V349.454H300.548V347.566H300.724C300.554 348.195 300.202 348.691 299.668 349.054C299.135 349.416 298.516 349.598 297.812 349.598ZM298.068 348.542C298.836 348.542 299.444 348.28 299.892 347.758C300.34 347.224 300.564 346.451 300.564 345.438C300.564 344.414 300.34 343.64 299.892 343.118C299.444 342.584 298.836 342.318 298.068 342.318C297.311 342.318 296.703 342.584 296.244 343.118C295.796 343.64 295.572 344.414 295.572 345.438C295.572 346.451 295.796 347.224 296.244 347.758C296.703 348.28 297.311 348.542 298.068 348.542ZM307.726 349.598C306.937 349.598 306.249 349.427 305.662 349.086C305.086 348.744 304.638 348.259 304.318 347.63C304.009 347 303.854 346.254 303.854 345.39C303.854 344.515 304.014 343.774 304.334 343.166C304.654 342.547 305.102 342.078 305.678 341.758C306.265 341.438 306.947 341.278 307.726 341.278C308.238 341.278 308.734 341.368 309.214 341.55C309.705 341.731 310.11 341.987 310.43 342.318L309.966 343.246C309.646 342.936 309.294 342.707 308.91 342.558C308.537 342.408 308.169 342.334 307.806 342.334C306.974 342.334 306.329 342.595 305.87 343.118C305.411 343.64 305.182 344.403 305.182 345.406C305.182 346.398 305.411 347.166 305.87 347.71C306.329 348.254 306.974 348.526 307.806 348.526C308.158 348.526 308.521 348.456 308.894 348.318C309.278 348.179 309.635 347.95 309.966 347.63L310.43 348.542C310.099 348.883 309.689 349.144 309.198 349.326C308.707 349.507 308.217 349.598 307.726 349.598ZM315.492 349.598C314.702 349.598 314.014 349.427 313.428 349.086C312.852 348.744 312.404 348.259 312.084 347.63C311.774 347 311.62 346.254 311.62 345.39C311.62 344.515 311.78 343.774 312.1 343.166C312.42 342.547 312.868 342.078 313.444 341.758C314.03 341.438 314.713 341.278 315.492 341.278C316.004 341.278 316.5 341.368 316.98 341.55C317.47 341.731 317.876 341.987 318.196 342.318L317.732 343.246C317.412 342.936 317.06 342.707 316.676 342.558C316.302 342.408 315.934 342.334 315.572 342.334C314.74 342.334 314.094 342.595 313.636 343.118C313.177 343.64 312.948 344.403 312.948 345.406C312.948 346.398 313.177 347.166 313.636 347.71C314.094 348.254 314.74 348.526 315.572 348.526C315.924 348.526 316.286 348.456 316.66 348.318C317.044 348.179 317.401 347.95 317.732 347.63L318.196 348.542C317.865 348.883 317.454 349.144 316.964 349.326C316.473 349.507 315.982 349.598 315.492 349.598ZM322.869 349.598C321.92 349.598 321.2 349.336 320.709 348.814C320.229 348.291 319.989 347.491 319.989 346.414V341.422H321.285V346.382C321.285 347.118 321.435 347.662 321.733 348.014C322.032 348.355 322.496 348.526 323.125 348.526C323.829 348.526 324.395 348.296 324.821 347.838C325.248 347.379 325.461 346.766 325.461 345.998V341.422H326.757V349.454H325.493V347.646H325.701C325.477 348.264 325.115 348.744 324.613 349.086C324.123 349.427 323.541 349.598 322.869 349.598ZM329.24 349.454V343.358C329.24 343.038 329.229 342.712 329.208 342.382C329.197 342.051 329.176 341.731 329.144 341.422H330.392L330.552 343.374L330.328 343.39C330.434 342.91 330.621 342.515 330.888 342.206C331.154 341.896 331.469 341.667 331.832 341.518C332.194 341.358 332.573 341.278 332.968 341.278C333.128 341.278 333.266 341.283 333.384 341.294C333.512 341.304 333.629 341.331 333.736 341.374L333.72 342.526C333.56 342.472 333.41 342.44 333.272 342.43C333.144 342.408 332.994 342.398 332.824 342.398C332.354 342.398 331.944 342.51 331.592 342.734C331.25 342.958 330.989 343.246 330.808 343.598C330.637 343.95 330.552 344.323 330.552 344.718V349.454H329.24ZM338.062 349.598C337.348 349.598 336.724 349.432 336.19 349.102C335.657 348.76 335.241 348.28 334.942 347.662C334.654 347.043 334.51 346.302 334.51 345.438C334.51 344.563 334.654 343.816 334.942 343.198C335.241 342.579 335.657 342.104 336.19 341.774C336.724 341.443 337.348 341.278 338.062 341.278C338.788 341.278 339.412 341.464 339.934 341.838C340.468 342.2 340.82 342.696 340.99 343.326H340.798L340.974 341.422H342.222C342.19 341.731 342.158 342.046 342.126 342.366C342.105 342.675 342.094 342.979 342.094 343.278V349.454H340.798V347.566H340.974C340.804 348.195 340.452 348.691 339.918 349.054C339.385 349.416 338.766 349.598 338.062 349.598ZM338.318 348.542C339.086 348.542 339.694 348.28 340.142 347.758C340.59 347.224 340.814 346.451 340.814 345.438C340.814 344.414 340.59 343.64 340.142 343.118C339.694 342.584 339.086 342.318 338.318 342.318C337.561 342.318 336.953 342.584 336.494 343.118C336.046 343.64 335.822 344.414 335.822 345.438C335.822 346.451 336.046 347.224 336.494 347.758C336.953 348.28 337.561 348.542 338.318 348.542ZM347.976 349.598C347.187 349.598 346.499 349.427 345.912 349.086C345.336 348.744 344.888 348.259 344.568 347.63C344.259 347 344.104 346.254 344.104 345.39C344.104 344.515 344.264 343.774 344.584 343.166C344.904 342.547 345.352 342.078 345.928 341.758C346.515 341.438 347.197 341.278 347.976 341.278C348.488 341.278 348.984 341.368 349.464 341.55C349.955 341.731 350.36 341.987 350.68 342.318L350.216 343.246C349.896 342.936 349.544 342.707 349.16 342.558C348.787 342.408 348.419 342.334 348.056 342.334C347.224 342.334 346.579 342.595 346.12 343.118C345.661 343.64 345.432 344.403 345.432 345.406C345.432 346.398 345.661 347.166 346.12 347.71C346.579 348.254 347.224 348.526 348.056 348.526C348.408 348.526 348.771 348.456 349.144 348.318C349.528 348.179 349.885 347.95 350.216 347.63L350.68 348.542C350.349 348.883 349.939 349.144 349.448 349.326C348.957 349.507 348.467 349.598 347.976 349.598ZM352.264 353.086L351.96 352.014C352.462 351.896 352.878 351.758 353.208 351.598C353.55 351.448 353.832 351.246 354.056 350.99C354.28 350.734 354.472 350.414 354.632 350.03L355.048 349.086L355.016 349.63L351.512 341.422H352.92L355.816 348.478H355.4L358.264 341.422H359.624L355.912 350.126C355.699 350.638 355.464 351.064 355.208 351.406C354.952 351.758 354.675 352.04 354.376 352.254C354.088 352.478 353.768 352.654 353.416 352.782C353.064 352.91 352.68 353.011 352.264 353.086ZM360.719 351.278L360.111 350.814C360.399 350.515 360.586 350.232 360.671 349.966C360.767 349.71 360.815 349.448 360.815 349.182L361.103 349.454H360.047V347.822H361.679V348.974C361.679 349.4 361.61 349.8 361.471 350.174C361.332 350.558 361.082 350.926 360.719 351.278ZM370.964 349.598C370.174 349.598 369.572 349.374 369.156 348.926C368.74 348.467 368.532 347.779 368.532 346.862V342.43H366.964V341.422H368.532V339.23L369.828 338.862V341.422H372.132V342.43H369.828V346.718C369.828 347.358 369.934 347.816 370.148 348.094C370.372 348.36 370.702 348.494 371.14 348.494C371.342 348.494 371.524 348.478 371.684 348.446C371.844 348.403 371.988 348.355 372.116 348.302V349.39C371.966 349.454 371.785 349.502 371.572 349.534C371.369 349.576 371.166 349.598 370.964 349.598ZM376.927 349.598C376.159 349.598 375.487 349.432 374.911 349.102C374.346 348.76 373.909 348.28 373.599 347.662C373.29 347.032 373.135 346.291 373.135 345.438C373.135 344.574 373.29 343.832 373.599 343.214C373.909 342.595 374.346 342.12 374.911 341.79C375.487 341.448 376.159 341.278 376.927 341.278C377.706 341.278 378.378 341.448 378.943 341.79C379.519 342.12 379.962 342.595 380.271 343.214C380.591 343.832 380.751 344.574 380.751 345.438C380.751 346.291 380.591 347.032 380.271 347.662C379.962 348.28 379.519 348.76 378.943 349.102C378.378 349.432 377.706 349.598 376.927 349.598ZM376.927 348.542C377.695 348.542 378.303 348.28 378.751 347.758C379.199 347.224 379.423 346.451 379.423 345.438C379.423 344.414 379.194 343.64 378.735 343.118C378.287 342.584 377.685 342.318 376.927 342.318C376.17 342.318 375.567 342.584 375.119 343.118C374.671 343.64 374.447 344.414 374.447 345.438C374.447 346.451 374.671 347.224 375.119 347.758C375.567 348.28 376.17 348.542 376.927 348.542ZM382.772 349.454V343.278C382.772 342.979 382.756 342.675 382.724 342.366C382.702 342.046 382.676 341.731 382.644 341.422H383.892L384.052 343.182H383.86C384.094 342.563 384.468 342.094 384.98 341.774C385.502 341.443 386.105 341.278 386.788 341.278C387.737 341.278 388.452 341.534 388.932 342.046C389.422 342.547 389.668 343.342 389.668 344.43V349.454H388.372V344.51C388.372 343.752 388.217 343.203 387.908 342.862C387.609 342.51 387.14 342.334 386.5 342.334C385.753 342.334 385.161 342.563 384.724 343.022C384.286 343.48 384.068 344.094 384.068 344.862V349.454H382.772ZM395.715 349.598C394.456 349.598 393.464 349.235 392.739 348.51C392.013 347.774 391.651 346.755 391.651 345.454C391.651 344.611 391.811 343.88 392.131 343.262C392.451 342.632 392.899 342.147 393.475 341.806C394.051 341.454 394.712 341.278 395.459 341.278C396.195 341.278 396.813 341.432 397.315 341.742C397.816 342.051 398.2 342.494 398.467 343.07C398.733 343.635 398.867 344.307 398.867 345.086V345.566H392.643V344.75H398.019L397.747 344.958C397.747 344.104 397.555 343.438 397.171 342.958C396.787 342.478 396.216 342.238 395.459 342.238C394.659 342.238 394.035 342.52 393.587 343.086C393.139 343.64 392.915 344.392 392.915 345.342V345.486C392.915 346.488 393.16 347.251 393.651 347.774C394.152 348.286 394.851 348.542 395.747 348.542C396.227 348.542 396.675 348.472 397.091 348.334C397.517 348.184 397.923 347.944 398.307 347.614L398.755 348.526C398.403 348.867 397.955 349.134 397.411 349.326C396.877 349.507 396.312 349.598 395.715 349.598ZM401.266 351.278L400.658 350.814C400.946 350.515 401.133 350.232 401.218 349.966C401.314 349.71 401.362 349.448 401.362 349.182L401.65 349.454H400.594V347.822H402.226V348.974C402.226 349.4 402.157 349.8 402.018 350.174C401.879 350.558 401.629 350.926 401.266 351.278ZM204.492 373.598C203.777 373.598 203.153 373.432 202.62 373.102C202.087 372.76 201.671 372.28 201.372 371.662C201.084 371.043 200.94 370.302 200.94 369.438C200.94 368.563 201.084 367.816 201.372 367.198C201.671 366.579 202.087 366.104 202.62 365.774C203.153 365.443 203.777 365.278 204.492 365.278C205.217 365.278 205.841 365.464 206.364 365.838C206.897 366.2 207.249 366.696 207.42 367.326H207.228L207.404 365.422H208.652C208.62 365.731 208.588 366.046 208.556 366.366C208.535 366.675 208.524 366.979 208.524 367.278V373.454H207.228V371.566H207.404C207.233 372.195 206.881 372.691 206.348 373.054C205.815 373.416 205.196 373.598 204.492 373.598ZM204.748 372.542C205.516 372.542 206.124 372.28 206.572 371.758C207.02 371.224 207.244 370.451 207.244 369.438C207.244 368.414 207.02 367.64 206.572 367.118C206.124 366.584 205.516 366.318 204.748 366.318C203.991 366.318 203.383 366.584 202.924 367.118C202.476 367.64 202.252 368.414 202.252 369.438C202.252 370.451 202.476 371.224 202.924 371.758C203.383 372.28 203.991 372.542 204.748 372.542ZM211.03 373.454V367.278C211.03 366.979 211.014 366.675 210.982 366.366C210.96 366.046 210.934 365.731 210.902 365.422H212.15L212.31 367.182H212.118C212.352 366.563 212.726 366.094 213.238 365.774C213.76 365.443 214.363 365.278 215.046 365.278C215.995 365.278 216.71 365.534 217.19 366.046C217.68 366.547 217.926 367.342 217.926 368.43V373.454H216.63V368.51C216.63 367.752 216.475 367.203 216.166 366.862C215.867 366.51 215.398 366.334 214.758 366.334C214.011 366.334 213.419 366.563 212.982 367.022C212.544 367.48 212.326 368.094 212.326 368.862V373.454H211.03ZM223.445 373.598C222.741 373.598 222.122 373.432 221.589 373.102C221.055 372.76 220.639 372.28 220.341 371.662C220.053 371.043 219.909 370.302 219.909 369.438C219.909 368.563 220.053 367.816 220.341 367.198C220.639 366.579 221.055 366.104 221.589 365.774C222.122 365.443 222.741 365.278 223.445 365.278C224.17 365.278 224.794 365.459 225.317 365.822C225.85 366.184 226.207 366.675 226.389 367.294H226.197V361.678H227.493V373.454H226.213V371.534H226.389C226.218 372.174 225.866 372.68 225.333 373.054C224.799 373.416 224.17 373.598 223.445 373.598ZM223.717 372.542C224.474 372.542 225.082 372.28 225.541 371.758C225.999 371.224 226.229 370.451 226.229 369.438C226.229 368.414 225.999 367.64 225.541 367.118C225.082 366.584 224.474 366.318 223.717 366.318C222.959 366.318 222.351 366.584 221.893 367.118C221.445 367.64 221.221 368.414 221.221 369.438C221.221 370.451 221.445 371.224 221.893 371.758C222.351 372.28 222.959 372.542 223.717 372.542ZM237.738 373.598C236.48 373.598 235.488 373.235 234.762 372.51C234.037 371.774 233.674 370.755 233.674 369.454C233.674 368.611 233.834 367.88 234.154 367.262C234.474 366.632 234.922 366.147 235.498 365.806C236.074 365.454 236.736 365.278 237.482 365.278C238.218 365.278 238.837 365.432 239.338 365.742C239.84 366.051 240.224 366.494 240.49 367.07C240.757 367.635 240.89 368.307 240.89 369.086V369.566H234.666V368.75H240.042L239.77 368.958C239.77 368.104 239.578 367.438 239.194 366.958C238.81 366.478 238.24 366.238 237.482 366.238C236.682 366.238 236.058 366.52 235.61 367.086C235.162 367.64 234.938 368.392 234.938 369.342V369.486C234.938 370.488 235.184 371.251 235.674 371.774C236.176 372.286 236.874 372.542 237.77 372.542C238.25 372.542 238.698 372.472 239.114 372.334C239.541 372.184 239.946 371.944 240.33 371.614L240.778 372.526C240.426 372.867 239.978 373.134 239.434 373.326C238.901 373.507 238.336 373.598 237.738 373.598ZM241.723 373.454L245.323 368.99V369.63L241.915 365.422H243.483L246.059 368.702H245.595L248.155 365.422H249.707L246.347 369.614V369.022L249.915 373.454H248.331L245.579 369.95H246.059L243.275 373.454H241.723ZM251.373 376.91V367.278C251.373 366.979 251.357 366.675 251.325 366.366C251.304 366.046 251.277 365.731 251.245 365.422H252.493L252.669 367.326H252.477C252.648 366.696 252.995 366.2 253.517 365.838C254.04 365.464 254.664 365.278 255.389 365.278C256.115 365.278 256.739 365.443 257.261 365.774C257.795 366.104 258.211 366.579 258.509 367.198C258.808 367.816 258.957 368.563 258.957 369.438C258.957 370.302 258.808 371.043 258.509 371.662C258.221 372.28 257.811 372.76 257.277 373.102C256.744 373.432 256.115 373.598 255.389 373.598C254.675 373.598 254.056 373.416 253.533 373.054C253.011 372.691 252.664 372.195 252.493 371.566H252.669V376.91H251.373ZM255.133 372.542C255.901 372.542 256.509 372.28 256.957 371.758C257.416 371.224 257.645 370.451 257.645 369.438C257.645 368.414 257.416 367.64 256.957 367.118C256.509 366.584 255.901 366.318 255.133 366.318C254.376 366.318 253.768 366.584 253.309 367.118C252.861 367.64 252.637 368.414 252.637 369.438C252.637 370.451 252.861 371.224 253.309 371.758C253.768 372.28 254.376 372.542 255.133 372.542ZM260.935 373.454V367.358C260.935 367.038 260.924 366.712 260.903 366.382C260.892 366.051 260.871 365.731 260.839 365.422H262.087L262.247 367.374L262.023 367.39C262.13 366.91 262.316 366.515 262.583 366.206C262.85 365.896 263.164 365.667 263.527 365.518C263.89 365.358 264.268 365.278 264.663 365.278C264.823 365.278 264.962 365.283 265.079 365.294C265.207 365.304 265.324 365.331 265.431 365.374L265.415 366.526C265.255 366.472 265.106 366.44 264.967 366.43C264.839 366.408 264.69 366.398 264.519 366.398C264.05 366.398 263.639 366.51 263.287 366.734C262.946 366.958 262.684 367.246 262.503 367.598C262.332 367.95 262.247 368.323 262.247 368.718V373.454H260.935ZM270.254 373.598C268.995 373.598 268.003 373.235 267.278 372.51C266.553 371.774 266.19 370.755 266.19 369.454C266.19 368.611 266.35 367.88 266.67 367.262C266.99 366.632 267.438 366.147 268.014 365.806C268.59 365.454 269.251 365.278 269.998 365.278C270.734 365.278 271.353 365.432 271.854 365.742C272.355 366.051 272.739 366.494 273.006 367.07C273.273 367.635 273.406 368.307 273.406 369.086V369.566H267.182V368.75H272.558L272.286 368.958C272.286 368.104 272.094 367.438 271.71 366.958C271.326 366.478 270.755 366.238 269.998 366.238C269.198 366.238 268.574 366.52 268.126 367.086C267.678 367.64 267.454 368.392 267.454 369.342V369.486C267.454 370.488 267.699 371.251 268.19 371.774C268.691 372.286 269.39 372.542 270.286 372.542C270.766 372.542 271.214 372.472 271.63 372.334C272.057 372.184 272.462 371.944 272.846 371.614L273.294 372.526C272.942 372.867 272.494 373.134 271.95 373.326C271.417 373.507 270.851 373.598 270.254 373.598ZM278.061 373.598C277.421 373.598 276.824 373.512 276.269 373.342C275.714 373.16 275.256 372.91 274.893 372.59L275.341 371.678C275.736 371.987 276.162 372.216 276.621 372.366C277.09 372.515 277.576 372.59 278.077 372.59C278.717 372.59 279.197 372.478 279.517 372.254C279.848 372.019 280.013 371.699 280.013 371.294C280.013 370.984 279.906 370.739 279.693 370.558C279.49 370.366 279.154 370.216 278.685 370.11L277.197 369.806C276.514 369.656 276.002 369.406 275.661 369.054C275.32 368.691 275.149 368.232 275.149 367.678C275.149 367.208 275.272 366.798 275.517 366.446C275.762 366.083 276.12 365.8 276.589 365.598C277.058 365.384 277.608 365.278 278.237 365.278C278.824 365.278 279.362 365.368 279.853 365.55C280.354 365.72 280.77 365.971 281.101 366.302L280.637 367.198C280.317 366.888 279.949 366.659 279.533 366.51C279.128 366.35 278.706 366.27 278.269 366.27C277.64 366.27 277.165 366.398 276.845 366.654C276.536 366.899 276.381 367.224 276.381 367.63C276.381 367.939 276.477 368.195 276.669 368.398C276.872 368.59 277.181 368.734 277.597 368.83L279.085 369.134C279.81 369.294 280.349 369.544 280.701 369.886C281.064 370.216 281.245 370.664 281.245 371.23C281.245 371.71 281.112 372.131 280.845 372.494C280.578 372.846 280.205 373.118 279.725 373.31C279.256 373.502 278.701 373.598 278.061 373.598ZM285.999 373.598C285.359 373.598 284.761 373.512 284.207 373.342C283.652 373.16 283.193 372.91 282.831 372.59L283.279 371.678C283.673 371.987 284.1 372.216 284.559 372.366C285.028 372.515 285.513 372.59 286.015 372.59C286.655 372.59 287.135 372.478 287.455 372.254C287.785 372.019 287.951 371.699 287.951 371.294C287.951 370.984 287.844 370.739 287.631 370.558C287.428 370.366 287.092 370.216 286.623 370.11L285.135 369.806C284.452 369.656 283.94 369.406 283.599 369.054C283.257 368.691 283.087 368.232 283.087 367.678C283.087 367.208 283.209 366.798 283.455 366.446C283.7 366.083 284.057 365.8 284.527 365.598C284.996 365.384 285.545 365.278 286.174 365.278C286.761 365.278 287.3 365.368 287.791 365.55C288.292 365.72 288.708 365.971 289.039 366.302L288.575 367.198C288.255 366.888 287.887 366.659 287.471 366.51C287.065 366.35 286.644 366.27 286.207 366.27C285.577 366.27 285.103 366.398 284.783 366.654C284.473 366.899 284.319 367.224 284.319 367.63C284.319 367.939 284.415 368.195 284.607 368.398C284.809 368.59 285.119 368.734 285.535 368.83L287.023 369.134C287.748 369.294 288.287 369.544 288.639 369.886C289.001 370.216 289.183 370.664 289.183 371.23C289.183 371.71 289.049 372.131 288.783 372.494C288.516 372.846 288.143 373.118 287.663 373.31C287.193 373.502 286.639 373.598 285.999 373.598ZM291.264 373.454V365.422H292.56V373.454H291.264ZM291.104 363.598V362.142H292.704V363.598H291.104ZM298.373 373.598C297.605 373.598 296.933 373.432 296.357 373.102C295.791 372.76 295.354 372.28 295.045 371.662C294.735 371.032 294.581 370.291 294.581 369.438C294.581 368.574 294.735 367.832 295.045 367.214C295.354 366.595 295.791 366.12 296.357 365.79C296.933 365.448 297.605 365.278 298.373 365.278C299.151 365.278 299.823 365.448 300.389 365.79C300.965 366.12 301.407 366.595 301.717 367.214C302.037 367.832 302.197 368.574 302.197 369.438C302.197 370.291 302.037 371.032 301.717 371.662C301.407 372.28 300.965 372.76 300.389 373.102C299.823 373.432 299.151 373.598 298.373 373.598ZM298.373 372.542C299.141 372.542 299.749 372.28 300.197 371.758C300.645 371.224 300.869 370.451 300.869 369.438C300.869 368.414 300.639 367.64 300.181 367.118C299.733 366.584 299.13 366.318 298.373 366.318C297.615 366.318 297.013 366.584 296.565 367.118C296.117 367.64 295.893 368.414 295.893 369.438C295.893 370.451 296.117 371.224 296.565 371.758C297.013 372.28 297.615 372.542 298.373 372.542ZM304.217 373.454V367.278C304.217 366.979 304.201 366.675 304.169 366.366C304.148 366.046 304.121 365.731 304.089 365.422H305.337L305.497 367.182H305.305C305.54 366.563 305.913 366.094 306.425 365.774C306.948 365.443 307.55 365.278 308.233 365.278C309.182 365.278 309.897 365.534 310.377 366.046C310.868 366.547 311.113 367.342 311.113 368.43V373.454H309.817V368.51C309.817 367.752 309.662 367.203 309.353 366.862C309.054 366.51 308.585 366.334 307.945 366.334C307.198 366.334 306.606 366.563 306.169 367.022C305.732 367.48 305.513 368.094 305.513 368.862V373.454H304.217ZM316.264 373.598C315.624 373.598 315.027 373.512 314.472 373.342C313.917 373.16 313.459 372.91 313.096 372.59L313.544 371.678C313.939 371.987 314.365 372.216 314.824 372.366C315.293 372.515 315.779 372.59 316.28 372.59C316.92 372.59 317.4 372.478 317.72 372.254C318.051 372.019 318.216 371.699 318.216 371.294C318.216 370.984 318.109 370.739 317.896 370.558C317.693 370.366 317.357 370.216 316.888 370.11L315.4 369.806C314.717 369.656 314.205 369.406 313.864 369.054C313.523 368.691 313.352 368.232 313.352 367.678C313.352 367.208 313.475 366.798 313.72 366.446C313.965 366.083 314.323 365.8 314.792 365.598C315.261 365.384 315.811 365.278 316.44 365.278C317.027 365.278 317.565 365.368 318.056 365.55C318.557 365.72 318.973 365.971 319.304 366.302L318.84 367.198C318.52 366.888 318.152 366.659 317.736 366.51C317.331 366.35 316.909 366.27 316.472 366.27C315.843 366.27 315.368 366.398 315.048 366.654C314.739 366.899 314.584 367.224 314.584 367.63C314.584 367.939 314.68 368.195 314.872 368.398C315.075 368.59 315.384 368.734 315.8 368.83L317.288 369.134C318.013 369.294 318.552 369.544 318.904 369.886C319.267 370.216 319.448 370.664 319.448 371.23C319.448 371.71 319.315 372.131 319.048 372.494C318.781 372.846 318.408 373.118 317.928 373.31C317.459 373.502 316.904 373.598 316.264 373.598ZM321.196 373.454V371.822H322.828V373.454H321.196Z" fill="#2D2D2D"/>
</g>
<defs>
<filter id="filter0_d_2268_876" x="0.514149" y="0.739641" width="591.68" height="625.226" filterUnits="userSpaceOnUse" color-interpolation-filters="sRGB">
<feFlood flood-opacity="0" result="BackgroundImageFix"/>
<feColorMatrix in="SourceAlpha" type="matrix" values="0 0 0 0 0 0 0 0 0 0 0 0 0 0 0 0 0 0 127 0" result="hardAlpha"/>
<feOffset dx="34.8541" dy="29.626"/>
<feGaussianBlur stdDeviation="24.17"/>
<feComposite in2="hardAlpha" operator="out"/>
<feColorMatrix type="matrix" values="0 0 0 0 0.2 0 0 0 0 0.4 0 0 0 0 1 0 0 0 0.05 0"/>
<feBlend mode="normal" in2="BackgroundImageFix" result="effect1_dropShadow_2268_876"/>
<feBlend mode="normal" in="SourceGraphic" in2="effect1_dropShadow_2268_876" result="shape"/>
</filter>
</defs>
</svg>
